<?xml version="1.0" encoding="UTF-8" standalone="no"?>
<svg
   xmlns:dc="http://purl.org/dc/elements/1.1/"
   xmlns:cc="http://creativecommons.org/ns#"
   xmlns:rdf="http://www.w3.org/1999/02/22-rdf-syntax-ns#"
   xmlns:svg="http://www.w3.org/2000/svg"
   xmlns="http://www.w3.org/2000/svg"
   xmlns:sodipodi="http://sodipodi.sourceforge.net/DTD/sodipodi-0.dtd"
   xmlns:inkscape="http://www.inkscape.org/namespaces/inkscape"
   width="210mm"
   height="297mm"
   viewBox="0 0 210 297"
   version="1.1"
   id="svg16"
   sodipodi:docname="03d.svg"
   inkscape:version="1.0 (4035a4fb49, 2020-05-01)">
  <defs
     id="defs10" />
  <sodipodi:namedview
     id="base"
     pagecolor="#ffffff"
     bordercolor="#666666"
     borderopacity="1.0"
     inkscape:pageopacity="0.0"
     inkscape:pageshadow="2"
     inkscape:zoom="0.94"
     inkscape:cx="400"
     inkscape:cy="645.10638"
     inkscape:document-units="mm"
     inkscape:current-layer="layer1"
     inkscape:document-rotation="0"
     showgrid="false"
     inkscape:window-width="1800"
     inkscape:window-height="1106"
     inkscape:window-x="-11"
     inkscape:window-y="-11"
     inkscape:window-maximized="1" />
  <metadata
     id="metadata13">
    <rdf:RDF>
      <cc:Work
         rdf:about="">
        <dc:format>image/svg+xml</dc:format>
        <dc:type
           rdf:resource="http://purl.org/dc/dcmitype/StillImage" />
        <dc:title />
      </cc:Work>
    </rdf:RDF>
  </metadata>
  <g
     inkscape:label="Livello 1"
     inkscape:groupmode="layer"
     id="layer1">
    <path
       style="fill:#ffcc00;stroke-width:0.264583"
       id="path24"
       sodipodi:type="arc"
       sodipodi:cx="96.685509"
       sodipodi:cy="148.33556"
       sodipodi:rx="67.130981"
       sodipodi:ry="66.427307"
       sodipodi:start="0.017453293"
       sodipodi:end="0"
       sodipodi:open="true"
       sodipodi:arc-type="chord"
       d="M 163.80627,149.49487 A 67.130981,66.427307 0 0 1 95.806791,214.75717 67.130981,66.427307 0 0 1 29.557083,147.75588 67.130981,66.427307 0 0 1 96.978422,81.908881 67.130981,66.427307 0 0 1 163.81649,148.33556 Z" />
    <path
       style="fill:#ffcc00;stroke-width:0.264583"
       id="path26"
       d="m 81.600751,52.097278 c -0.41456,1.196634 -1.022697,2.308423 -1.515015,3.470375 -0.464706,1.086686 -0.738182,2.23138 -0.837438,3.405945 -0.04324,0.902591 -0.122211,1.80359 0.08267,2.689629 0.231325,1.147469 1.20772,1.836878 2.121895,2.45214 1.288335,0.718053 2.57533,1.439908 3.885763,2.117259 1.146646,0.572717 2.38265,0.943272 3.509439,1.554435 0.846127,0.457065 1.569857,1.044941 2.139672,1.817783 0.56374,0.929016 0.566962,2.07314 0.614106,3.128521 0.03544,1.325943 0.02535,2.652649 0.01624,3.978886 -0.100825,1.278202 -0.38858,2.523575 -0.784153,3.739343 -0.363657,0.9642 -1.045485,1.715132 -1.790182,2.400694 -0.603795,0.631619 -1.346504,1.053949 -2.0961,1.482233 -0.11157,0.06932 -0.448559,0.273457 -0.334711,0.207949 6.864233,-3.949737 1.473954,-0.873167 -0.863317,0.521944 0,0 3.896606,-1.509157 3.896606,-1.509157 v 0 c 0.08423,-0.05387 0.339624,-0.211037 0.252701,-0.161624 -1.098659,0.624539 -4.376381,2.529848 -3.288221,1.887191 8.958294,-5.290687 2.17315,-1.209145 4.22271,-2.442908 0.739103,-0.453692 1.453476,-0.925047 2.048836,-1.566902 0.73796,-0.741455 1.375288,-1.572287 1.694037,-2.584527 0.381772,-1.251484 0.635071,-2.54041 0.72222,-3.847761 7.94e-4,-1.331878 0.0145,-2.664256 -0.02863,-3.995682 -0.05422,-1.139143 -0.08066,-2.361827 -0.707517,-3.355155 -0.604259,-0.822685 -1.339533,-1.476975 -2.243048,-1.964301 -1.126553,-0.633727 -2.369354,-1.002519 -3.538395,-1.549863 -1.299307,-0.667552 -2.578369,-1.373407 -3.852418,-2.087901 -0.845708,-0.537456 -1.73429,-1.138563 -1.926608,-2.190705 -0.161515,-0.84754 -0.09099,-1.713122 -0.0362,-2.569557 0.129368,-1.129077 0.391147,-2.231167 0.860407,-3.272006 0.535445,-1.167421 1.095108,-2.322693 1.565272,-3.519403 0,0 -3.790632,1.763125 -3.790632,1.763125 z" />
    <path
       style="fill:#ffcc00;stroke-width:0.264583"
       id="path28"
       d="m 131.0387,57.040906 c -2.14505,0.0074 -4.29001,-0.0907 -6.43354,-0.167611 -3.06865,-0.05153 -3.16257,0.371452 -6.5499,2.456022 -0.15678,0.09648 -0.25506,0.271335 -0.34209,0.433548 -0.10108,0.1884 -0.14319,0.402921 -0.21478,0.60438 -0.25272,1.737411 -0.10516,3.496035 0.31057,5.193845 0.28478,1.077259 0.77313,2.07237 1.24743,3.072969 0.46713,0.774769 0.79829,1.590434 1.02443,2.464893 0.27652,0.927285 0.4008,1.882634 0.46718,2.844609 0.12574,1.062281 -0.40319,1.933339 -1.03064,2.738347 -0.78406,1.025316 -1.83213,1.713643 -2.92547,2.362597 7.41036,-4.370347 -1.43388,0.913204 -3.55673,2.1115 -0.18126,0.104751 -0.36614,0.203475 -0.54378,0.314256 -0.15487,0.09658 -0.72161,0.496353 -0.88404,0.601578 -1.20501,0.780624 -3.53743,2.063543 2.37563,-1.378821 -0.86004,0.426043 -1.72292,0.843058 -2.57516,1.284708 -0.40646,0.192183 -0.82382,0.358633 -1.23492,0.540414 0,0 -3.25322,2.593669 -3.25322,2.593669 v 0 c 0.40413,-0.20972 0.81884,-0.38244 1.24563,-0.542042 0.86392,-0.409969 1.69449,-0.890706 2.5716,-1.275784 2.07687,-1.179922 4.14478,-2.329201 6.14932,-3.616899 0.59098,-0.351221 1.17838,-0.707361 1.77085,-1.056047 0.20631,-0.121423 0.82567,-0.484836 0.617,-0.367511 -2.34168,1.316659 -6.73477,3.8644 1.1636,-0.695976 1.09667,-0.687401 2.12011,-1.455693 2.88147,-2.522609 0.61026,-0.914988 1.06777,-1.875004 0.91739,-3.007297 -0.0864,-0.984586 -0.22776,-1.959589 -0.5062,-2.910834 -0.24898,-0.890125 -0.5725,-1.744348 -1.05203,-2.537942 -0.47291,-0.966785 -0.98135,-1.919761 -1.25227,-2.970742 -0.39041,-1.619432 -0.58808,-3.325047 -0.16566,-4.959603 0.0932,-0.160896 0.16235,-0.338429 0.2797,-0.482688 0.10463,-0.128638 0.2513,-0.2164 0.37695,-0.324601 -1.02608,0.56402 -2.05217,1.128038 -3.07825,1.692058 -0.18869,0.12042 0.43523,-0.105921 0.65549,-0.145831 0.9102,-0.164936 0.82779,-0.120488 1.82165,-0.139453 2.11944,0.05154 4.23693,0.147068 6.35418,0.240339 0,0 3.36861,-2.447441 3.36861,-2.447441 z" />
    <path
       style="fill:#ffcc00;stroke-width:0.264583"
       id="path30"
       d="m 133.18394,95.489997 c 2.57874,-0.572106 4.58312,-2.084999 6.85217,-3.450664 1.42602,-1.30552 2.61869,-2.8136 3.59782,-4.475054 0.89901,-1.466866 1.50824,-2.814375 1.82963,-4.503214 0.19006,-1.350539 0.29038,-2.722168 0.14494,-4.080028 -0.27467,-1.608243 -0.77222,-3.166152 -1.1492,-4.752102 -0.4122,-1.600708 -0.42737,-3.220857 -0.22281,-4.849317 0.47398,-2.024552 1.52224,-2.996711 3.14011,-4.192498 -0.84936,0.507804 -1.72901,0.968084 -2.54809,1.523407 -0.27806,0.188521 0.60474,-0.294285 0.91719,-0.417689 0.94438,-0.372978 1.99882,-0.688152 3.00718,-0.830316 0.30373,-0.04282 0.61206,-0.0415 0.91809,-0.06225 2.0999,0.119391 3.76804,1.331244 5.2563,2.710929 0.6067,0.571963 1.11848,1.229834 1.638,1.878497 0,0 3.5294,-2.112214 3.5294,-2.112214 v 0 c -0.53953,-0.659614 -1.07825,-1.321983 -1.70127,-1.90672 -1.53851,-1.446247 -3.26838,-2.724007 -5.42588,-2.985473 -0.32058,0.0039 -0.64291,-0.02177 -0.96176,0.01183 -0.32635,0.0344 -0.6455,0.119538 -0.96571,0.191328 -2.94166,0.659513 -4.70652,1.71814 -7.45378,3.511417 -1.63381,1.307696 -2.62489,2.378734 -3.01875,4.496319 -0.17717,1.674892 -0.16496,3.344524 0.27879,4.983533 0.38839,1.563171 0.87136,3.109047 1.10877,4.704149 0.0944,1.324631 0.0164,2.661044 -0.19755,3.971927 -0.34508,1.561362 -1.00284,2.998155 -1.84713,4.356373 -1.01689,1.624065 -2.2204,3.132619 -3.71233,4.349781 6.1716,-3.426513 2.00472,-0.918593 0.31091,-0.600636 0,0 -3.32504,2.528679 -3.32504,2.528679 z" />
    <path
       style="fill:#ffcc00;stroke-width:0.264583"
       id="path32"
       d="m 149.78804,114.60349 c 1.35207,-0.64613 2.69346,-1.31565 4.05053,-1.95176 0.3228,-0.14461 0.64459,-0.29153 0.96842,-0.43384 1.05151,-0.46208 2.12087,-0.86818 3.1484,-1.38379 1.76605,-0.88621 4.29841,-2.42699 5.56312,-3.15733 0.85957,-0.60315 1.79301,-1.16699 2.40189,-2.05233 0.69916,-1.01661 0.93368,-2.23075 1.21455,-3.40522 0.4942,-2.596431 0.27346,-5.247112 0.0295,-7.857441 -0.20112,-1.721993 -0.48328,-3.432212 -0.72468,-5.148431 -0.0681,-0.662443 -0.28807,-1.065774 0.26375,-1.587609 0.21614,-0.204388 0.98223,-0.667639 0.71984,-0.527486 -6.30761,3.3691 -1.04111,0.762698 -0.86051,0.675097 1.36974,-0.611656 2.78053,-1.126903 4.21469,-1.565111 0.55164,-0.168553 1.31499,-0.402825 1.90921,-0.451284 0.26904,-0.02193 0.53974,0.01209 0.80961,0.01815 1.51762,0.150775 2.68917,1.080137 3.79976,2.043557 0.93567,0.868767 1.89032,1.716727 2.8539,2.554242 0.46449,0.357934 0.23194,0.195445 0.69488,0.491437 0,0 3.4976,-2.265185 3.4976,-2.265185 v 0 c -0.44707,-0.244411 -0.221,-0.105521 -0.67438,-0.422841 -0.9872,-0.811096 -1.93954,-1.664409 -2.87231,-2.537529 -1.16741,-1.004377 -2.39255,-2.023732 -3.96704,-2.253448 -0.29029,-0.02867 -0.57927,-0.09381 -0.87087,-0.086 -0.65526,0.01754 -1.3834,0.253725 -1.99506,0.439653 -1.45231,0.44147 -2.8833,0.954241 -4.27931,1.550971 -2.63957,1.194732 -2.44176,1.044263 -6.04868,3.343603 -0.50333,0.320866 -0.85393,0.788678 -0.96357,1.372945 -0.0341,0.181774 0.0978,0.971399 0.12164,1.133938 0.27068,1.698146 0.5612,3.392939 0.77452,5.09978 0.27695,2.566656 0.46919,5.178352 -0.0783,7.725432 -0.23072,0.88294 -0.3442,1.50561 -0.75527,2.3293 -0.64218,1.28677 -1.81623,2.09146 -2.99736,2.83598 0.81626,-0.4664 1.64133,-0.9177 2.44878,-1.3992 0.3455,-0.20603 -0.70579,0.3863 -1.0624,0.57246 -1.32398,0.69116 -2.72829,1.18931 -4.08729,1.80603 -1.33697,0.6104 -2.64504,1.27998 -3.98447,1.88307 0,0 -3.26315,2.6102 -3.26315,2.6102 z" />
    <path
       style="fill:#ffcc00;stroke-width:0.264583"
       id="path34"
       d="m 157.9614,141.11797 c 1.56039,-0.0261 3.12115,-0.0217 4.68172,-0.0232 0.30121,-0.0276 0.60548,-0.0318 0.90361,-0.0828 1.73311,-0.29675 4.74618,-2.43012 5.45945,-2.83221 1.00017,-0.56383 -1.98979,1.14619 -2.97995,1.72741 -0.18369,0.10783 0.37358,-0.20476 0.56036,-0.30713 0.83596,-0.45487 1.66651,-0.92232 2.51761,-1.34876 0.19869,-0.0996 0.40834,-0.17788 0.60078,-0.28902 1.38061,-0.79731 2.74434,-1.62348 4.1165,-2.43523 1.10749,-1.04752 2.0449,-2.27744 2.93065,-3.51551 0.55083,-1.12768 1.09257,-2.24522 1.76309,-3.30758 0.40078,-0.59652 0.79098,-1.2916 1.37627,-1.73616 0.15149,-0.11507 0.65641,-0.38493 0.49316,-0.28727 -0.99932,0.59781 -2.0009,1.19182 -3.00136,1.78773 1.14194,-0.53295 2.35644,-0.88877 3.56788,-1.22517 1.39353,-0.4133 2.46847,-0.34492 3.83451,0.1079 1.01592,0.41726 1.89179,1.09255 2.82078,1.66649 0.51001,0.24624 0.97564,0.56456 1.42735,0.90301 0,0 3.53561,-2.24293 3.53561,-2.24293 v 0 c -0.4715,-0.33404 -0.92285,-0.70831 -1.46652,-0.92445 -0.97557,-0.55659 -1.87856,-1.24079 -2.90637,-1.7027 -1.37633,-0.54452 -2.51963,-0.71361 -3.96879,-0.32046 -1.2246,0.31106 -2.44198,0.67691 -3.60949,1.16182 -3.2434,1.82712 -4.29628,1.82033 -5.88876,4.48392 -0.64527,1.06416 -1.12996,2.20601 -1.76552,3.27396 -0.89767,1.20303 -1.78138,2.4554 -2.97786,3.38236 0.98217,-0.54626 1.97504,-1.07369 2.9465,-1.63877 0.19508,-0.11348 -0.41195,0.18461 -0.61521,0.2827 -0.85422,0.41225 -1.68002,0.88361 -2.51443,1.33351 -1.95271,1.04971 -0.34445,0.17841 -4.65374,2.65126 -0.99753,0.57243 1.99155,-1.15099 2.99208,-1.71816 0.19559,-0.11087 -0.37422,0.25225 -0.57708,0.34919 -0.7133,0.34085 -0.80742,0.28717 -1.60846,0.39629 -1.53929,-0.002 -3.07879,0.003 -4.61791,-0.0232 0,0 -3.37646,2.45314 -3.37646,2.45314 z" />
    <path
       style="fill:#ffcc00;stroke-width:0.286567"
       id="path36"
       d="m 157.22353,167.29626 c 1.94299,0.0481 3.88383,0.14624 5.82673,0.20177 0.58138,-0.002 1.22042,0.0139 1.79938,-0.0565 2.37225,-0.28838 5.7447,-2.41243 7.19169,-3.14123 1.18627,-0.87988 2.03435,-2.03232 2.98411,-3.08934 0.76595,-0.98969 1.77589,-1.80454 2.76265,-2.62971 0.1854,-0.13959 0.35713,-0.2936 0.55617,-0.41878 0.22358,-0.14062 0.9474,-0.49522 0.70738,-0.37589 -1.12405,0.55888 -2.26516,1.09479 -3.35976,1.69465 -0.2642,0.14478 0.5701,-0.22543 0.86142,-0.32552 0.69824,-0.2399 0.94706,-0.28628 1.65902,-0.46393 0.78952,-0.11718 1.75741,-0.44408 2.55726,-0.16921 0.40751,0.14004 0.5864,0.36171 0.88151,0.62562 0.86042,0.93289 1.53906,1.96398 2.12114,3.03839 0.64779,1.17884 1.35484,2.33565 1.90885,3.54957 0.78667,1.80687 1.58853,3.60845 2.44844,5.39106 0.65338,1.33816 1.34517,2.66359 2.10661,3.95961 0,0 4.1778,-2.03556 4.1778,-2.03556 v 0 c -0.80141,-1.26191 -1.52612,-2.56066 -2.14032,-3.89751 -0.82721,-1.79683 -1.6079,-3.60698 -2.36823,-5.42448 -0.56082,-1.22217 -1.26653,-2.38966 -1.9065,-3.58252 -0.61913,-1.10544 -1.31847,-2.17152 -2.19513,-3.1461 -0.33288,-0.32183 -0.56749,-0.60419 -1.01572,-0.82059 -0.83178,-0.40157 -1.87632,-0.13433 -2.74664,0.003 -3.20943,0.71284 -6.27875,2.06407 -8.7333,3.97679 -0.99143,0.83654 -1.95855,1.69314 -2.73572,2.68691 -0.90822,1.05396 -1.78871,2.16941 -3.03516,2.95666 7.33578,-3.50599 3.31999,-1.46779 1.99954,-1.02375 -0.83419,0.28053 -1.70117,0.3193 -2.58844,0.31971 -1.92151,-0.0461 -3.84552,-0.0978 -5.75931,-0.25915 0,0 -3.96547,2.456 -3.96547,2.456 z" />
    <path
       style="fill:#ffcc00;stroke-width:0.264583"
       id="path38"
       d="m 149.68554,187.03948 c 2.39826,0.76018 4.89591,1.07168 7.39067,1.30535 3.08486,0.28027 6.18179,0.0417 9.25947,-0.20829 1.49165,-0.14218 2.9862,-0.23976 4.48364,-0.28888 1.91543,0.043 3.28358,0.88172 4.8432,1.90238 1.66285,1.10821 3.13895,2.4303 4.22556,4.11116 0.68448,1.30564 0.95736,2.78884 0.81885,4.25132 -0.2221,1.55883 -1.1201,2.92869 -1.95923,4.22645 -0.1575,0.22608 -0.31501,0.45215 -0.47252,0.67822 0,0 3.76071,-1.64068 3.76071,-1.64068 v 0 c 0.15277,-0.2288 0.30554,-0.45759 0.4583,-0.68639 0.84974,-1.35851 1.74982,-2.80342 1.90935,-4.43174 0.0524,-1.54188 -0.23641,-3.10118 -0.9737,-4.46763 -0.42269,-0.64338 -0.5116,-0.82754 -1.03147,-1.41448 -0.9668,-1.09155 -2.15997,-1.95252 -3.33241,-2.80458 -0.46006,-0.31469 -1.50431,-1.04898 -2.01658,-1.32482 -0.88368,-0.47582 -1.90909,-0.72566 -2.89824,-0.83301 -1.52497,0.0282 -3.04608,0.14033 -4.56157,0.31386 -3.07418,0.30084 -6.17184,0.57661 -9.25923,0.29862 -2.42443,-0.22364 -4.87296,-0.48368 -7.17665,-1.32126 0,0 -3.46815,2.3344 -3.46815,2.3344 z" />
    <path
       style="fill:#ffcc00;stroke-width:0.264583"
       id="path40"
       d="m 131.79361,205.01624 c -0.0824,1.05106 -0.15181,2.10261 -0.19839,3.15588 0.009,0.58374 -0.076,1.1779 -0.0293,1.76118 0.0161,0.20174 0.14735,0.94181 0.18123,1.13989 0.0788,0.30707 0.1661,0.75241 0.34583,1.02455 0.59813,0.90566 1.68162,1.20348 2.65251,1.50351 2.17566,0.53383 4.34476,0.63258 6.56943,0.47014 1.59423,-0.1722 3.15522,-0.53747 4.72019,-0.87174 1.30422,-0.30534 2.56239,-0.77556 3.84082,-1.1708 1.65955,-0.55206 3.38681,-0.8365 5.12183,-1.01164 1.38309,-0.01 2.43472,0.77035 3.26658,1.80431 0.57859,0.9184 0.59389,1.95832 0.54076,3.00516 -0.24312,1.4423 -0.9732,2.67966 -1.81805,3.84476 -0.65198,0.93289 -1.41314,1.78046 -2.17091,2.6274 -0.51052,0.52253 -0.99229,1.06782 -1.31278,1.72829 -0.19562,0.3873 -0.19243,0.50008 -0.52591,0.79175 0,0 3.83914,-1.62611 3.83914,-1.62611 v 0 c 0.18577,-0.28312 0.349,-0.56933 0.49857,-0.87326 0.37312,-0.60307 0.85963,-1.11534 1.33574,-1.63769 0.73966,-0.85392 1.47289,-1.71529 2.10936,-2.65071 0.84087,-1.23973 1.54965,-2.55827 1.74045,-4.06858 0.0355,-1.14914 -0.0372,-2.27428 -0.68147,-3.26891 -0.90716,-1.11061 -2.03753,-1.99907 -3.51605,-2.12695 -1.75212,0.16196 -3.50667,0.42211 -5.18673,0.96046 -1.26888,0.36833 -2.51406,0.81185 -3.78573,1.1705 -1.58137,0.33772 -3.1484,0.74726 -4.75435,0.96165 -0.97687,0.0948 -1.32913,0.15689 -2.3194,0.13893 -1.3856,-0.0251 -2.7745,-0.22861 -4.12887,-0.50675 -0.81561,-0.23801 -1.90542,-0.44683 -2.41649,-1.22007 -0.14993,-0.22685 -0.24251,-0.68393 -0.30684,-0.93735 -0.14759,-0.94234 -0.15521,-1.88034 -0.10157,-2.8324 0.0384,-1.04927 0.0963,-2.09933 0.23388,-3.14092 0,0 -3.74349,1.85552 -3.74349,1.85552 z" />
    <path
       style="fill:#ffcc00;stroke-width:0.264583"
       id="path42"
       d="m 114.01767,212.03259 c -0.39652,1.56611 -1.0569,3.0366 -1.74991,4.48961 -0.71353,1.3284 -1.45847,2.65257 -2.34841,3.87235 -0.55421,0.66444 -1.23403,1.25708 -1.64573,2.02429 -0.30824,0.84064 -0.36461,1.7516 -0.31547,2.63861 0.10741,0.88637 0.56808,1.61741 1.16026,2.26006 0.10798,0.0943 0.20262,0.20655 0.32392,0.28297 1.04424,0.6579 2.49383,0.62582 3.67663,0.69534 1.4926,0.0772 2.98743,0.0737 4.4815,0.0773 0.65534,0.0361 1.36383,-0.10018 1.99534,0.1454 0.30341,0.11799 0.43346,0.26234 0.68054,0.46861 0.72776,0.8036 0.93953,1.9069 1.08536,2.94901 0.0625,1.16715 -0.88936,1.9017 -1.79331,2.4492 0.94588,-0.55883 1.90142,-1.10164 2.83765,-1.67649 0.23033,-0.14143 -0.47696,0.25453 -0.7187,0.37542 -0.91625,0.45824 -1.85829,0.86178 -2.78571,1.29612 -1.93863,1.03114 -3.88235,1.89263 -5.33429,3.50674 -0.42095,0.54009 -0.75689,1.12135 -1.04544,1.7411 -0.0417,0.11136 -0.0835,0.22271 -0.12523,0.33407 0,0 3.78803,-1.74885 3.78803,-1.74885 v 0 c 0.0453,-0.10203 0.0905,-0.20406 0.13579,-0.30608 0.3057,-0.58344 0.65246,-1.14446 1.10078,-1.6311 1.12701,-1.15199 4.15339,-2.76254 -1.74825,0.6808 2.60736,-1.31341 5.36233,-2.28565 7.73233,-4.07458 1.02849,-0.76053 1.75764,-1.52069 1.62442,-2.88561 -0.18555,-1.13323 -0.46905,-2.30793 -1.22482,-3.20468 -0.23393,-0.21298 -0.48992,-0.47419 -0.77662,-0.62062 -0.64547,-0.32966 -1.39551,-0.21743 -2.08731,-0.22681 -1.49918,0.0111 -2.99906,0.0172 -4.49757,-0.0362 -0.9352,-0.0491 -2.63432,-0.0653 -3.47031,-0.51441 -0.11256,-0.0605 -0.19939,-0.15981 -0.29908,-0.23972 -0.53663,-0.56185 -0.95098,-1.20505 -1.01939,-1.99898 -0.0186,-0.82325 0.0338,-1.68324 0.43337,-2.4212 0.49899,-0.69779 1.11289,-1.30517 1.62854,-1.99076 0.84105,-1.25197 1.59423,-2.56989 2.27245,-3.9159 0.69304,-1.49798 1.35481,-3.01355 1.79124,-4.60965 0,0 -3.7626,1.81464 -3.7626,1.81464 z" />
    <path
       style="fill:#ffcc00;stroke-width:0.264583"
       id="path44"
       d="m 75.910124,207.45435 c -3.492516,0.69672 -7.017639,1.21537 -10.530964,1.79396 -0.827696,0.13833 -2.024036,0.3195 -2.857881,0.52596 -2.411428,0.59707 -4.767117,1.96175 -6.660142,3.4855 -0.695055,0.80784 -0.885028,1.78913 -0.84927,2.82491 0.186386,1.02426 0.778642,1.89265 1.235075,2.80826 0.300678,0.65734 0.394811,1.36817 0.43543,2.08182 -0.01093,0.89592 0.08276,1.78398 0.159433,2.67532 -0.0345,0.65088 0.287123,1.43464 -0.0079,2.05908 -0.220803,0.46744 -0.512342,0.55171 -0.942602,0.82671 0.861417,-0.53301 1.797849,-0.96051 2.584251,-1.59903 0.300657,-0.24412 -0.724649,0.27498 -1.09461,0.38951 -1.599102,0.49505 -3.254687,0.65185 -4.913881,0.79049 -2.130666,0.13907 -4.266684,0.13473 -6.400753,0.12941 -0.749887,-0.002 -1.499722,-0.0113 -2.249548,-0.0202 0,0 -3.341169,2.42503 -3.341169,2.42503 v 0 c 0.760857,-0.002 1.521714,-0.003 2.282574,-0.002 2.155282,-5.3e-4 4.31248,-0.005 6.464527,-0.1371 1.671812,-0.11622 3.331917,-0.25823 4.95541,-0.69909 0.372946,-0.10127 0.764535,-0.16254 1.109195,-0.33734 1.505283,-0.76344 2.94763,-1.6451 4.421446,-2.46765 0.194551,-0.1828 0.422408,-0.33565 0.583653,-0.54841 0.584049,-0.77063 0.243231,-1.85114 0.227036,-2.72363 -0.07809,-0.89404 -0.124931,-1.7864 -0.12949,-2.6838 -0.06529,-0.76402 -0.200316,-1.51985 -0.531325,-2.21914 -0.441913,-0.85089 -1.015971,-1.66895 -1.143837,-2.64066 0.01283,-0.94893 0.243925,-1.81497 0.985767,-2.46107 1.156985,-0.81685 1.948545,-1.35091 -2.373062,1.27098 -0.275444,0.16711 0.575482,-0.29173 0.874718,-0.41111 1.290116,-0.51469 2.659708,-0.73332 4.021127,-0.9679 3.45776,-0.60532 6.930493,-1.11734 10.397321,-1.66732 0,0 3.289421,-2.50159 3.289421,-2.50159 z" />
    <path
       style="fill:#ffcc00;stroke-width:0.264583"
       id="path46"
       d="m 93.009518,210.84469 c -2.476506,1.18316 -4.963234,2.33701 -7.406648,3.59008 -2.897394,1.85734 -6.146604,3.21115 -8.790207,5.44862 -1.199803,1.05707 -1.955684,2.46062 -2.50159,3.94095 -0.214384,0.89567 -0.536761,1.8688 -0.410835,2.80636 0.02191,0.16305 0.07937,0.31931 0.119063,0.47897 0.568801,1.32513 1.871797,1.88723 3.126001,2.39836 2.088163,0.77871 4.14749,1.62548 6.164051,2.57419 1.511514,0.81929 3.097194,1.61915 4.374512,2.78875 0.361696,0.43143 0.833888,0.92769 0.936686,1.51188 0.04985,0.28332 -0.03016,0.5395 -0.08466,0.81315 -0.588687,1.42325 -1.966312,2.3486 -3.211192,3.16333 0.882824,-0.52547 1.794118,-1.00582 2.648474,-1.57642 0.292176,-0.19514 -0.633497,0.30441 -0.955247,0.44557 -1.465426,0.6429 -2.9851,1.13849 -4.519612,1.58454 -1.61812,0.48903 -3.313962,0.76373 -4.86456,1.45463 -1.22895,1.26722 -3.327019,1.70564 -4.743302,2.86837 0,0 3.885512,-1.54358 3.885512,-1.54358 v 0 c 1.230503,-0.82385 3.323021,-2.22345 -2.381192,1.26729 1.506916,-0.84657 3.269493,-1.07142 4.901602,-1.58324 3.532143,-0.96386 6.774384,-2.31734 9.835835,-4.41099 1.278189,-0.90272 2.702523,-1.91577 3.131865,-3.50218 0.04062,-0.41311 0.09343,-0.59625 -0.0053,-1.00871 -0.153199,-0.64002 -0.651742,-1.1763 -1.059534,-1.66035 -1.319432,-1.19713 -2.958883,-1.98348 -4.502155,-2.8493 -2.002984,-0.97634 -4.080243,-1.78209 -6.14534,-2.6161 -1.116311,-0.45366 -2.36238,-0.89436 -2.871319,-2.08835 -0.204232,-1.02562 0.06218,-2.07039 0.369657,-3.05172 0.572138,-1.43029 1.354551,-2.74856 2.563651,-3.73725 1.010375,-0.81066 2.067963,-1.47487 3.18262,-2.13308 0.337087,-0.19906 1.351511,-0.79049 1.008499,-0.60182 -0.786003,0.43232 -1.558557,0.88866 -2.337834,1.33299 2.397651,-1.24385 4.818528,-2.43054 7.302243,-3.49402 0,0 3.240252,-2.61092 3.240252,-2.61092 z" />
    <path
       style="fill:#ffcc00;stroke-width:0.264583"
       id="path48"
       d="m 59.154393,197.95573 c -2.060128,-1.38584 -4.32448,-2.39018 -6.652864,-3.22511 -1.656495,-0.44701 -3.40039,-1.08071 -5.147217,-0.84465 -0.214958,0.0291 -0.423825,0.0926 -0.635738,0.1389 -1.351206,0.76568 -2.747679,1.45649 -4.053615,2.29706 -0.173506,0.11168 -0.233863,0.34121 -0.329412,0.5241 -0.48574,0.92974 -0.456102,2.09588 -0.518657,3.11651 -0.06966,1.66023 -0.04967,3.32319 -0.04469,4.9846 0.01963,1.1581 0.01479,2.31007 -0.07754,3.4644 -0.109894,1.25377 -0.138731,2.51361 -0.176011,3.7713 -0.0075,0.39956 0.05015,0.88085 -0.339902,1.1344 -0.110731,0.072 -0.476359,0.2228 -0.367528,0.14799 2.948059,-2.02671 4.070488,-1.9507 1.983978,-1.81814 -2.047703,-0.0187 -4.057803,-0.42954 -6.069126,-0.76589 -1.384149,-0.27251 -2.787734,-0.44851 -4.14478,-0.84132 -0.93573,-0.28529 -1.850451,-0.63191 -2.775492,-0.9483 -0.115208,-0.0413 -0.230415,-0.0826 -0.345623,-0.12393 0,0 -3.45638,2.32936 -3.45638,2.32936 v 0 c 0.119334,0.0451 0.238668,0.0902 0.358001,0.13534 0.942499,0.2891 1.859016,0.65758 2.804269,0.93969 1.376148,0.42788 2.802736,0.59549 4.216561,0.85738 2.03082,0.31709 4.049334,0.73832 6.108647,0.83169 2.449449,0.0226 0.928214,0.14586 5.195864,-2.11614 0.573272,-0.30385 0.517112,-1.10207 0.524353,-1.6328 0.02175,-1.25202 0.06535,-2.50383 0.18646,-3.7508 0.09121,-1.16135 0.07116,-2.32314 0.04298,-3.48725 -0.02154,-1.64787 -0.05066,-3.29709 0.03538,-4.9438 0.06495,-0.8119 0.08965,-1.66894 0.394266,-2.43809 0.06705,-0.16931 0.159054,-0.3304 0.269388,-0.47527 0.110548,-0.14515 0.551021,-0.46722 0.38722,-0.38686 -1.05511,0.51763 -2.055667,1.13975 -3.083499,1.70962 0.549627,-0.18016 0.742307,-0.27981 1.346364,-0.31394 1.491221,-0.0842 2.959939,0.388 4.38141,0.75673 2.288916,0.78426 4.541086,1.73092 6.47147,3.22156 0,0 3.511458,-2.24834 3.511458,-2.24834 z" />
    <path
       style="fill:#ffcc00;stroke-width:0.264583"
       id="path50"
       d="m 51.770599,182.2915 c -1.577382,0.0254 -3.155063,0.0253 -4.732617,0.0275 -1.678898,-10e-4 -3.357782,-0.006 -5.036677,-0.008 -1.475714,0.0244 -2.952481,-0.0354 -4.427498,0.0189 -1.289704,0.0537 -2.484708,0.54 -3.703233,0.90896 -1.243224,0.35171 -2.436392,0.85207 -3.647408,1.29777 -1.268714,0.45337 -2.545977,0.87745 -3.779963,1.42037 -1.39004,0.66992 -2.820031,1.24702 -4.261099,1.7959 -2.787516,1.03802 -5.276982,2.61295 -7.839628,4.10838 -0.275842,0.22061 -0.959175,0.74964 -1.196793,1.0106 -0.892484,0.98017 -1.501781,2.20692 -2.077098,3.38566 -0.917524,1.97733 -1.2876904,4.1358 -1.7625289,6.2461 -0.3227192,1.3202 -0.6042842,2.47025 -1.8035473,3.25389 -0.2258841,0.14761 -0.9371174,0.53154 -0.7175945,0.37463 0.8508669,-0.60816 1.7442505,-1.15453 2.6163759,-1.7318 -2.7727452,0.47579 -5.5245012,-0.37393 -8.1771674,-1.10463 -1.15324741,-0.31864 -2.2954813,-0.66689 -3.4228301,-1.067 0,0 -3.4218599,2.31863 -3.4218599,2.31863 v 0 c 1.1671744,0.38056 2.3456074,0.71457 3.5345575,1.02144 1.44936672,0.38985 1.42309532,0.39412 2.92886503,0.75058 1.74952097,0.41417 3.50933727,0.82418 5.31851627,0.56866 0.5292312,-0.26499 4.6562994,-1.85048 5.7432404,-3.30258 0.619249,-0.82728 0.78948,-1.86644 1.047316,-2.83759 0.483439,-2.0895 0.883266,-4.22379 1.827638,-6.16821 0.847209,-1.63451 1.784617,-3.21695 3.398992,-4.20421 -6.355907,3.61094 -0.81589,0.4079 0.77124,-0.0899 1.438078,-0.54504 2.876552,-1.09196 4.262354,-1.76293 1.219425,-0.57627 2.49405,-1.00591 3.765336,-1.45215 1.210736,-0.42552 2.390164,-0.93407 3.618304,-1.30814 1.215808,-0.3373 2.377789,-0.87715 3.648686,-0.9862 1.473367,-0.10408 2.954393,-0.0257 4.430387,-0.0484 1.686192,-0.002 3.372371,-0.007 5.058566,-0.008 1.552273,0.002 3.104684,0.002 4.656775,0.0275 0,0 3.380393,-2.456 3.380393,-2.456 z" />
    <path
       style="fill:#ffcc00;stroke-width:0.264583"
       id="path52"
       d="m 39.726642,169.54296 c -0.973751,-2.43262 -2.353061,-4.65556 -3.814212,-6.81834 -1.746488,-2.46031 -3.564795,-4.86911 -5.574337,-7.12106 -0.998635,-1.14491 -2.142128,-2.0569 -3.547324,-2.63149 -1.472478,-0.5054 -3.046624,-0.46672 -4.583008,-0.49705 -1.220881,0.0172 -2.795655,-0.11701 -3.909054,0.49586 -1.389358,0.76477 -2.742509,1.59356 -4.113764,2.39033 -0.170415,0.18225 -0.367292,0.34296 -0.511247,0.54676 -0.913221,1.29285 -1.097293,2.97597 -1.28872,4.49644 -0.161876,1.32943 -0.181155,2.66745 -0.178463,4.00452 0.08181,1.03873 0.200067,2.07286 0.252726,3.11382 0.01192,1.57809 -0.622265,2.44215 -1.850342,3.36131 -1.9639997,1.11928 1.199745,-0.67957 2.429608,-1.45018 0.143566,-0.09 -0.311636,0.1336 -0.471263,0.19037 -0.407647,0.14498 -0.805602,0.21244 -1.23418,0.24679 -0.626449,0.0107 -0.960142,-0.38907 -1.319733,-0.83823 -0.3201851,-0.69047 -0.8427705,-1.22826 -1.3429118,-1.78667 -0.4363863,-0.47027 -0.8905074,-0.90924 -1.293766,-1.40863 -0.3503612,-0.43764 -0.5639345,-0.95783 -0.8835067,-1.4155 -0.420131,-0.60704 -0.8438224,-1.20589 -1.3456591,-1.74896 -0.4960155,-0.51861 -0.9036916,-1.11047 -1.3662472,-1.65698 -0.070861,-0.0662 -0.1417215,-0.1323 -0.2125822,-0.19844 0,0 -3.5519935,2.21124 -3.5519935,2.21124 v 0 c 0.06194407,0.0491 0.12388813,0.0983 0.1858322,0.14744 0.48413764,0.53443 0.891134,1.13412 1.3820355,1.66368 0.4949987,0.52297 0.9118679,1.10226 1.3090616,1.70206 0.3266104,0.46604 0.5338278,1.00336 0.8956751,1.44662 0.4175366,0.49615 0.8582504,0.95602 1.3152311,1.41619 0.4958011,0.55173 1.018182,1.0721 1.3194384,1.76614 0.4058864,0.53774 0.8370901,1.05449 1.5458458,1.15351 2.4013798,0.0864 4.5739418,-1.77099 6.4578898,-2.98099 1.202429,-1.1021 1.754861,-2.05592 1.713834,-3.72141 -0.05639,-1.03426 -0.175538,-2.06073 -0.24631,-3.09359 -0.0026,-1.31157 0.0065,-2.62585 0.152709,-3.931 0.233513,-1.72786 0.514221,-3.59623 1.979875,-4.73246 -5.874943,3.27379 -2.976453,1.43303 -1.60185,1.14143 0.806486,-0.17108 1.65115,-0.11969 2.467839,-0.13201 1.493384,0.0195 3.017772,-0.005 4.467742,0.40183 1.414662,0.50682 2.475624,1.337 3.495057,2.43938 2.054095,2.19221 3.937865,4.53113 5.632765,7.01391 1.405818,2.15476 2.800903,4.35424 3.579352,6.82796 0,0 3.657957,-2.0146 3.657957,-2.0146 z" />
    <path
       style="fill:#ffcc00;stroke-width:0.264583"
       id="path54"
       d="m 35.35445,125.37817 c -0.0436,-1.72485 -0.04527,-3.45014 -0.04704,-5.1754 -0.02625,-1.39526 0.134993,-2.97474 -0.614384,-4.23415 -0.166208,-0.27933 -0.394327,-0.51683 -0.591491,-0.77525 -3.9023,-2.2041 -8.384288,-2.92926 -12.756616,-3.59553 -2.404278,-0.32382 -4.919187,-0.66495 -7.245552,0.24558 -0.36542,0.14302 -0.70559,0.34365 -1.058385,0.51547 -2.44002,1.32667 -4.7893989,2.36547 -6.1343072,4.78827 -0.2477238,0.44626 -0.414755,0.90232 -0.6039895,1.37353 0.9394185,0.24124 -0.9263697,0.84154 -0.6699009,0.66093 1.0233718,-0.72071 2.2325322,-1.18689 3.1623336,-2.02485 0.1632336,-0.14711 -0.4036058,-0.17745 -0.5906051,-0.29286 -0.4419676,-0.27275 -0.8548909,-0.64956 -1.2482163,-0.98377 -0.4800055,-0.48474 -1.2783161,-1.24256 -1.4297191,-1.94802 -0.092515,-0.43107 0.00884,-1.03555 0.051294,-1.45059 0.2509287,-2.26083 0.5179997,-4.53131 1.1423227,-6.72346 0.2201264,-0.68987 0.4570505,-1.37402 0.6817293,-2.06238 0,0 -3.742405,1.76479 -3.742405,1.76479 v 0 c -0.2085927,0.6835 -0.4256907,1.36446 -0.6180121,2.05284 -0.5548673,2.23227 -0.8354936,4.52041 -1.1348867,6.79837 -0.043851,0.58549 -0.1300346,1.08043 0.012589,1.66176 0.1848398,0.7534 1.0326345,1.55395 1.5534588,2.07822 0.1851165,0.16028 1.7689327,1.52959 1.9203117,1.48455 1.4439207,-0.42963 2.7723144,-1.18374 4.1234661,-1.84999 0.1326952,-0.0654 0.2216348,-0.20249 0.2970898,-0.32975 0.1030626,-0.17383 0.1538711,-0.37373 0.2308069,-0.5606 0.301045,-0.70328 0.608383,-1.36884 1.084251,-1.97687 1.017583,-1.30021 3.426548,-2.60708 -1.2480395,0.0766 0.8964635,-0.49865 1.1798765,-0.72619 2.1936195,-0.99856 1.990991,-0.53492 4.046071,-0.25225 6.057022,-0.0331 4.273838,0.5663 8.664114,1.23666 12.455419,3.41885 0.175548,0.23087 0.381061,0.44176 0.526645,0.69261 0.700587,1.20714 0.507497,2.74836 0.569568,4.07411 -0.0019,1.74125 -0.0038,3.4825 -0.04704,5.22334 0,0 3.718653,-1.89475 3.718653,-1.89475 z" />
    <path
       style="fill:#ffcc00;stroke-width:0.264583"
       id="path56"
       d="m 4.9468539,135.72111 c 0.034088,0.26482 0.037943,0.53531 0.1022631,0.79444 0.6312225,2.5431 1.8994879,5.16681 3.3655132,7.31966 0.4408516,0.64739 0.9418063,1.25174 1.4127093,1.87761 1.2265855,1.31004 2.3901345,2.89068 4.1115345,3.60654 0.985781,0.40994 2.263199,0.54482 3.318718,0.51316 0.552324,-0.0166 1.098058,-0.12496 1.647087,-0.18743 1.995498,-0.30838 3.808585,-1.19839 5.672722,-1.91501 1.527501,-0.57141 2.263575,-0.19775 3.787498,0.47891 0.678196,0.30113 1.338906,0.64021 2.00836,0.96031 2.62359,1.41826 1.352981,0.70246 3.815037,2.14171 0,0 3.287144,-2.13439 3.287144,-2.13439 v 0 c -2.495854,-1.42757 -1.215813,-0.70912 -3.841628,-2.15268 -0.650314,-0.33965 -1.297509,-0.68534 -1.950942,-1.01894 -1.46031,-0.74556 -2.26531,-1.36176 -3.847201,-0.82415 -1.914388,0.68839 -3.710981,1.71782 -5.737607,2.07974 -1.642153,0.24545 -3.186061,0.48627 -4.810832,-0.11488 -1.714039,-0.63416 -2.898011,-2.15712 -4.118997,-3.41793 -0.467909,-0.61224 -0.971735,-1.19862 -1.403725,-1.83672 -1.466369,-2.16597 -2.6218779,-4.68565 -3.0753597,-7.27632 -0.046206,-0.26397 -0.038684,-0.53457 -0.058026,-0.80185 0,0 -3.6842679,1.90822 -3.6842684,1.90822 z" />
    <path
       style="fill:#ffcc00;stroke-width:0.258645"
       id="path58"
       d="m 19.288166,72.140115 c -1.027479,3.085587 -1.637259,6.300125 -2.263512,9.490631 -0.348899,2.124325 -0.711537,4.250232 -0.959927,6.390256 -0.117433,1.011764 -0.243004,1.867043 -0.03704,2.875955 0.08465,0.414633 0.27756,0.798133 0.41634,1.197201 0.21674,0.333416 0.379221,0.711376 0.65022,1.000253 1.136615,1.211589 2.90338,1.549142 4.431286,1.852432 1.456203,0.289052 2.291892,0.359479 3.752994,0.531923 1.666005,0.283401 3.403659,0.0775 5.053562,0.477899 0.602595,0.146239 0.756611,0.258018 1.286071,0.524181 0.172552,0.157543 0.375682,0.285827 0.517651,0.472624 0.483843,0.636617 0.952848,1.750387 1.229225,2.442408 0.751909,1.882702 1.289264,3.826662 1.818825,5.783132 0.848263,3.16666 1.202186,6.42963 1.37643,9.69808 0.07844,1.93032 0.05862,3.8627 0.0247,5.79377 0,0 3.555418,-1.85125 3.555418,-1.85125 v 0 c -0.01159,-1.92353 -0.03575,-3.84744 -0.126253,-5.76908 -0.19208,-3.28116 -0.64572,-6.54914 -1.507369,-9.7213 -0.53162,-1.97687 -1.077254,-3.942506 -1.785937,-5.862739 -0.261341,-0.708123 -0.743851,-1.97621 -1.20416,-2.646686 -0.15387,-0.224126 -0.37968,-0.386177 -0.569521,-0.579268 -0.550072,-0.289727 -0.759613,-0.436853 -1.385561,-0.59972 -1.684806,-0.438377 -3.466806,-0.150839 -5.17342,-0.421628 -1.860735,-0.197285 -3.755365,-0.367363 -5.55905,-0.912641 -0.809076,-0.244595 -1.735663,-0.607761 -2.355982,-1.24129 -0.253929,-0.259336 -0.406306,-0.605191 -0.60946,-0.907787 -0.127233,-0.365658 -0.305211,-0.716795 -0.381697,-1.096972 -0.18274,-0.908303 -0.07694,-1.864428 0.0096,-2.770994 0.202332,-2.120652 0.525709,-4.229073 0.894224,-6.325209 0.655141,-3.245757 1.362961,-6.494041 2.545751,-9.589089 0,0 -3.64335,1.764908 -3.64335,1.764908 z" />
    <path
       style="fill:#ffcc00;stroke-width:0.264583"
       id="path60"
       d="m 36.054101,65.70397 c -0.459703,2.376123 -1.08254,4.716103 -1.741419,7.043434 -0.270801,1.198845 -0.925084,2.822466 -0.774046,4.061621 0.03263,0.267742 0.130839,0.523343 0.196257,0.785016 0.161184,0.291878 0.288936,0.604898 0.483547,0.875639 0.236678,0.329263 0.522873,0.620619 0.802839,0.913963 1.252188,1.312032 2.590863,2.112206 4.139991,3.018107 1.478235,0.837777 3.09101,1.492385 4.38577,2.620756 0.644557,0.561727 1.00956,1.052989 1.555435,1.707365 0.256794,0.364886 0.5411,0.711885 0.77038,1.094657 1.324594,2.211359 2.198499,4.721874 2.942256,7.177834 0.468035,2.059109 0.421156,4.180784 0.382556,6.278028 -0.03456,1.66702 -0.803,3.16127 -1.453711,4.65588 -0.195368,0.59957 -0.531937,1.13138 -0.821563,1.68656 0,0 3.776739,-1.70335 3.776739,-1.70335 v 0 c 0.281729,-0.55466 0.568873,-1.10819 0.776648,-1.69639 0.661244,-1.5354 1.387625,-3.0901 1.375674,-4.799403 0.007,-2.129605 0.0132,-4.287676 -0.486323,-6.370497 -0.45539,-1.358482 -0.955974,-2.690701 -1.515996,-4.010401 -0.313806,-0.739494 -1.103879,-2.548369 -1.505233,-3.259338 -0.224925,-0.398439 -0.511889,-0.758518 -0.767834,-1.137775 -0.573805,-0.69718 -0.926605,-1.18201 -1.60565,-1.783485 -1.302179,-1.153432 -2.92707,-1.81647 -4.430004,-2.652998 -1.724848,-1.001072 -3.613991,-2.086811 -4.77684,-3.77055 -0.16895,-0.244629 -0.271481,-0.529008 -0.40722,-0.793512 -0.04741,-0.232066 -0.122788,-0.460142 -0.142217,-0.696204 -0.102981,-1.251312 0.529376,-2.739104 0.773256,-3.95266 0.616609,-2.368579 1.192641,-4.747324 1.821172,-7.112855 0,0 -3.754464,1.820558 -3.754464,1.820558 z" />
    <g
       id="g65"
       style="fill:#ffcc00">
      <path
         d="m 65.083734,54.590592 c -1.572577,1.889789 -3.074045,3.835503 -4.527116,5.818233 -1.723525,2.460654 -2.976988,5.198128 -3.81381,8.074921 -0.335708,1.467157 -0.7327,3.01429 -0.397896,4.523447 0.05751,0.259222 0.162401,0.505608 0.243602,0.758409 0.473712,1.318837 1.304814,2.455474 1.976652,3.674232 1.113776,2.286145 1.702289,4.775176 2.24341,7.245995 0.473151,2.465507 0.631105,4.975037 0.690181,7.480213 0.02418,1.342678 0.0077,2.68551 4.2e-5,4.028244 -0.02604,0.199612 -0.02627,0.404326 -0.07812,0.59884 -0.112297,0.421348 -0.534257,1.284978 -0.694568,1.630539 -0.471948,1.017307 -0.919975,2.034935 -1.33926,3.075215 -0.357503,0.93056 -0.782717,1.8307 -1.222883,2.72403 0,0 3.724256,-1.69244 3.724256,-1.69244 v 0 c 0.419373,-0.89966 0.829114,-1.80374 1.182473,-2.732014 0.453403,-1.094716 0.404299,-1.005401 0.895811,-2.076497 0.410575,-0.894723 0.943766,-1.791669 1.156832,-2.763277 0.04595,-0.209547 0.04124,-0.427064 0.06186,-0.640596 0.0046,-1.340739 0.0075,-2.682171 -0.04984,-4.021989 -0.12745,-2.516434 -0.321879,-5.032666 -0.788583,-7.512664 -0.576151,-2.503432 -1.135448,-5.044345 -2.21743,-7.387296 -0.636228,-1.209453 -1.455015,-2.320266 -1.93484,-3.608065 -0.07019,-0.230158 -0.162176,-0.454766 -0.210566,-0.690473 -0.297616,-1.449654 0.108151,-2.939737 0.415396,-4.347717 0.834109,-2.835529 2.080837,-5.526696 3.825557,-7.92516 1.492467,-2.00724 3.026053,-3.98603 4.696111,-5.850057 0,0 -3.837268,1.615927 -3.837268,1.615927 z"
         id="path62"
         style="fill:#ffcc00;stroke-width:0.264583" />
    </g>
    <path
       style="fill:#ffffff;stroke-width:0.3841"
       id="path73"
       sodipodi:type="arc"
       sodipodi:cx="72.901154"
       sodipodi:cy="123.84753"
       sodipodi:rx="12.10328"
       sodipodi:ry="12.384752"
       sodipodi:start="0.017453293"
       sodipodi:end="0"
       sodipodi:open="true"
       sodipodi:arc-type="chord"
       d="m 85.00259,124.06367 a 12.10328,12.384752 0 0 1 -12.259863,12.16755 12.10328,12.384752 0 0 1 -11.944393,-12.49177 12.10328,12.384752 0 0 1 12.15563,-12.27656 12.10328,12.384752 0 0 1 12.05047,12.38464 z" />
    <path
       style="fill:#28220b;stroke-width:0.427685"
       id="path94"
       sodipodi:type="arc"
       sodipodi:cx="69.804955"
       sodipodi:cy="127.08443"
       sodipodi:rx="7.5997338"
       sodipodi:ry="7.1775265"
       sodipodi:start="0.017453293"
       sodipodi:end="0"
       sodipodi:open="true"
       sodipodi:arc-type="chord"
       d="m 77.403531,127.20969 a 7.5997338,7.1775265 0 0 1 -7.698054,7.05165 7.5997338,7.1775265 0 0 1 -7.499967,-7.23955 7.5997338,7.1775265 0 0 1 7.632605,-7.11482 7.5997338,7.1775265 0 0 1 7.566573,7.17746 z" />
    <path
       d="m 126.66039,124.06366 a 12.10328,12.384752 0 0 1 -12.25986,12.16754 12.10328,12.384752 0 0 1 -11.9444,-12.49176 12.10328,12.384752 0 0 1 12.15563,-12.27656 12.10328,12.384752 0 0 1 12.05047,12.38463 z"
       sodipodi:arc-type="chord"
       sodipodi:open="true"
       sodipodi:end="0"
       sodipodi:start="0.017453293"
       sodipodi:ry="12.384752"
       sodipodi:rx="12.10328"
       sodipodi:cy="123.84751"
       sodipodi:cx="114.55895"
       sodipodi:type="arc"
       id="path73-5"
       style="fill:#ffffff;stroke-width:0.384101" />
    <path
       d="m 119.34281,126.50603 a 7.5997338,7.1775265 0 0 1 -7.69806,7.05164 7.5997338,7.1775265 0 0 1 -7.49996,-7.23954 7.5997338,7.1775265 0 0 1 7.6326,-7.11483 7.5997338,7.1775265 0 0 1 7.56658,7.17746 z"
       sodipodi:arc-type="chord"
       sodipodi:open="true"
       sodipodi:end="0"
       sodipodi:start="0.017453293"
       sodipodi:ry="7.1775265"
       sodipodi:rx="7.5997338"
       sodipodi:cy="126.38076"
       sodipodi:cx="111.74423"
       sodipodi:type="arc"
       id="path94-7"
       style="fill:#28220b;stroke-width:0.427686" />
    <path
       style="fill:#28220b;stroke-width:0.264583"
       id="path976"
       d="m 60.064432,171.29293 c 0.11335,1.10619 0.216321,2.22604 0.504868,3.30203 0.430723,1.10126 0.867552,2.20207 1.328131,3.29165 0.339447,0.96058 0.87652,1.82373 1.377368,2.70405 0.440502,0.77376 0.966396,1.49645 1.520576,2.19194 0.499915,0.66675 1.059628,1.28156 1.599052,1.9152 0.563597,0.65544 1.284621,1.14516 1.99498,1.62654 0.895728,0.64101 1.919546,1.06702 2.910403,1.53548 1.770803,0.67471 3.620074,1.13345 5.480682,1.47991 2.087769,0.41159 4.213035,0.55839 6.334287,0.66717 2.069208,0.14776 4.122822,-0.13539 6.15008,-0.51984 1.722951,-0.35998 3.42078,-0.79223 5.078294,-1.38404 1.356802,-0.59281 2.698914,-1.21537 4.06392,-1.7897 1.516386,-0.61649 3.054867,-1.17536 4.577647,-1.77646 1.84892,-0.60726 3.58105,-1.46568 5.30636,-2.35236 2.63824,-1.37443 5.2296,-2.86657 7.65476,-4.59154 0.96481,-0.70351 1.98088,-1.32478 2.9899,-1.96114 1.11232,-0.68747 2.13264,-1.48937 3.1273,-2.33288 0.7973,-0.59578 1.63371,-1.11789 2.35302,-1.81007 0,0 -3.85345,1.57698 -3.85345,1.57698 v 0 c -0.73816,0.6459 -1.58264,1.14791 -2.33051,1.78241 -0.99759,0.83978 -2.05339,1.59873 -3.16173,2.2872 -0.99458,0.64317 -2.00514,1.26013 -2.95766,1.96629 -1.32232,0.90137 0.17582,-0.11393 -1.214,0.80869 -0.21536,0.14297 -0.87134,0.55452 -0.64255,0.43419 5.65063,-2.97185 2.42022,-1.41485 1.2177,-0.71092 -1.7232,0.87796 -3.42262,1.80129 -5.27883,2.38109 -1.51356,0.59719 -3.03945,1.15647 -4.55543,1.74564 -1.36132,0.58289 -2.727157,1.15346 -4.055767,1.81065 -0.26112,0.0969 -1.244878,0.46437 -1.490911,0.54515 -1.172933,0.38509 -2.395697,0.58615 -3.583575,0.91702 -2.003121,0.39912 -4.029409,0.72433 -6.080564,0.58865 -2.113598,-0.0825 -4.231347,-0.20747 -6.31145,-0.61636 -1.827308,-0.32142 -3.632531,-0.77828 -5.37572,-1.41891 -0.965195,-0.46728 -1.964499,-0.89412 -2.851795,-1.5006 -0.681586,-0.45881 -1.37281,-0.92525 -1.931779,-1.53348 -0.539028,-0.63031 -1.092443,-1.24515 -1.585777,-1.9134 -0.558443,-0.66211 -1.067348,-1.37115 -1.502447,-2.12052 -0.49099,-0.86736 -1.013582,-1.71902 -1.364158,-2.65719 -0.457493,-1.06922 -0.885454,-2.1533 -1.292751,-3.24222 -0.267957,-1.04881 -0.391422,-2.14034 -0.429821,-3.22105 0,0 -3.718653,1.89475 -3.718653,1.89475 z" />
    <path
       style="fill:#aaeeff;stroke-width:0.342712"
       id="path984"
       sodipodi:type="arc"
       sodipodi:cx="75.997337"
       sodipodi:cy="201.11148"
       sodipodi:rx="42.502213"
       sodipodi:ry="35.606163"
       sodipodi:start="0.017453293"
       sodipodi:end="0"
       sodipodi:open="true"
       sodipodi:arc-type="chord"
       d="m 118.49308,201.73289 a 42.502213,35.606163 0 0 1 -43.052079,34.9817 42.502213,35.606163 0 0 1 -41.944258,-35.91383 42.502213,35.606163 0 0 1 42.686045,-35.2951 42.502213,35.606163 0 0 1 42.316762,35.60582 z" />
    <path
       style="fill:#aaeeff;stroke-width:0.288086"
       id="path986"
       sodipodi:type="arc"
       sodipodi:cx="119.13483"
       sodipodi:cy="212.36185"
       sodipodi:rx="39.135468"
       sodipodi:ry="26.338276"
       sodipodi:start="0.017453293"
       sodipodi:end="0"
       sodipodi:open="true"
       sodipodi:arc-type="chord"
       d="m 158.26433,212.82151 a 39.135468,26.338276 0 0 1 -39.64177,25.87636 39.135468,26.338276 0 0 1 -38.621711,-26.56586 39.135468,26.338276 0 0 1 39.304741,-26.10819 39.135468,26.338276 0 0 1 38.9647,26.33803 z" />
    <path
       style="fill:#aaeeff;stroke-width:0.379029"
       id="path988"
       sodipodi:type="arc"
       sodipodi:cx="161.92677"
       sodipodi:cy="198.25449"
       sodipodi:rx="34.983067"
       sodipodi:ry="32.46767"
       sodipodi:start="0.017453293"
       sodipodi:end="0"
       sodipodi:open="true"
       sodipodi:arc-type="chord"
       d="m 196.90451,198.82113 a 34.983067,32.46767 0 0 1 -35.43565,31.89824 34.983067,32.46767 0 0 1 -34.52382,-32.74821 34.983067,32.46767 0 0 1 35.13438,-32.18404 34.983067,32.46767 0 0 1 34.83042,32.46737 z" />
    <path
       style="fill:#93aca7;stroke-width:0.264583"
       id="path990"
       sodipodi:type="arc"
       sodipodi:cx="53.901817"
       sodipodi:cy="235.02881"
       sodipodi:rx="47.146496"
       sodipodi:ry="36.872784"
       sodipodi:start="0.017453293"
       sodipodi:end="0"
       sodipodi:open="true"
       sodipodi:arc-type="chord"
       d="M 101.04113,235.67233 A 47.146496,36.872784 0 0 1 53.284689,271.89843 47.146496,36.872784 0 0 1 6.7571167,234.70704 47.146496,36.872784 0 0 1 54.107532,198.15638 47.146496,36.872784 0 0 1 101.04831,235.02881 Z" />
    <path
       style="fill:#93aca7;stroke-width:0.273718"
       id="path994"
       sodipodi:type="arc"
       sodipodi:cx="106.25555"
       sodipodi:cy="250.93195"
       sodipodi:rx="40.391182"
       sodipodi:ry="26.880539"
       sodipodi:start="0.017453293"
       sodipodi:end="0"
       sodipodi:open="true"
       sodipodi:arc-type="chord"
       d="m 146.64058,251.40108 a 40.391182,26.880539 0 0 1 -40.91374,26.4091 40.391182,26.880539 0 0 1 -39.860937,-27.11281 40.391182,26.880539 0 0 1 40.565887,-26.64571 40.391182,26.880539 0 0 1 40.21494,26.88029 z" />
    <path
       style="fill:#93aca7;stroke-width:0.275266"
       id="path998"
       sodipodi:type="arc"
       sodipodi:cx="154.84184"
       sodipodi:cy="231.98506"
       sodipodi:rx="39.936535"
       sodipodi:ry="32.598263"
       sodipodi:start="0.017453293"
       sodipodi:end="0"
       sodipodi:open="true"
       sodipodi:arc-type="chord"
       d="m 194.7723,232.55398 a 39.936535,32.598263 0 0 1 -40.45321,32.02655 39.936535,32.598263 0 0 1 -39.41226,-32.87994 39.936535,32.598263 0 0 1 40.10927,-32.31348 39.936535,32.598263 0 0 1 39.76228,32.59795 z" />
    <path
       transform="scale(1,-1)"
       d="m 81.765515,-180.48864 a 13.088431,12.384751 0 0 1 -13.25776,12.16754 13.088431,12.384751 0 0 1 -12.916611,-12.49176 13.088431,12.384751 0 0 1 13.145042,-12.27656 13.088431,12.384751 0 0 1 13.031323,12.38463 z"
       sodipodi:arc-type="chord"
       sodipodi:open="true"
       sodipodi:end="0"
       sodipodi:start="0.017453293"
       sodipodi:ry="12.384751"
       sodipodi:rx="13.088431"
       sodipodi:cy="-180.70479"
       sodipodi:cx="68.679077"
       sodipodi:type="arc"
       id="path201"
       style="fill:#ffffff;stroke-width:0.264583" />
    <path
       transform="scale(1,-1)"
       d="m 102.59442,-181.89601 a 13.088431,12.384751 0 0 1 -13.257762,12.16755 13.088431,12.384751 0 0 1 -12.916611,-12.49177 13.088431,12.384751 0 0 1 13.145042,-12.27656 13.088431,12.384751 0 0 1 13.031321,12.38464 z"
       sodipodi:arc-type="chord"
       sodipodi:open="true"
       sodipodi:end="0"
       sodipodi:start="0.017453293"
       sodipodi:ry="12.384751"
       sodipodi:rx="13.088431"
       sodipodi:cy="-182.11215"
       sodipodi:cx="89.50798"
       sodipodi:type="arc"
       id="path201-0"
       style="fill:#ffffff;stroke-width:0.264583" />
    <path
       transform="scale(1,-1)"
       d="m 158.04432,-217.07995 a 13.088431,12.384751 0 0 1 -13.25776,12.16754 13.088431,12.384751 0 0 1 -12.91661,-12.49176 13.088431,12.384751 0 0 1 13.14504,-12.27656 13.088431,12.384751 0 0 1 13.03133,12.38463 z"
       sodipodi:arc-type="chord"
       sodipodi:open="true"
       sodipodi:end="0"
       sodipodi:start="0.017453293"
       sodipodi:ry="12.384751"
       sodipodi:rx="13.088431"
       sodipodi:cy="-217.2961"
       sodipodi:cx="144.95789"
       sodipodi:type="arc"
       id="path201-9"
       style="fill:#ffffff;stroke-width:0.264583" />
    <path
       transform="scale(1,-1)"
       d="m 178.02882,-219.05026 a 13.088431,12.384751 0 0 1 -13.25776,12.16755 13.088431,12.384751 0 0 1 -12.91661,-12.49177 13.088431,12.384751 0 0 1 13.14504,-12.27656 13.088431,12.384751 0 0 1 13.03132,12.38464 z"
       sodipodi:arc-type="chord"
       sodipodi:open="true"
       sodipodi:end="0"
       sodipodi:start="0.017453293"
       sodipodi:ry="12.384751"
       sodipodi:rx="13.088431"
       sodipodi:cy="-219.2664"
       sodipodi:cx="164.94238"
       sodipodi:type="arc"
       id="path201-1"
       style="fill:#ffffff;stroke-width:0.264583" />
    <path
       style="fill:#28220b;stroke-width:0.264583"
       id="path218-9"
       sodipodi:type="arc"
       sodipodi:cx="66.093376"
       sodipodi:cy="187.7493"
       sodipodi:rx="5.2072253"
       sodipodi:ry="6.3331118"
       sodipodi:start="0.017453293"
       sodipodi:end="0"
       sodipodi:open="true"
       sodipodi:arc-type="chord"
       d="m 71.299808,187.85983 a 5.2072253,6.3331118 0 0 1 -5.274592,6.22204 5.2072253,6.3331118 0 0 1 -5.138867,-6.38784 5.2072253,6.3331118 0 0 1 5.229748,-6.27778 5.2072253,6.3331118 0 0 1 5.184504,6.33305 z" />
    <path
       style="fill:#28220b;stroke-width:0.264583"
       id="path218-9-0"
       sodipodi:type="arc"
       sodipodi:cx="88.100624"
       sodipodi:cy="189.4304"
       sodipodi:rx="5.2072253"
       sodipodi:ry="6.3331118"
       sodipodi:start="0.017453293"
       sodipodi:end="0"
       sodipodi:open="true"
       sodipodi:arc-type="chord"
       d="m 93.307056,189.54093 a 5.2072253,6.3331118 0 0 1 -5.274592,6.22204 5.2072253,6.3331118 0 0 1 -5.138867,-6.38783 5.2072253,6.3331118 0 0 1 5.229748,-6.27779 5.2072253,6.3331118 0 0 1 5.184504,6.33305 z" />
    <path
       style="fill:#28220b;stroke-width:0.264583"
       id="path218-9-3"
       sodipodi:type="arc"
       sodipodi:cx="146.08377"
       sodipodi:cy="223.48848"
       sodipodi:rx="5.2072253"
       sodipodi:ry="6.3331118"
       sodipodi:start="0.017453293"
       sodipodi:end="0"
       sodipodi:open="true"
       sodipodi:arc-type="chord"
       d="m 151.2902,223.59901 a 5.2072253,6.3331118 0 0 1 -5.27459,6.22204 5.2072253,6.3331118 0 0 1 -5.13887,-6.38784 5.2072253,6.3331118 0 0 1 5.22975,-6.27778 5.2072253,6.3331118 0 0 1 5.18451,6.33305 z" />
    <path
       style="fill:#28220b;stroke-width:0.264583"
       id="path218-9-8"
       sodipodi:type="arc"
       sodipodi:cx="163.81648"
       sodipodi:cy="224.61436"
       sodipodi:rx="5.2072253"
       sodipodi:ry="6.3331118"
       sodipodi:start="0.017453293"
       sodipodi:end="0"
       sodipodi:open="true"
       sodipodi:arc-type="chord"
       d="m 169.02291,224.72489 a 5.2072253,6.3331118 0 0 1 -5.27459,6.22204 5.2072253,6.3331118 0 0 1 -5.13886,-6.38783 5.2072253,6.3331118 0 0 1 5.22974,-6.27779 5.2072253,6.3331118 0 0 1 5.18451,6.33305 z" />
  </g>
</svg>
