<?xml version="1.0" encoding="UTF-8" standalone="no"?>
<svg
   xmlns:dc="http://purl.org/dc/elements/1.1/"
   xmlns:cc="http://creativecommons.org/ns#"
   xmlns:rdf="http://www.w3.org/1999/02/22-rdf-syntax-ns#"
   xmlns:svg="http://www.w3.org/2000/svg"
   xmlns="http://www.w3.org/2000/svg"
   xmlns:sodipodi="http://sodipodi.sourceforge.net/DTD/sodipodi-0.dtd"
   xmlns:inkscape="http://www.inkscape.org/namespaces/inkscape"
   width="210mm"
   height="297mm"
   viewBox="0 0 210 297"
   version="1.1"
   id="svg16"
   inkscape:version="1.0 (4035a4fb49, 2020-05-01)"
   sodipodi:docname="03n.svg">
  <defs
     id="defs10" />
  <sodipodi:namedview
     id="base"
     pagecolor="#ffffff"
     bordercolor="#666666"
     borderopacity="1.0"
     inkscape:pageopacity="0.0"
     inkscape:pageshadow="2"
     inkscape:zoom="0.94"
     inkscape:cx="400"
     inkscape:cy="555.21277"
     inkscape:document-units="mm"
     inkscape:current-layer="layer1"
     inkscape:document-rotation="0"
     showgrid="false"
     inkscape:window-width="1800"
     inkscape:window-height="1106"
     inkscape:window-x="-11"
     inkscape:window-y="-11"
     inkscape:window-maximized="1" />
  <metadata
     id="metadata13">
    <rdf:RDF>
      <cc:Work
         rdf:about="">
        <dc:format>image/svg+xml</dc:format>
        <dc:type
           rdf:resource="http://purl.org/dc/dcmitype/StillImage" />
        <dc:title></dc:title>
      </cc:Work>
    </rdf:RDF>
  </metadata>
  <g
     inkscape:label="Livello 1"
     inkscape:groupmode="layer"
     id="layer1">
    <path
       style="fill:#e3dedb;stroke-width:0.264583"
       id="path24"
       sodipodi:type="arc"
       sodipodi:cx="96.685509"
       sodipodi:cy="147.49113"
       sodipodi:rx="67.130981"
       sodipodi:ry="66.427307"
       sodipodi:start="0.017453293"
       sodipodi:end="0"
       sodipodi:open="true"
       sodipodi:arc-type="chord"
       d="m 163.80627,148.65045 a 67.130981,66.427307 0 0 1 -67.999479,65.2623 67.130981,66.427307 0 0 1 -66.249708,-67.0013 67.130981,66.427307 0 0 1 67.421339,-65.84699 67.130981,66.427307 0 0 1 66.838068,66.42667 z" />
    <path
       style="fill:#ffffff;stroke-width:0.3841"
       id="path73"
       sodipodi:type="arc"
       sodipodi:cx="72.901154"
       sodipodi:cy="123.84753"
       sodipodi:rx="12.10328"
       sodipodi:ry="12.384752"
       sodipodi:start="0.017453293"
       sodipodi:end="0"
       sodipodi:open="true"
       sodipodi:arc-type="chord"
       d="m 85.00259,124.06367 a 12.10328,12.384752 0 0 1 -12.259863,12.16755 12.10328,12.384752 0 0 1 -11.944393,-12.49177 12.10328,12.384752 0 0 1 12.15563,-12.27656 12.10328,12.384752 0 0 1 12.05047,12.38464 z" />
    <path
       style="fill:#28220b;stroke-width:0.427685"
       id="path94"
       sodipodi:type="arc"
       sodipodi:cx="69.804955"
       sodipodi:cy="127.08443"
       sodipodi:rx="7.5997338"
       sodipodi:ry="7.1775265"
       sodipodi:start="0.017453293"
       sodipodi:end="0"
       sodipodi:open="true"
       sodipodi:arc-type="chord"
       d="m 77.403531,127.20969 a 7.5997338,7.1775265 0 0 1 -7.698054,7.05165 7.5997338,7.1775265 0 0 1 -7.499967,-7.23955 7.5997338,7.1775265 0 0 1 7.632605,-7.11482 7.5997338,7.1775265 0 0 1 7.566573,7.17746 z" />
    <path
       d="m 126.66039,124.06366 a 12.10328,12.384752 0 0 1 -12.25986,12.16754 12.10328,12.384752 0 0 1 -11.9444,-12.49176 12.10328,12.384752 0 0 1 12.15563,-12.27656 12.10328,12.384752 0 0 1 12.05047,12.38463 z"
       sodipodi:arc-type="chord"
       sodipodi:open="true"
       sodipodi:end="0"
       sodipodi:start="0.017453293"
       sodipodi:ry="12.384752"
       sodipodi:rx="12.10328"
       sodipodi:cy="123.84751"
       sodipodi:cx="114.55895"
       sodipodi:type="arc"
       id="path73-5"
       style="fill:#ffffff;stroke-width:0.384101" />
    <path
       d="m 119.34281,126.50603 a 7.5997338,7.1775265 0 0 1 -7.69806,7.05164 7.5997338,7.1775265 0 0 1 -7.49996,-7.23954 7.5997338,7.1775265 0 0 1 7.6326,-7.11483 7.5997338,7.1775265 0 0 1 7.56658,7.17746 z"
       sodipodi:arc-type="chord"
       sodipodi:open="true"
       sodipodi:end="0"
       sodipodi:start="0.017453293"
       sodipodi:ry="7.1775265"
       sodipodi:rx="7.5997338"
       sodipodi:cy="126.38076"
       sodipodi:cx="111.74423"
       sodipodi:type="arc"
       id="path94-7"
       style="fill:#28220b;stroke-width:0.427686" />
    <path
       style="fill:#28220b;stroke-width:0.264583"
       id="path976"
       d="m 60.064432,171.29293 c 0.11335,1.10619 0.216321,2.22604 0.504868,3.30203 0.430723,1.10126 0.867552,2.20207 1.328131,3.29165 0.339447,0.96058 0.87652,1.82373 1.377368,2.70405 0.440502,0.77376 0.966396,1.49645 1.520576,2.19194 0.499915,0.66675 1.059628,1.28156 1.599052,1.9152 0.563597,0.65544 1.284621,1.14516 1.99498,1.62654 0.895728,0.64101 1.919546,1.06702 2.910403,1.53548 1.770803,0.67471 3.620074,1.13345 5.480682,1.47991 2.087769,0.41159 4.213035,0.55839 6.334287,0.66717 2.069208,0.14776 4.122822,-0.13539 6.15008,-0.51984 1.722951,-0.35998 3.42078,-0.79223 5.078294,-1.38404 1.356802,-0.59281 2.698914,-1.21537 4.06392,-1.7897 1.516386,-0.61649 3.054867,-1.17536 4.577647,-1.77646 1.84892,-0.60726 3.58105,-1.46568 5.30636,-2.35236 2.63824,-1.37443 5.2296,-2.86657 7.65476,-4.59154 0.96481,-0.70351 1.98088,-1.32478 2.9899,-1.96114 1.11232,-0.68747 2.13264,-1.48937 3.1273,-2.33288 0.7973,-0.59578 1.63371,-1.11789 2.35302,-1.81007 0,0 -3.85345,1.57698 -3.85345,1.57698 v 0 c -0.73816,0.6459 -1.58264,1.14791 -2.33051,1.78241 -0.99759,0.83978 -2.05339,1.59873 -3.16173,2.2872 -0.99458,0.64317 -2.00514,1.26013 -2.95766,1.96629 -1.32232,0.90137 0.17582,-0.11393 -1.214,0.80869 -0.21536,0.14297 -0.87134,0.55452 -0.64255,0.43419 5.65063,-2.97185 2.42022,-1.41485 1.2177,-0.71092 -1.7232,0.87796 -3.42262,1.80129 -5.27883,2.38109 -1.51356,0.59719 -3.03945,1.15647 -4.55543,1.74564 -1.36132,0.58289 -2.727157,1.15346 -4.055767,1.81065 -0.26112,0.0969 -1.244878,0.46437 -1.490911,0.54515 -1.172933,0.38509 -2.395697,0.58615 -3.583575,0.91702 -2.003121,0.39912 -4.029409,0.72433 -6.080564,0.58865 -2.113598,-0.0825 -4.231347,-0.20747 -6.31145,-0.61636 -1.827308,-0.32142 -3.632531,-0.77828 -5.37572,-1.41891 -0.965195,-0.46728 -1.964499,-0.89412 -2.851795,-1.5006 -0.681586,-0.45881 -1.37281,-0.92525 -1.931779,-1.53348 -0.539028,-0.63031 -1.092443,-1.24515 -1.585777,-1.9134 -0.558443,-0.66211 -1.067348,-1.37115 -1.502447,-2.12052 -0.49099,-0.86736 -1.013582,-1.71902 -1.364158,-2.65719 -0.457493,-1.06922 -0.885454,-2.1533 -1.292751,-3.24222 -0.267957,-1.04881 -0.391422,-2.14034 -0.429821,-3.22105 0,0 -3.718653,1.89475 -3.718653,1.89475 z" />
    <path
       d="m 141.29809,157.75184 a 4.3628101,7.3182621 0 0 1 -4.41925,7.18991 4.3628101,7.3182621 0 0 1 -4.30554,-7.3815 4.3628101,7.3182621 0 0 1 4.38168,-7.25433 4.3628101,7.3182621 0 0 1 4.34377,7.31819 z"
       sodipodi:arc-type="chord"
       sodipodi:open="true"
       sodipodi:end="0"
       sodipodi:start="0.017453293"
       sodipodi:ry="7.3182621"
       sodipodi:rx="4.3628101"
       sodipodi:cy="157.62411"
       sodipodi:cx="136.93594"
       sodipodi:type="arc"
       id="path277"
       style="fill:#b3b3b3;stroke-width:0.264583" />
    <path
       d="m 90.914097,160.82838 a 8.1626778,6.1923757 0 0 1 -8.26828,6.08377 8.1626778,6.1923757 0 0 1 -8.055521,-6.24588 8.1626778,6.1923757 0 0 1 8.197983,-6.13828 8.1626778,6.1923757 0 0 1 8.127061,6.19232 z"
       sodipodi:arc-type="chord"
       sodipodi:open="true"
       sodipodi:end="0"
       sodipodi:start="0.017453293"
       sodipodi:ry="6.1923757"
       sodipodi:rx="8.1626778"
       sodipodi:cy="160.72031"
       sodipodi:cx="82.752663"
       sodipodi:type="arc"
       id="path279"
       style="fill:#cccccc;stroke-width:0.264583" />
    <path
       d="m 112.02472,94.959101 a 6.4738474,5.9109044 0 0 1 -6.5576,5.807239 6.4738474,5.9109044 0 0 1 -6.388864,-5.96198 6.4738474,5.9109044 0 0 1 6.501844,-5.859266 6.4738474,5.9109044 0 0 1 6.4456,5.910848 z"
       sodipodi:arc-type="chord"
       sodipodi:open="true"
       sodipodi:end="0"
       sodipodi:start="0.017453293"
       sodipodi:ry="5.9109044"
       sodipodi:rx="6.4738474"
       sodipodi:cy="94.855942"
       sodipodi:cx="105.55186"
       sodipodi:type="arc"
       id="path281"
       style="fill:#b3b3b3;stroke-width:0.264583" />
    <path
       d="m 151.431,127.08125 a 4.7850175,7.8812056 0 0 1 -4.84692,7.74298 4.7850175,7.8812056 0 0 1 -4.7222,-7.9493 4.7850175,7.8812056 0 0 1 4.80571,-7.81236 4.7850175,7.8812056 0 0 1 4.76414,7.88113 z"
       sodipodi:arc-type="chord"
       sodipodi:open="true"
       sodipodi:end="0"
       sodipodi:start="0.017453293"
       sodipodi:ry="7.8812056"
       sodipodi:rx="4.7850175"
       sodipodi:cy="126.9437"
       sodipodi:cx="146.64671"
       sodipodi:type="arc"
       id="path283"
       style="fill:#b3b3b3;stroke-width:0.264583" />
    <path
       d="m 110.05403,203.58258 a 9.0070925,4.5035462 0 0 1 -9.12362,4.42456 9.0070925,4.5035462 0 0 1 -8.88885,-4.54246 9.0070925,4.5035462 0 0 1 9.04605,-4.4642 9.0070925,4.5035462 0 0 1 8.96779,4.5035 z"
       sodipodi:arc-type="chord"
       sodipodi:open="true"
       sodipodi:end="0"
       sodipodi:start="0.017453293"
       sodipodi:ry="4.5035462"
       sodipodi:rx="9.0070925"
       sodipodi:cy="203.50398"
       sodipodi:cx="101.04831"
       sodipodi:type="arc"
       id="path285"
       style="fill:#cccccc;stroke-width:0.264583" />
    <path
       d="m 57.700847,146.60177 a 5.4886966,5.4886966 0 0 1 -5.559706,5.39244 5.4886966,5.4886966 0 0 1 -5.416643,-5.53613 5.4886966,5.4886966 0 0 1 5.512437,-5.44074 5.4886966,5.4886966 0 0 1 5.464748,5.48864 z"
       sodipodi:arc-type="chord"
       sodipodi:open="true"
       sodipodi:end="0"
       sodipodi:start="0.017453293"
       sodipodi:ry="5.4886966"
       sodipodi:rx="5.4886966"
       sodipodi:cy="146.50598"
       sodipodi:cx="52.212986"
       sodipodi:type="arc"
       id="path287"
       style="fill:#cccccc;stroke-width:0.264583" />
    <path
       d="m 80.500172,92.860344 a 4.6442819,6.614583 0 0 1 -4.704366,6.498576 4.6442819,6.614583 0 0 1 -4.583313,-6.671739 4.6442819,6.614583 0 0 1 4.664369,-6.556797 4.6442819,6.614583 0 0 1 4.624018,6.61452 z"
       sodipodi:arc-type="chord"
       sodipodi:open="true"
       sodipodi:end="0"
       sodipodi:start="0.017453293"
       sodipodi:ry="6.614583"
       sodipodi:rx="4.6442819"
       sodipodi:cy="92.744904"
       sodipodi:cx="75.856598"
       sodipodi:type="arc"
       id="path289"
       style="fill:#b3b3b3;stroke-width:0.264583" />
    <path
       d="m 55.730676,119.7286 a 4.6442819,5.9109044 0 0 1 -4.704367,5.80724 4.6442819,5.9109044 0 0 1 -4.583313,-5.96198 4.6442819,5.9109044 0 0 1 4.664369,-5.85927 4.6442819,5.9109044 0 0 1 4.624018,5.91085 z"
       sodipodi:arc-type="chord"
       sodipodi:open="true"
       sodipodi:end="0"
       sodipodi:start="0.017453293"
       sodipodi:ry="5.9109044"
       sodipodi:rx="4.6442819"
       sodipodi:cy="119.62544"
       sodipodi:cx="51.087101"
       sodipodi:type="arc"
       id="path291"
       style="fill:#b3b3b3;stroke-width:0.264583" />
    <path
       d="m 113.43242,149.13992 a 4.2220745,5.7701683 0 0 1 -4.27669,5.66897 4.2220745,5.7701683 0 0 1 -4.16665,-5.82003 4.2220745,5.7701683 0 0 1 4.24033,-5.71976 4.2220745,5.7701683 0 0 1 4.20366,5.77012 z"
       sodipodi:arc-type="chord"
       sodipodi:open="true"
       sodipodi:end="0"
       sodipodi:start="0.017453293"
       sodipodi:ry="5.7701683"
       sodipodi:rx="4.2220745"
       sodipodi:cy="149.03922"
       sodipodi:cx="109.21099"
       sodipodi:type="arc"
       id="path293"
       style="fill:#b3b3b3;stroke-width:0.264583" />
    <path
       d="m 136.51285,98.020899 a 5.9109044,3.9406028 0 0 1 -5.98738,3.871491 5.9109044,3.9406028 0 0 1 -5.83331,-3.974652 5.9109044,3.9406028 0 0 1 5.93648,-3.906178 5.9109044,3.9406028 0 0 1 5.88511,3.940566 z"
       sodipodi:arc-type="chord"
       sodipodi:open="true"
       sodipodi:end="0"
       sodipodi:start="0.017453293"
       sodipodi:ry="3.9406028"
       sodipodi:rx="5.9109044"
       sodipodi:cy="97.952126"
       sodipodi:cx="130.60284"
       sodipodi:type="arc"
       id="path295"
       style="fill:#b3b3b3;stroke-width:0.264583" />
    <path
       d="m 53.478774,182.66453 a 5.4886966,7.4589982 0 0 1 -5.559705,7.32818 5.4886966,7.4589982 0 0 1 -5.416643,-7.52345 5.4886966,7.4589982 0 0 1 5.512436,-7.39384 5.4886966,7.4589982 0 0 1 5.464748,7.45893 z"
       sodipodi:arc-type="chord"
       sodipodi:open="true"
       sodipodi:end="0"
       sodipodi:start="0.017453293"
       sodipodi:ry="7.4589982"
       sodipodi:rx="5.4886966"
       sodipodi:cy="182.53435"
       sodipodi:cx="47.990913"
       sodipodi:type="arc"
       id="path297"
       style="fill:#cccccc;stroke-width:0.264583" />
    <path
       inkscape:transform-center-y="-0.66830976"
       inkscape:transform-center-x="-0.81630855"
       d="m 38.843083,92.60416 -8.076134,-6.227746 -9.708752,3.122322 3.427275,-9.605339 -5.969673,-8.268722 10.194306,0.29132 6.019291,-8.232673 2.873153,9.785384 9.6898,3.180651 -8.418601,5.75638 z"
       inkscape:randomized="0"
       inkscape:rounded="0"
       inkscape:flatsided="false"
       sodipodi:arg2="1.7436638"
       sodipodi:arg1="1.1153453"
       sodipodi:r2="7.6788125"
       sodipodi:r1="15.357624"
       sodipodi:cy="78.812051"
       sodipodi:cx="32.087766"
       sodipodi:sides="5"
       id="path299"
       style="fill:#ffd42a;stroke-width:0.264583"
       sodipodi:type="star" />
    <path
       inkscape:transform-center-y="0.54147209"
       inkscape:transform-center-x="-0.95677259"
       d="m 188.58599,139.8914 -6.31076,-8.14121 -10.2842,0.58329 5.79261,-8.51767 -3.73272,-9.60061 9.89079,2.877 7.97725,-6.51679 0.32024,10.29575 8.66294,5.57302 -9.69289,3.48612 z"
       inkscape:randomized="0"
       inkscape:rounded="0"
       inkscape:flatsided="false"
       sodipodi:arg2="1.9981606"
       sodipodi:arg1="1.3698421"
       sodipodi:r2="7.7558079"
       sodipodi:r1="15.511616"
       sodipodi:cy="124.69193"
       sodipodi:cx="185.4898"
       sodipodi:sides="5"
       id="path301"
       style="fill:#ffd42a;stroke-width:0.264583"
       sodipodi:type="star" />
    <path
       inkscape:transform-center-y="-0.43476051"
       inkscape:transform-center-x="-1.6084678"
       d="M 32.36924,241.78413 21.885477,232.36738 8.1847812,235.66515 13.90098,222.78457 6.5308631,210.7735 l 14.0165669,1.45611 9.145714,-10.72102 2.946517,13.78051 13.022478,5.38511 -12.19552,7.06071 z"
       inkscape:randomized="0"
       inkscape:rounded="0"
       inkscape:flatsided="false"
       sodipodi:arg2="1.8186085"
       sodipodi:arg1="1.1902899"
       sodipodi:r2="10.610398"
       sodipodi:r1="21.220795"
       sodipodi:cy="222.08112"
       sodipodi:cx="24.488033"
       sodipodi:sides="5"
       id="path303"
       style="fill:#ffd42a;stroke-width:0.264583"
       sodipodi:type="star" />
    <path
       style="fill:#aaeeff;stroke-width:0.314301"
       id="path165"
       sodipodi:type="arc"
       sodipodi:cx="64.115807"
       sodipodi:cy="195.4149"
       sodipodi:rx="43.205894"
       sodipodi:ry="34.198803"
       sodipodi:start="0.017453293"
       sodipodi:end="0"
       sodipodi:open="true"
       sodipodi:arc-type="chord"
       d="M 107.31512,196.01175 A 43.205894,34.198803 0 0 1 63.550259,229.61077 43.205894,34.198803 0 0 1 20.911557,195.11646 43.205894,34.198803 0 0 1 64.304327,161.21642 43.205894,34.198803 0 0 1 107.3217,195.4149 Z" />
    <path
       style="fill:#aaeeff;stroke-width:0.264583"
       id="path167"
       sodipodi:type="arc"
       sodipodi:cx="118.86206"
       sodipodi:cy="185.70413"
       sodipodi:rx="47.850178"
       sodipodi:ry="41.939274"
       sodipodi:start="0.017453293"
       sodipodi:end="0"
       sodipodi:open="true"
       sodipodi:arc-type="chord"
       d="m 166.70495,186.43607 a 47.850178,41.939274 0 0 1 -48.46923,41.20374 47.850178,41.939274 0 0 1 -47.222015,-42.30166 47.850178,41.939274 0 0 1 48.057145,-41.57289 47.850178,41.939274 0 0 1 47.64139,41.93887 z" />
    <path
       style="fill:#aaeeff;stroke-width:0.264583"
       id="path169"
       sodipodi:type="arc"
       sodipodi:cx="179.80064"
       sodipodi:cy="192.88167"
       sodipodi:rx="36.450577"
       sodipodi:ry="31.665558"
       sodipodi:start="0.017453293"
       sodipodi:end="0"
       sodipodi:open="true"
       sodipodi:arc-type="chord"
       d="m 216.24567,193.43431 a 36.450577,31.665558 0 0 1 -36.92215,31.1102 36.450577,31.665558 0 0 1 -35.97206,-31.93917 36.450577,31.665558 0 0 1 36.60823,-31.38893 36.450577,31.665558 0 0 1 36.29153,31.66526 z" />
    <path
       style="fill:#ffffff;stroke-width:0.264583"
       id="path201"
       sodipodi:type="arc"
       sodipodi:cx="105.21066"
       sodipodi:cy="-178.94882"
       sodipodi:rx="13.088431"
       sodipodi:ry="12.384751"
       sodipodi:start="0.017453293"
       sodipodi:end="0"
       sodipodi:open="true"
       sodipodi:arc-type="chord"
       d="m 118.2971,-178.73268 a 13.088431,12.384751 0 0 1 -13.25776,12.16755 13.088431,12.384751 0 0 1 -12.91661,-12.49177 13.088431,12.384751 0 0 1 13.14504,-12.27656 13.088431,12.384751 0 0 1 13.03132,12.38464 z"
       transform="scale(1,-1)" />
    <path
       transform="scale(1,-1)"
       d="m 149.11825,-176.76237 a 13.088431,12.384751 0 0 1 -13.25776,12.16754 13.088431,12.384751 0 0 1 -12.91661,-12.49176 13.088431,12.384751 0 0 1 13.14504,-12.27656 13.088431,12.384751 0 0 1 13.03133,12.38463 z"
       sodipodi:arc-type="chord"
       sodipodi:open="true"
       sodipodi:end="0"
       sodipodi:start="0.017453293"
       sodipodi:ry="12.384751"
       sodipodi:rx="13.088431"
       sodipodi:cy="-176.97852"
       sodipodi:cx="136.03181"
       sodipodi:type="arc"
       id="path201-2"
       style="fill:#ffffff;stroke-width:0.264583" />
    <path
       style="fill:#28220b;stroke-width:0.264583"
       id="path218"
       sodipodi:type="arc"
       sodipodi:cx="100.98859"
       sodipodi:cy="181.90427"
       sodipodi:rx="5.2072253"
       sodipodi:ry="6.3331118"
       sodipodi:start="0.017453293"
       sodipodi:end="0"
       sodipodi:open="true"
       sodipodi:arc-type="chord"
       d="m 106.19502,182.01479 a 5.2072253,6.3331118 0 0 1 -5.27459,6.22205 5.2072253,6.3331118 0 0 1 -5.138871,-6.38784 5.2072253,6.3331118 0 0 1 5.229751,-6.27779 5.2072253,6.3331118 0 0 1 5.1845,6.33306 z" />
    <path
       d="m 137.01617,182.15553 a 5.2072253,6.3331118 0 0 1 -5.27459,6.22204 5.2072253,6.3331118 0 0 1 -5.13887,-6.38784 5.2072253,6.3331118 0 0 1 5.22975,-6.27778 5.2072253,6.3331118 0 0 1 5.1845,6.33305 z"
       sodipodi:arc-type="chord"
       sodipodi:open="true"
       sodipodi:end="0"
       sodipodi:start="0.017453293"
       sodipodi:ry="6.3331118"
       sodipodi:rx="5.2072253"
       sodipodi:cy="182.045"
       sodipodi:cx="131.80974"
       sodipodi:type="arc"
       id="path218-8"
       style="fill:#28220b;stroke-width:0.264583" />
    <path
       d="m 110.18896,224.132 a 47.146496,36.872787 0 0 1 -47.756444,36.22611 47.146496,36.872787 0 0 1 -46.527572,-37.1914 47.146496,36.872787 0 0 1 47.350415,-36.55067 47.146496,36.872787 0 0 1 46.940781,36.87244 z"
       sodipodi:arc-type="chord"
       sodipodi:open="true"
       sodipodi:end="0"
       sodipodi:start="0.017453293"
       sodipodi:ry="36.872787"
       sodipodi:rx="47.146496"
       sodipodi:cy="223.48848"
       sodipodi:cx="63.049644"
       sodipodi:type="arc"
       id="path990"
       style="fill:#93aca7;stroke-width:0.264583" />
    <path
       d="m 150.72191,224.23907 a 40.391182,26.880539 0 0 1 -40.91373,26.40911 40.391182,26.880539 0 0 1 -39.86094,-27.11281 40.391182,26.880539 0 0 1 40.56588,-26.64571 40.391182,26.880539 0 0 1 40.21495,26.88028 z"
       sodipodi:arc-type="chord"
       sodipodi:open="true"
       sodipodi:end="0"
       sodipodi:start="0.017453293"
       sodipodi:ry="26.880539"
       sodipodi:rx="40.391182"
       sodipodi:cy="223.76994"
       sodipodi:cx="110.33688"
       sodipodi:type="arc"
       id="path994"
       style="fill:#93aca7;stroke-width:0.273717" />
    <path
       d="m 202.62105,223.77592 a 39.936535,32.598263 0 0 1 -40.45321,32.02655 39.936535,32.598263 0 0 1 -39.41226,-32.87994 39.936535,32.598263 0 0 1 40.10927,-32.31348 39.936535,32.598263 0 0 1 39.76228,32.59795 z"
       sodipodi:arc-type="chord"
       sodipodi:open="true"
       sodipodi:end="0"
       sodipodi:start="0.017453293"
       sodipodi:ry="32.598263"
       sodipodi:rx="39.936535"
       sodipodi:cy="223.207"
       sodipodi:cx="162.6906"
       sodipodi:type="arc"
       id="path998"
       style="fill:#93aca7;stroke-width:0.275267" />
    <path
       transform="scale(1,-1)"
       d="m 63.18839,-208.35434 a 13.088431,12.384751 0 0 1 -13.257761,12.16755 13.088431,12.384751 0 0 1 -12.91661,-12.49177 13.088431,12.384751 0 0 1 13.145041,-12.27655 13.088431,12.384751 0 0 1 13.031323,12.38463 z"
       sodipodi:arc-type="chord"
       sodipodi:open="true"
       sodipodi:end="0"
       sodipodi:start="0.017453293"
       sodipodi:ry="12.384751"
       sodipodi:rx="13.088431"
       sodipodi:cy="-208.57048"
       sodipodi:cx="50.101952"
       sodipodi:type="arc"
       id="path201-4"
       style="fill:#ffffff;stroke-width:0.264583" />
    <path
       d="m 54.182495,213.74749 a 5.2072253,6.3331118 0 0 1 -5.274593,6.22204 5.2072253,6.3331118 0 0 1 -5.138866,-6.38783 5.2072253,6.3331118 0 0 1 5.229748,-6.27779 5.2072253,6.3331118 0 0 1 5.184504,6.33305 z"
       sodipodi:arc-type="chord"
       sodipodi:open="true"
       sodipodi:end="0"
       sodipodi:start="0.017453293"
       sodipodi:ry="6.3331118"
       sodipodi:rx="5.2072253"
       sodipodi:cy="213.63696"
       sodipodi:cx="48.976063"
       sodipodi:type="arc"
       id="path218-9"
       style="fill:#28220b;stroke-width:0.264583" />
    <path
       style="fill:#ffffff;stroke-width:0.264583"
       id="path201-2-5"
       sodipodi:type="arc"
       sodipodi:cx="73.464096"
       sodipodi:cy="-208.85196"
       sodipodi:rx="13.088431"
       sodipodi:ry="12.384751"
       sodipodi:start="0.017453293"
       sodipodi:end="0"
       sodipodi:open="true"
       sodipodi:arc-type="chord"
       d="m 86.550534,-208.63582 a 13.088431,12.384751 0 0 1 -13.25776,12.16755 13.088431,12.384751 0 0 1 -12.916611,-12.49177 13.088431,12.384751 0 0 1 13.145042,-12.27655 13.088431,12.384751 0 0 1 13.031322,12.38463 z"
       transform="scale(1,-1)" />
    <path
       style="fill:#28220b;stroke-width:0.264583"
       id="path218-8-6"
       sodipodi:type="arc"
       sodipodi:cx="71.212326"
       sodipodi:cy="213.07402"
       sodipodi:rx="5.2072253"
       sodipodi:ry="6.3331118"
       sodipodi:start="0.017453293"
       sodipodi:end="0"
       sodipodi:open="true"
       sodipodi:arc-type="chord"
       d="m 76.418758,213.18455 a 5.2072253,6.3331118 0 0 1 -5.274592,6.22204 5.2072253,6.3331118 0 0 1 -5.138867,-6.38784 5.2072253,6.3331118 0 0 1 5.229748,-6.27778 5.2072253,6.3331118 0 0 1 5.184504,6.33305 z" />
  </g>
</svg>
