<?xml version="1.0" encoding="UTF-8" standalone="no"?>
<svg
   xmlns:dc="http://purl.org/dc/elements/1.1/"
   xmlns:cc="http://creativecommons.org/ns#"
   xmlns:rdf="http://www.w3.org/1999/02/22-rdf-syntax-ns#"
   xmlns:svg="http://www.w3.org/2000/svg"
   xmlns="http://www.w3.org/2000/svg"
   xmlns:sodipodi="http://sodipodi.sourceforge.net/DTD/sodipodi-0.dtd"
   xmlns:inkscape="http://www.inkscape.org/namespaces/inkscape"
   width="210mm"
   height="297mm"
   viewBox="0 0 210 297"
   version="1.1"
   id="svg16"
   sodipodi:docname="04d.svg"
   inkscape:version="1.0 (4035a4fb49, 2020-05-01)">
  <defs
     id="defs10" />
  <sodipodi:namedview
     id="base"
     pagecolor="#ffffff"
     bordercolor="#666666"
     borderopacity="1.0"
     inkscape:pageopacity="0.0"
     inkscape:pageshadow="2"
     inkscape:zoom="0.94"
     inkscape:cx="400"
     inkscape:cy="517.44681"
     inkscape:document-units="mm"
     inkscape:current-layer="layer1"
     inkscape:document-rotation="0"
     showgrid="false"
     inkscape:window-width="1800"
     inkscape:window-height="1106"
     inkscape:window-x="-11"
     inkscape:window-y="-11"
     inkscape:window-maximized="1" />
  <metadata
     id="metadata13">
    <rdf:RDF>
      <cc:Work
         rdf:about="">
        <dc:format>image/svg+xml</dc:format>
        <dc:type
           rdf:resource="http://purl.org/dc/dcmitype/StillImage" />
        <dc:title />
      </cc:Work>
    </rdf:RDF>
  </metadata>
  <g
     inkscape:label="Livello 1"
     inkscape:groupmode="layer"
     id="layer1">
    <path
       d="m 126.66039,124.06366 a 12.10328,12.384752 0 0 1 -12.25986,12.16754 12.10328,12.384752 0 0 1 -11.9444,-12.49176 12.10328,12.384752 0 0 1 12.15563,-12.27656 12.10328,12.384752 0 0 1 12.05047,12.38463 z"
       sodipodi:arc-type="chord"
       sodipodi:open="true"
       sodipodi:end="0"
       sodipodi:start="0.017453293"
       sodipodi:ry="12.384752"
       sodipodi:rx="12.10328"
       sodipodi:cy="123.84751"
       sodipodi:cx="114.55895"
       sodipodi:type="arc"
       id="path73-5"
       style="fill:#ffffff;stroke-width:0.384101" />
    <path
       style="fill:#93a7ac;stroke-width:0.264583"
       id="path1000"
       sodipodi:type="arc"
       sodipodi:cx="63.612591"
       sodipodi:cy="114.55895"
       sodipodi:rx="45.035461"
       sodipodi:ry="40.531914"
       sodipodi:start="0.017453293"
       sodipodi:end="0"
       sodipodi:open="true"
       sodipodi:arc-type="chord"
       d="M 108.64119,115.26633 A 45.035461,40.531914 0 0 1 63.023095,155.08739 45.035461,40.531914 0 0 1 18.578844,114.20525 45.035461,40.531914 0 0 1 63.809094,74.027424 45.035461,40.531914 0 0 1 108.64805,114.55895 Z" />
    <path
       style="fill:#93a7ac;stroke-width:0.264583"
       id="path1002"
       sodipodi:type="arc"
       sodipodi:cx="120.04765"
       sodipodi:cy="142.56537"
       sodipodi:rx="48.835327"
       sodipodi:ry="38.420879"
       sodipodi:start="0.017453293"
       sodipodi:end="0"
       sodipodi:open="true"
       sodipodi:arc-type="chord"
       d="m 168.87554,143.23591 a 48.835327,38.420879 0 0 1 -49.46712,37.74705 48.835327,38.420879 0 0 1 -48.194234,-38.75287 48.835327,38.420879 0 0 1 49.046554,-38.08523 48.835327,38.420879 0 0 1 48.62224,38.42051 z" />
    <path
       style="fill:#93a7ac;stroke-width:0.264583"
       id="path1004"
       sodipodi:type="arc"
       sodipodi:cx="172.54211"
       sodipodi:cy="122.15868"
       sodipodi:rx="36.309837"
       sodipodi:ry="39.124557"
       sodipodi:start="0.017453293"
       sodipodi:end="0"
       sodipodi:open="true"
       sodipodi:arc-type="chord"
       d="m 208.84642,122.8415 a 36.309837,39.124557 0 0 1 -36.77959,38.43839 36.309837,39.124557 0 0 1 -35.83317,-39.46263 36.309837,39.124557 0 0 1 36.46689,-38.782761 36.309837,39.124557 0 0 1 36.1514,39.124181 z" />
    <path
       style="fill:#87cdde;stroke-width:0.264583"
       id="path1006"
       sodipodi:type="arc"
       sodipodi:cx="56.435059"
       sodipodi:cy="142.28391"
       sodipodi:rx="48.553856"
       sodipodi:ry="44.331783"
       sodipodi:start="0.017453293"
       sodipodi:end="0"
       sodipodi:open="true"
       sodipodi:arc-type="chord"
       d="M 104.98152,143.0576 A 48.553856,44.331783 0 0 1 55.799508,186.61189 48.553856,44.331783 0 0 1 7.8830515,141.89704 48.553856,44.331783 0 0 1 56.646914,97.952544 48.553856,44.331783 0 0 1 104.98891,142.28391 Z" />
    <path
       style="fill:#87cdde;stroke-width:0.264583"
       id="path1008"
       sodipodi:type="arc"
       sodipodi:cx="122.29942"
       sodipodi:cy="173.668"
       sodipodi:rx="48.272385"
       sodipodi:ry="38.28014"
       sodipodi:start="0.017453293"
       sodipodi:end="0"
       sodipodi:open="true"
       sodipodi:arc-type="chord"
       d="m 170.56446,174.33608 a 48.272385,38.28014 0 0 1 -48.8969,37.60878 48.272385,38.28014 0 0 1 -47.638683,-38.61091 48.272385,38.28014 0 0 1 48.481173,-37.94573 48.272385,38.28014 0 0 1 48.06176,38.27978 z" />
    <path
       style="fill:#87cdde;stroke-width:0.264583"
       id="path1010"
       sodipodi:type="arc"
       sodipodi:cx="175.07536"
       sodipodi:cy="155.37234"
       sodipodi:rx="34.339539"
       sodipodi:ry="30.117464"
       sodipodi:start="0.017453293"
       sodipodi:end="0"
       sodipodi:open="true"
       sodipodi:arc-type="chord"
       d="m 209.40967,155.89797 a 34.339539,30.117464 0 0 1 -34.7838,29.58926 34.339539,30.117464 0 0 1 -33.88874,-30.37771 34.339539,30.117464 0 0 1 34.48807,-29.85435 34.339539,30.117464 0 0 1 34.1897,30.11717 z" />
    <path
       style="fill:#374548;stroke-width:0.264583"
       id="path1012"
       sodipodi:type="arc"
       sodipodi:cx="81.767509"
       sodipodi:cy="192.66733"
       sodipodi:rx="50.242683"
       sodipodi:ry="44.050312"
       sodipodi:start="0.017453293"
       sodipodi:end="0"
       sodipodi:open="true"
       sodipodi:arc-type="chord"
       d="M 132.00254,193.43611 A 50.242683,44.050312 0 0 1 81.109853,236.71387 50.242683,44.050312 0 0 1 31.526739,192.28292 50.242683,44.050312 0 0 1 81.986734,148.61744 50.242683,44.050312 0 0 1 132.01019,192.66733 Z" />
    <path
       style="fill:#374548;stroke-width:0.264583"
       id="path1014"
       sodipodi:type="arc"
       sodipodi:cx="160.43883"
       sodipodi:cy="191.4007"
       sodipodi:rx="44.75399"
       sodipodi:ry="36.872784"
       sodipodi:start="0.017453293"
       sodipodi:end="0"
       sodipodi:open="true"
       sodipodi:arc-type="chord"
       d="m 205.186,192.04421 a 44.75399,36.872784 0 0 1 -45.33298,36.22611 44.75399,36.872784 0 0 1 -44.16648,-37.1914 44.75399,36.872784 0 0 1 44.94756,-36.55066 44.75399,36.872784 0 0 1 44.55872,36.87244 z" />
    <path
       style="fill:#374548;stroke-width:0.264583"
       id="path1016"
       sodipodi:type="arc"
       sodipodi:cx="29.273048"
       sodipodi:cy="205.47429"
       sodipodi:rx="36.02837"
       sodipodi:ry="32.932182"
       sodipodi:start="0.017453293"
       sodipodi:end="0"
       sodipodi:open="true"
       sodipodi:arc-type="chord"
       d="M 65.295931,206.04903 A 36.02837,32.932182 0 0 1 28.801452,238.40365 36.02837,32.932182 0 0 1 -6.7539497,205.18691 36.02837,32.932182 0 0 1 29.430251,172.54242 36.02837,32.932182 0 0 1 65.301418,205.47429 Z" />
    <path
       d="M 75.710383,160.16915 A 36.02837,32.932182 0 0 1 39.215903,192.52377 36.02837,32.932182 0 0 1 3.6605019,159.30702 36.02837,32.932182 0 0 1 39.844703,126.66254 36.02837,32.932182 0 0 1 75.71587,159.59441 Z"
       sodipodi:arc-type="chord"
       sodipodi:open="true"
       sodipodi:end="0"
       sodipodi:start="0.017453293"
       sodipodi:ry="32.932182"
       sodipodi:rx="36.02837"
       sodipodi:cy="159.59441"
       sodipodi:cx="39.6875"
       sodipodi:type="arc"
       id="path1016-1"
       style="fill:#374548;stroke-width:0.264583" />
    <path
       transform="scale(1,-1)"
       d="m 35.322697,-146.71205 a 13.088431,12.384751 0 0 1 -13.25776,12.16755 13.088431,12.384751 0 0 1 -12.9166105,-12.49177 13.088431,12.384751 0 0 1 13.1450415,-12.27656 13.088431,12.384751 0 0 1 13.031323,12.38464 z"
       sodipodi:arc-type="chord"
       sodipodi:open="true"
       sodipodi:end="0"
       sodipodi:start="0.017453293"
       sodipodi:ry="12.384751"
       sodipodi:rx="13.088431"
       sodipodi:cy="-146.92819"
       sodipodi:cx="22.236259"
       sodipodi:type="arc"
       id="path201-2-5"
       style="fill:#ffffff;stroke-width:0.264583" />
    <path
       transform="scale(1,-1)"
       d="m 56.714539,-149.52676 a 13.088431,12.384751 0 0 1 -13.25776,12.16755 13.088431,12.384751 0 0 1 -12.916611,-12.49177 13.088431,12.384751 0 0 1 13.145042,-12.27656 13.088431,12.384751 0 0 1 13.031323,12.38464 z"
       sodipodi:arc-type="chord"
       sodipodi:open="true"
       sodipodi:end="0"
       sodipodi:start="0.017453293"
       sodipodi:ry="12.384751"
       sodipodi:rx="13.088431"
       sodipodi:cy="-149.7429"
       sodipodi:cx="43.628101"
       sodipodi:type="arc"
       id="path201-2-5-2"
       style="fill:#ffffff;stroke-width:0.264583" />
    <path
       transform="scale(1,-1)"
       d="m 127.92686,-145.86763 a 13.088431,12.384751 0 0 1 -13.25776,12.16755 13.088431,12.384751 0 0 1 -12.91661,-12.49177 13.088431,12.384751 0 0 1 13.14504,-12.27655 13.088431,12.384751 0 0 1 13.03132,12.38463 z"
       sodipodi:arc-type="chord"
       sodipodi:open="true"
       sodipodi:end="0"
       sodipodi:start="0.017453293"
       sodipodi:ry="12.384751"
       sodipodi:rx="13.088431"
       sodipodi:cy="-146.08377"
       sodipodi:cx="114.84042"
       sodipodi:type="arc"
       id="path201-2-5-26"
       style="fill:#ffffff;stroke-width:0.264583" />
    <path
       transform="scale(1,-1)"
       d="m 149.31871,-147.55647 a 13.088431,12.384751 0 0 1 -13.25776,12.16755 13.088431,12.384751 0 0 1 -12.91661,-12.49177 13.088431,12.384751 0 0 1 13.14504,-12.27656 13.088431,12.384751 0 0 1 13.03132,12.38464 z"
       sodipodi:arc-type="chord"
       sodipodi:open="true"
       sodipodi:end="0"
       sodipodi:start="0.017453293"
       sodipodi:ry="12.384751"
       sodipodi:rx="13.088431"
       sodipodi:cy="-147.77261"
       sodipodi:cx="136.23227"
       sodipodi:type="arc"
       id="path201-2-5-7"
       style="fill:#ffffff;stroke-width:0.264583" />
    <path
       transform="scale(1,-1)"
       d="m 178.59176,-94.076856 a 13.088431,12.384751 0 0 1 -13.25776,12.167547 13.088431,12.384751 0 0 1 -12.91661,-12.491766 13.088431,12.384751 0 0 1 13.14504,-12.276555 13.088431,12.384751 0 0 1 13.03133,12.384631 z"
       sodipodi:arc-type="chord"
       sodipodi:open="true"
       sodipodi:end="0"
       sodipodi:start="0.017453293"
       sodipodi:ry="12.384751"
       sodipodi:rx="13.088431"
       sodipodi:cy="-94.292999"
       sodipodi:cx="165.50533"
       sodipodi:type="arc"
       id="path201-2-5-8"
       style="fill:#ffffff;stroke-width:0.264583" />
    <path
       transform="scale(1,-1)"
       d="m 198.57625,-96.047154 a 13.088431,12.384751 0 0 1 -13.25777,12.167546 13.088431,12.384751 0 0 1 -12.91661,-12.491766 13.088431,12.384751 0 0 1 13.14505,-12.276556 13.088431,12.384751 0 0 1 13.03132,12.384632 z"
       sodipodi:arc-type="chord"
       sodipodi:open="true"
       sodipodi:end="0"
       sodipodi:start="0.017453293"
       sodipodi:ry="12.384751"
       sodipodi:rx="13.088431"
       sodipodi:cy="-96.263298"
       sodipodi:cx="185.48981"
       sodipodi:type="arc"
       id="path201-2-5-5"
       style="fill:#ffffff;stroke-width:0.264583" />
    <path
       d="m 23.78356,153.79405 a 5.2072253,6.3331118 0 0 1 -5.274593,6.22204 5.2072253,6.3331118 0 0 1 -5.138867,-6.38784 5.2072253,6.3331118 0 0 1 5.229748,-6.27778 5.2072253,6.3331118 0 0 1 5.184505,6.33305 z"
       sodipodi:arc-type="chord"
       sodipodi:open="true"
       sodipodi:end="0"
       sodipodi:start="0.017453293"
       sodipodi:ry="6.3331118"
       sodipodi:rx="5.2072253"
       sodipodi:cy="153.68352"
       sodipodi:cx="18.577127"
       sodipodi:type="arc"
       id="path218-9"
       style="fill:#28220b;stroke-width:0.264583" />
    <path
       d="m 44.049518,154.91993 a 5.2072253,6.3331118 0 0 1 -5.274592,6.22204 5.2072253,6.3331118 0 0 1 -5.138867,-6.38783 5.2072253,6.3331118 0 0 1 5.229748,-6.27779 5.2072253,6.3331118 0 0 1 5.184505,6.33305 z"
       sodipodi:arc-type="chord"
       sodipodi:open="true"
       sodipodi:end="0"
       sodipodi:start="0.017453293"
       sodipodi:ry="6.3331118"
       sodipodi:rx="5.2072253"
       sodipodi:cy="154.8094"
       sodipodi:cx="38.843086"
       sodipodi:type="arc"
       id="path218-9-8"
       style="fill:#28220b;stroke-width:0.264583" />
    <path
       d="m 121.45422,151.82374 a 5.2072253,6.3331118 0 0 1 -5.27459,6.22204 5.2072253,6.3331118 0 0 1 -5.13887,-6.38784 5.2072253,6.3331118 0 0 1 5.22975,-6.27778 5.2072253,6.3331118 0 0 1 5.1845,6.33305 z"
       sodipodi:arc-type="chord"
       sodipodi:open="true"
       sodipodi:end="0"
       sodipodi:start="0.017453293"
       sodipodi:ry="6.3331118"
       sodipodi:rx="5.2072253"
       sodipodi:cy="151.71321"
       sodipodi:cx="116.24779"
       sodipodi:type="arc"
       id="path218-9-6"
       style="fill:#28220b;stroke-width:0.264583" />
    <path
       d="m 141.15724,152.66816 a 5.2072253,6.3331118 0 0 1 -5.27459,6.22204 5.2072253,6.3331118 0 0 1 -5.13887,-6.38783 5.2072253,6.3331118 0 0 1 5.22975,-6.27779 5.2072253,6.3331118 0 0 1 5.1845,6.33305 z"
       sodipodi:arc-type="chord"
       sodipodi:open="true"
       sodipodi:end="0"
       sodipodi:start="0.017453293"
       sodipodi:ry="6.3331118"
       sodipodi:rx="5.2072253"
       sodipodi:cy="152.55763"
       sodipodi:cx="135.95081"
       sodipodi:type="arc"
       id="path218-9-1"
       style="fill:#28220b;stroke-width:0.264583" />
    <path
       style="fill:#28220b;stroke-width:0.264583"
       id="path218-9-1-1"
       sodipodi:type="arc"
       sodipodi:cx="167.47562"
       sodipodi:cy="100.2039"
       sodipodi:rx="5.2072253"
       sodipodi:ry="6.3331118"
       sodipodi:start="0.017453293"
       sodipodi:end="0"
       sodipodi:open="true"
       sodipodi:arc-type="chord"
       d="m 172.68205,100.31443 a 5.2072253,6.3331118 0 0 1 -5.27459,6.22204 5.2072253,6.3331118 0 0 1 -5.13887,-6.38783 5.2072253,6.3331118 0 0 1 5.22975,-6.277788 5.2072253,6.3331118 0 0 1 5.1845,6.333048 z" />
    <path
       style="fill:#28220b;stroke-width:0.264583"
       id="path218-9-1-2"
       sodipodi:type="arc"
       sodipodi:cx="182.39362"
       sodipodi:cy="101.04831"
       sodipodi:rx="5.2072253"
       sodipodi:ry="6.3331118"
       sodipodi:start="0.017453293"
       sodipodi:end="0"
       sodipodi:open="true"
       sodipodi:arc-type="chord"
       d="m 187.60005,101.15884 a 5.2072253,6.3331118 0 0 1 -5.27459,6.22204 5.2072253,6.3331118 0 0 1 -5.13887,-6.38784 5.2072253,6.3331118 0 0 1 5.22975,-6.277782 5.2072253,6.3331118 0 0 1 5.1845,6.333052 z" />
  </g>
</svg>
