<?xml version="1.0" encoding="UTF-8" standalone="no"?>
<svg
   xmlns:dc="http://purl.org/dc/elements/1.1/"
   xmlns:cc="http://creativecommons.org/ns#"
   xmlns:rdf="http://www.w3.org/1999/02/22-rdf-syntax-ns#"
   xmlns:svg="http://www.w3.org/2000/svg"
   xmlns="http://www.w3.org/2000/svg"
   xmlns:sodipodi="http://sodipodi.sourceforge.net/DTD/sodipodi-0.dtd"
   xmlns:inkscape="http://www.inkscape.org/namespaces/inkscape"
   width="210mm"
   height="297mm"
   viewBox="0 0 210 297"
   version="1.1"
   id="svg16"
   sodipodi:docname="04n.svg"
   inkscape:version="1.0 (4035a4fb49, 2020-05-01)">
  <defs
     id="defs10" />
  <sodipodi:namedview
     id="base"
     pagecolor="#ffffff"
     bordercolor="#666666"
     borderopacity="1.0"
     inkscape:pageopacity="0.0"
     inkscape:pageshadow="2"
     inkscape:zoom="0.94"
     inkscape:cx="400"
     inkscape:cy="517.44681"
     inkscape:document-units="mm"
     inkscape:current-layer="layer1"
     inkscape:document-rotation="0"
     showgrid="false"
     inkscape:window-width="1800"
     inkscape:window-height="1106"
     inkscape:window-x="-11"
     inkscape:window-y="-11"
     inkscape:window-maximized="1" />
  <metadata
     id="metadata13">
    <rdf:RDF>
      <cc:Work
         rdf:about="">
        <dc:format>image/svg+xml</dc:format>
        <dc:type
           rdf:resource="http://purl.org/dc/dcmitype/StillImage" />
        <dc:title />
      </cc:Work>
    </rdf:RDF>
  </metadata>
  <g
     inkscape:label="Livello 1"
     inkscape:groupmode="layer"
     id="layer1">
    <path
       d="m 126.66039,124.06366 a 12.10328,12.384752 0 0 1 -12.25986,12.16754 12.10328,12.384752 0 0 1 -11.9444,-12.49176 12.10328,12.384752 0 0 1 12.15563,-12.27656 12.10328,12.384752 0 0 1 12.05047,12.38463 z"
       sodipodi:arc-type="chord"
       sodipodi:open="true"
       sodipodi:end="0"
       sodipodi:start="0.017453293"
       sodipodi:ry="12.384752"
       sodipodi:rx="12.10328"
       sodipodi:cy="123.84751"
       sodipodi:cx="114.55895"
       sodipodi:type="arc"
       id="path73-5"
       style="fill:#ffffff;stroke-width:0.384101" />
    <path
       style="fill:#93a7ac;stroke-width:0.264583"
       id="path1000"
       sodipodi:type="arc"
       sodipodi:cx="63.612591"
       sodipodi:cy="114.55895"
       sodipodi:rx="45.035461"
       sodipodi:ry="40.531914"
       sodipodi:start="0.017453293"
       sodipodi:end="0"
       sodipodi:open="true"
       sodipodi:arc-type="chord"
       d="M 108.64119,115.26633 A 45.035461,40.531914 0 0 1 63.023095,155.08739 45.035461,40.531914 0 0 1 18.578844,114.20525 45.035461,40.531914 0 0 1 63.809094,74.027424 45.035461,40.531914 0 0 1 108.64805,114.55895 Z" />
    <path
       style="fill:#93a7ac;stroke-width:0.264583"
       id="path1002"
       sodipodi:type="arc"
       sodipodi:cx="120.04765"
       sodipodi:cy="142.56537"
       sodipodi:rx="48.835327"
       sodipodi:ry="38.420879"
       sodipodi:start="0.017453293"
       sodipodi:end="0"
       sodipodi:open="true"
       sodipodi:arc-type="chord"
       d="m 168.87554,143.23591 a 48.835327,38.420879 0 0 1 -49.46712,37.74705 48.835327,38.420879 0 0 1 -48.194234,-38.75287 48.835327,38.420879 0 0 1 49.046554,-38.08523 48.835327,38.420879 0 0 1 48.62224,38.42051 z" />
    <path
       style="fill:#93a7ac;stroke-width:0.264583"
       id="path1004"
       sodipodi:type="arc"
       sodipodi:cx="172.54211"
       sodipodi:cy="122.15868"
       sodipodi:rx="36.309837"
       sodipodi:ry="39.124557"
       sodipodi:start="0.017453293"
       sodipodi:end="0"
       sodipodi:open="true"
       sodipodi:arc-type="chord"
       d="m 208.84642,122.8415 a 36.309837,39.124557 0 0 1 -36.77959,38.43839 36.309837,39.124557 0 0 1 -35.83317,-39.46263 36.309837,39.124557 0 0 1 36.46689,-38.782761 36.309837,39.124557 0 0 1 36.1514,39.124181 z" />
    <path
       style="fill:#87cdde;stroke-width:0.264583"
       id="path1006"
       sodipodi:type="arc"
       sodipodi:cx="56.435059"
       sodipodi:cy="142.28391"
       sodipodi:rx="48.553856"
       sodipodi:ry="44.331783"
       sodipodi:start="0.017453293"
       sodipodi:end="0"
       sodipodi:open="true"
       sodipodi:arc-type="chord"
       d="M 104.98152,143.0576 A 48.553856,44.331783 0 0 1 55.799508,186.61189 48.553856,44.331783 0 0 1 7.8830515,141.89704 48.553856,44.331783 0 0 1 56.646914,97.952544 48.553856,44.331783 0 0 1 104.98891,142.28391 Z" />
    <path
       style="fill:#87cdde;stroke-width:0.264583"
       id="path1008"
       sodipodi:type="arc"
       sodipodi:cx="122.29942"
       sodipodi:cy="173.668"
       sodipodi:rx="48.272385"
       sodipodi:ry="38.28014"
       sodipodi:start="0.017453293"
       sodipodi:end="0"
       sodipodi:open="true"
       sodipodi:arc-type="chord"
       d="m 170.56446,174.33608 a 48.272385,38.28014 0 0 1 -48.8969,37.60878 48.272385,38.28014 0 0 1 -47.638683,-38.61091 48.272385,38.28014 0 0 1 48.481173,-37.94573 48.272385,38.28014 0 0 1 48.06176,38.27978 z" />
    <path
       style="fill:#87cdde;stroke-width:0.264583"
       id="path1010"
       sodipodi:type="arc"
       sodipodi:cx="175.07536"
       sodipodi:cy="155.37234"
       sodipodi:rx="34.339539"
       sodipodi:ry="30.117464"
       sodipodi:start="0.017453293"
       sodipodi:end="0"
       sodipodi:open="true"
       sodipodi:arc-type="chord"
       d="m 209.40967,155.89797 a 34.339539,30.117464 0 0 1 -34.7838,29.58926 34.339539,30.117464 0 0 1 -33.88874,-30.37771 34.339539,30.117464 0 0 1 34.48807,-29.85435 34.339539,30.117464 0 0 1 34.1897,30.11717 z" />
    <path
       style="fill:#374548;stroke-width:0.264583"
       id="path1012"
       sodipodi:type="arc"
       sodipodi:cx="81.767509"
       sodipodi:cy="192.66733"
       sodipodi:rx="50.242683"
       sodipodi:ry="44.050312"
       sodipodi:start="0.017453293"
       sodipodi:end="0"
       sodipodi:open="true"
       sodipodi:arc-type="chord"
       d="M 132.00254,193.43611 A 50.242683,44.050312 0 0 1 81.109853,236.71387 50.242683,44.050312 0 0 1 31.526739,192.28292 50.242683,44.050312 0 0 1 81.986734,148.61744 50.242683,44.050312 0 0 1 132.01019,192.66733 Z" />
    <path
       style="fill:#374548;stroke-width:0.264583"
       id="path1014"
       sodipodi:type="arc"
       sodipodi:cx="160.43883"
       sodipodi:cy="191.4007"
       sodipodi:rx="44.75399"
       sodipodi:ry="36.872784"
       sodipodi:start="0.017453293"
       sodipodi:end="0"
       sodipodi:open="true"
       sodipodi:arc-type="chord"
       d="m 205.186,192.04421 a 44.75399,36.872784 0 0 1 -45.33298,36.22611 44.75399,36.872784 0 0 1 -44.16648,-37.1914 44.75399,36.872784 0 0 1 44.94756,-36.55066 44.75399,36.872784 0 0 1 44.55872,36.87244 z" />
    <path
       style="fill:#374548;stroke-width:0.264583"
       id="path1016"
       sodipodi:type="arc"
       sodipodi:cx="29.273048"
       sodipodi:cy="205.47429"
       sodipodi:rx="36.02837"
       sodipodi:ry="32.932182"
       sodipodi:start="0.017453293"
       sodipodi:end="0"
       sodipodi:open="true"
       sodipodi:arc-type="chord"
       d="M 65.295931,206.04903 A 36.02837,32.932182 0 0 1 28.801452,238.40365 36.02837,32.932182 0 0 1 -6.7539497,205.18691 36.02837,32.932182 0 0 1 29.430251,172.54242 36.02837,32.932182 0 0 1 65.301418,205.47429 Z" />
    <path
       d="M 75.710383,160.16915 A 36.02837,32.932182 0 0 1 39.215903,192.52377 36.02837,32.932182 0 0 1 3.6605019,159.30702 36.02837,32.932182 0 0 1 39.844703,126.66254 36.02837,32.932182 0 0 1 75.71587,159.59441 Z"
       sodipodi:arc-type="chord"
       sodipodi:open="true"
       sodipodi:end="0"
       sodipodi:start="0.017453293"
       sodipodi:ry="32.932182"
       sodipodi:rx="36.02837"
       sodipodi:cy="159.59441"
       sodipodi:cx="39.6875"
       sodipodi:type="arc"
       id="path1016-1"
       style="fill:#374548;stroke-width:0.264583" />
    <path
       style="fill:#ffffff;stroke-width:0.264583"
       id="path201-4"
       sodipodi:type="arc"
       sodipodi:cx="26.176861"
       sodipodi:cy="-149.46144"
       sodipodi:rx="13.088431"
       sodipodi:ry="12.384751"
       sodipodi:start="0.017453293"
       sodipodi:end="0"
       sodipodi:open="true"
       sodipodi:arc-type="chord"
       d="m 39.263299,-149.2453 a 13.088431,12.384751 0 0 1 -13.25776,12.16755 13.088431,12.384751 0 0 1 -12.916611,-12.49177 13.088431,12.384751 0 0 1 13.145042,-12.27655 13.088431,12.384751 0 0 1 13.031322,12.38463 z"
       transform="scale(1,-1)" />
    <path
       style="fill:#ffffff;stroke-width:0.264583"
       id="path201-4-3"
       sodipodi:type="arc"
       sodipodi:cx="45.598404"
       sodipodi:cy="-148.8985"
       sodipodi:rx="13.088431"
       sodipodi:ry="12.384751"
       sodipodi:start="0.017453293"
       sodipodi:end="0"
       sodipodi:open="true"
       sodipodi:arc-type="chord"
       d="m 58.684842,-148.68235 a 13.088431,12.384751 0 0 1 -13.25776,12.16754 13.088431,12.384751 0 0 1 -12.916611,-12.49176 13.088431,12.384751 0 0 1 13.145042,-12.27656 13.088431,12.384751 0 0 1 13.031322,12.38463 z"
       transform="scale(1,-1)" />
    <path
       style="fill:#ffffff;stroke-width:0.264583"
       id="path201-4-6"
       sodipodi:type="arc"
       sodipodi:cx="179.29742"
       sodipodi:cy="-135.66933"
       sodipodi:rx="13.088431"
       sodipodi:ry="12.384751"
       sodipodi:start="0.017453293"
       sodipodi:end="0"
       sodipodi:open="true"
       sodipodi:arc-type="chord"
       d="m 192.38386,-135.45318 a 13.088431,12.384751 0 0 1 -13.25776,12.16754 13.088431,12.384751 0 0 1 -12.91661,-12.49176 13.088431,12.384751 0 0 1 13.14504,-12.27656 13.088431,12.384751 0 0 1 13.03133,12.38463 z"
       transform="scale(1,-1)" />
    <path
       style="fill:#ffffff;stroke-width:0.264583"
       id="path201-4-1"
       sodipodi:type="arc"
       sodipodi:cx="159.59442"
       sodipodi:cy="-138.20258"
       sodipodi:rx="13.088431"
       sodipodi:ry="12.384751"
       sodipodi:start="0.017453293"
       sodipodi:end="0"
       sodipodi:open="true"
       sodipodi:arc-type="chord"
       d="m 172.68086,-137.98643 a 13.088431,12.384751 0 0 1 -13.25776,12.16754 13.088431,12.384751 0 0 1 -12.91661,-12.49176 13.088431,12.384751 0 0 1 13.14504,-12.27656 13.088431,12.384751 0 0 1 13.03132,12.38463 z"
       transform="scale(1,-1)" />
    <path
       style="fill:#ffffff;stroke-width:0.264583"
       id="path201-4-4"
       sodipodi:type="arc"
       sodipodi:cx="158.75121"
       sodipodi:cy="-98.841743"
       sodipodi:rx="13.088431"
       sodipodi:ry="12.384751"
       sodipodi:start="0.017453293"
       sodipodi:end="0"
       sodipodi:open="true"
       sodipodi:arc-type="chord"
       d="m 171.83764,-98.6256 a 13.088431,12.384751 0 0 1 -13.25776,12.167547 13.088431,12.384751 0 0 1 -12.91661,-12.491766 13.088431,12.384751 0 0 1 13.14504,-12.276561 13.088431,12.384751 0 0 1 13.03133,12.384637 z"
       transform="scale(1,-1)" />
    <path
       style="fill:#ffffff;stroke-width:0.264583"
       id="path201-4-7"
       sodipodi:type="arc"
       sodipodi:cx="178.17274"
       sodipodi:cy="-98.278801"
       sodipodi:rx="13.088431"
       sodipodi:ry="12.384751"
       sodipodi:start="0.017453293"
       sodipodi:end="0"
       sodipodi:open="true"
       sodipodi:arc-type="chord"
       d="m 191.25918,-98.062657 a 13.088431,12.384751 0 0 1 -13.25776,12.167546 13.088431,12.384751 0 0 1 -12.91661,-12.491766 13.088431,12.384751 0 0 1 13.14504,-12.276553 13.088431,12.384751 0 0 1 13.03133,12.384629 z"
       transform="scale(1,-1)" />
    <path
       style="fill:#28220b;stroke-width:0.264583"
       id="path218-9"
       sodipodi:type="arc"
       sodipodi:cx="26.176861"
       sodipodi:cy="155.09087"
       sodipodi:rx="5.2072253"
       sodipodi:ry="6.3331118"
       sodipodi:start="0.017453293"
       sodipodi:end="0"
       sodipodi:open="true"
       sodipodi:arc-type="chord"
       d="m 31.383293,155.20139 a 5.2072253,6.3331118 0 0 1 -5.274593,6.22205 5.2072253,6.3331118 0 0 1 -5.138866,-6.38784 5.2072253,6.3331118 0 0 1 5.229748,-6.27779 5.2072253,6.3331118 0 0 1 5.184504,6.33306 z" />
    <path
       style="fill:#28220b;stroke-width:0.264583"
       id="path218-9-5"
       sodipodi:type="arc"
       sodipodi:cx="44.472519"
       sodipodi:cy="153.96498"
       sodipodi:rx="5.2072253"
       sodipodi:ry="6.3331118"
       sodipodi:start="0.017453293"
       sodipodi:end="0"
       sodipodi:open="true"
       sodipodi:arc-type="chord"
       d="m 49.678951,154.07551 a 5.2072253,6.3331118 0 0 1 -5.274593,6.22204 5.2072253,6.3331118 0 0 1 -5.138866,-6.38784 5.2072253,6.3331118 0 0 1 5.229748,-6.27778 5.2072253,6.3331118 0 0 1 5.184504,6.33305 z" />
    <path
       style="fill:#28220b;stroke-width:0.264583"
       id="path218-9-8"
       sodipodi:type="arc"
       sodipodi:cx="166.63121"
       sodipodi:cy="141.86169"
       sodipodi:rx="5.2072253"
       sodipodi:ry="6.3331118"
       sodipodi:start="0.017453293"
       sodipodi:end="0"
       sodipodi:open="true"
       sodipodi:arc-type="chord"
       d="m 171.83764,141.97222 a 5.2072253,6.3331118 0 0 1 -5.27459,6.22204 5.2072253,6.3331118 0 0 1 -5.13887,-6.38783 5.2072253,6.3331118 0 0 1 5.22975,-6.27779 5.2072253,6.3331118 0 0 1 5.18451,6.33305 z" />
    <path
       style="fill:#28220b;stroke-width:0.264583"
       id="path218-9-0"
       sodipodi:type="arc"
       sodipodi:cx="180.98625"
       sodipodi:cy="143.55052"
       sodipodi:rx="5.2072253"
       sodipodi:ry="6.3331118"
       sodipodi:start="0.017453293"
       sodipodi:end="0"
       sodipodi:open="true"
       sodipodi:arc-type="chord"
       d="m 186.19268,143.66105 a 5.2072253,6.3331118 0 0 1 -5.27459,6.22204 5.2072253,6.3331118 0 0 1 -5.13887,-6.38783 5.2072253,6.3331118 0 0 1 5.22975,-6.27779 5.2072253,6.3331118 0 0 1 5.18451,6.33305 z" />
    <path
       style="fill:#28220b;stroke-width:0.264583"
       id="path218-9-1"
       sodipodi:type="arc"
       sodipodi:cx="166.63121"
       sodipodi:cy="98.515068"
       sodipodi:rx="5.2072253"
       sodipodi:ry="6.3331118"
       sodipodi:start="0.017453293"
       sodipodi:end="0"
       sodipodi:open="true"
       sodipodi:arc-type="chord"
       d="m 171.83764,98.625596 a 5.2072253,6.3331118 0 0 1 -5.27459,6.222044 5.2072253,6.3331118 0 0 1 -5.13887,-6.387838 5.2072253,6.3331118 0 0 1 5.22975,-6.277785 5.2072253,6.3331118 0 0 1 5.18451,6.333051 z" />
    <path
       style="fill:#28220b;stroke-width:0.264583"
       id="path218-9-2"
       sodipodi:type="arc"
       sodipodi:cx="186.05275"
       sodipodi:cy="97.952126"
       sodipodi:rx="5.2072253"
       sodipodi:ry="6.3331118"
       sodipodi:start="0.017453293"
       sodipodi:end="0"
       sodipodi:open="true"
       sodipodi:arc-type="chord"
       d="m 191.25918,98.062654 a 5.2072253,6.3331118 0 0 1 -5.27459,6.222036 5.2072253,6.3331118 0 0 1 -5.13887,-6.387831 5.2072253,6.3331118 0 0 1 5.22975,-6.277785 5.2072253,6.3331118 0 0 1 5.1845,6.333052 z" />
    <path
       inkscape:transform-center-y="-1.7746642"
       inkscape:transform-center-x="0.43823909"
       d="M 41.939272,75.715866 28.011833,69.457753 14.960871,77.383025 16.608875,62.203381 5.0385244,52.240222 19.984485,49.116799 25.884578,35.033956 33.473686,48.283219 48.690494,49.542702 38.434859,60.85462 Z"
       inkscape:randomized="0"
       inkscape:rounded="0"
       inkscape:flatsided="false"
       sodipodi:arg2="1.5090787"
       sodipodi:arg1="0.88076021"
       sodipodi:r2="11.496488"
       sodipodi:r1="22.992975"
       sodipodi:cy="57.983156"
       sodipodi:cx="27.302748"
       sodipodi:sides="5"
       id="path919"
       style="fill:#ffe680;stroke-width:0.264583"
       sodipodi:type="star" />
    <path
       inkscape:transform-center-y="-1.2424734"
       inkscape:transform-center-x="0.027542968"
       d="m 174.5124,67.834663 -7.83664,-4.053103 -7.78156,4.157874 1.43307,-8.705568 -6.35901,-6.115852 8.72233,-1.327234 3.85148,-7.937679 3.95762,7.885293 8.73936,1.210096 -6.27639,6.200614 z"
       inkscape:randomized="0"
       inkscape:rounded="0"
       inkscape:flatsided="false"
       sodipodi:arg2="1.5640881"
       sodipodi:arg1="0.93576959"
       sodipodi:r2="6.6429691"
       sodipodi:r1="13.285938"
       sodipodi:cy="57.138741"
       sodipodi:cx="166.6312"
       sodipodi:sides="5"
       id="path923"
       style="fill:#ffe680;stroke-width:0.264583"
       sodipodi:type="star" />
    <path
       inkscape:transform-center-y="-1.3073892"
       inkscape:transform-center-x="-0.47050533"
       d="m 136.79522,255.57624 -10.33133,-6.57382 -11.27235,4.7839 3.05952,-11.8571 -8.03311,-9.24233 12.22221,-0.75427 6.30761,-10.49598 4.49423,11.39094 11.93143,2.75546 -9.44463,7.79425 z"
       inkscape:randomized="0"
       inkscape:rounded="0"
       inkscape:flatsided="false"
       sodipodi:arg2="1.6534598"
       sodipodi:arg1="1.0251413"
       sodipodi:r2="9.2200756"
       sodipodi:r1="18.440151"
       sodipodi:cy="239.81382"
       sodipodi:cx="127.22518"
       sodipodi:sides="5"
       id="path925"
       style="fill:#ffe680;stroke-width:0.264583"
       sodipodi:type="star" />
  </g>
</svg>
