<?xml version="1.0" encoding="UTF-8" standalone="no"?>
<svg
   xmlns:dc="http://purl.org/dc/elements/1.1/"
   xmlns:cc="http://creativecommons.org/ns#"
   xmlns:rdf="http://www.w3.org/1999/02/22-rdf-syntax-ns#"
   xmlns:svg="http://www.w3.org/2000/svg"
   xmlns="http://www.w3.org/2000/svg"
   xmlns:sodipodi="http://sodipodi.sourceforge.net/DTD/sodipodi-0.dtd"
   xmlns:inkscape="http://www.inkscape.org/namespaces/inkscape"
   width="210mm"
   height="297mm"
   viewBox="0 0 210 297"
   version="1.1"
   id="svg8"
   inkscape:version="1.0 (4035a4fb49, 2020-05-01)"
   sodipodi:docname="09d.svg">
  <defs
     id="defs2" />
  <sodipodi:namedview
     id="base"
     pagecolor="#ffffff"
     bordercolor="#666666"
     borderopacity="1.0"
     inkscape:pageopacity="0.0"
     inkscape:pageshadow="2"
     inkscape:zoom="0.94"
     inkscape:cx="400"
     inkscape:cy="555.21276"
     inkscape:document-units="mm"
     inkscape:current-layer="layer1"
     inkscape:document-rotation="0"
     showgrid="false"
     inkscape:window-width="1800"
     inkscape:window-height="1106"
     inkscape:window-x="-11"
     inkscape:window-y="-11"
     inkscape:window-maximized="1" />
  <metadata
     id="metadata5">
    <rdf:RDF>
      <cc:Work
         rdf:about="">
        <dc:format>image/svg+xml</dc:format>
        <dc:type
           rdf:resource="http://purl.org/dc/dcmitype/StillImage" />
        <dc:title />
      </cc:Work>
    </rdf:RDF>
  </metadata>
  <g
     inkscape:label="Livello 1"
     inkscape:groupmode="layer"
     id="layer1">
    <path
       style="fill:#c8beb7;stroke-width:0.264583"
       id="path10"
       sodipodi:type="arc"
       sodipodi:cx="53.057404"
       sodipodi:cy="104.84818"
       sodipodi:rx="41.517063"
       sodipodi:ry="40.109707"
       sodipodi:start="0.017453293"
       sodipodi:end="0"
       sodipodi:open="true"
       sodipodi:arc-type="chord"
       d="M 94.568143,105.54819 A 41.517063,40.109707 0 0 1 52.513962,144.95445 41.517063,40.109707 0 0 1 11.541921,104.49816 41.517063,40.109707 0 0 1 53.238555,64.738858 41.517063,40.109707 0 0 1 94.574467,104.84818 Z" />
    <path
       style="fill:#c8beb7;stroke-width:0.264583"
       id="path12"
       sodipodi:type="arc"
       sodipodi:cx="113.29234"
       sodipodi:cy="91.337547"
       sodipodi:rx="54.746231"
       sodipodi:ry="51.087101"
       sodipodi:start="0.017453293"
       sodipodi:end="0"
       sodipodi:open="true"
       sodipodi:arc-type="chord"
       d="M 168.03024,92.22914 A 54.746231,51.087101 0 0 1 112.57574,142.42027 54.746231,51.087101 0 0 1 58.548197,90.891734 54.746231,51.087101 0 0 1 113.53122,40.250933 54.746231,51.087101 0 0 1 168.03857,91.337547 Z" />
    <path
       style="fill:#c8beb7;stroke-width:0.330774"
       id="path14"
       sodipodi:type="arc"
       sodipodi:cx="169.72739"
       sodipodi:cy="102.31493"
       sodipodi:rx="39.968971"
       sodipodi:ry="37.857933"
       sodipodi:start="0.017453293"
       sodipodi:end="0"
       sodipodi:open="true"
       sodipodi:arc-type="chord"
       d="m 209.69027,102.97565 a 39.968971,37.857933 0 0 1 -40.48606,37.19397 39.968971,37.857933 0 0 1 -39.44427,-38.18505 39.968971,37.857933 0 0 1 40.14184,-37.527209 39.968971,37.857933 0 0 1 39.79458,37.857569 z" />
    <path
       style="fill:#afdde9;stroke-width:0.264583"
       id="path18"
       d="m 46.140674,152.90383 c -0.371444,1.09253 -0.805379,2.15904 -1.319549,3.19208 -0.490529,0.71766 -0.753189,1.52812 -1.042442,2.33458 -0.290235,0.78082 -0.441505,1.60327 -0.540264,2.42767 -0.0786,0.7731 -0.07631,1.54115 0.02604,2.31022 0.04173,0.79656 0.438373,1.37086 1.002353,1.89702 0.628282,0.49924 1.326872,0.89713 2.02773,1.28364 0.829416,0.4317 1.587566,0.97597 2.296496,1.58223 0.950026,0.94319 1.527722,2.1531 2.076069,3.35453 0.698061,1.4998 0.985734,3.1349 1.161124,4.76699 0.131691,1.0101 0.09392,2.00002 -0.183989,2.9771 -0.290676,0.72757 -0.532064,1.47208 -0.819531,2.20081 -0.438145,0.93031 -0.845606,1.87439 -1.261949,2.81469 -0.371475,0.7245 -0.601392,1.55224 -1.073861,2.22033 -0.05072,0.0805 -0.101449,0.1609 -0.152175,0.24135 0,0 3.82462,-1.68915 3.82462,-1.68915 v 0 c 0.04908,-0.0811 0.09816,-0.16214 0.147244,-0.24321 0.379465,-0.73109 0.681537,-1.50256 1.019463,-2.2532 0.42341,-0.94577 0.848424,-1.89086 1.264849,-2.8396 0.280463,-0.74727 0.581731,-1.48838 0.812593,-2.25275 0.226613,-1.02021 0.206891,-2.05525 0.07027,-3.08958 -0.216766,-1.66484 -0.536792,-3.33225 -1.23022,-4.87248 -0.562787,-1.26137 -1.164635,-2.51503 -2.135852,-3.52152 -0.708951,-0.64888 -1.485852,-1.21656 -2.333791,-1.67212 -0.68126,-0.35758 -1.334307,-0.76129 -1.963669,-1.20398 -0.550847,-0.48649 -0.807643,-0.88666 -0.856181,-1.6412 -0.08898,-0.73754 -0.06592,-1.47771 0.02032,-2.21552 0.108394,-0.80373 0.27963,-1.59713 0.582231,-2.35262 0.264089,-0.79616 0.613889,-1.5474 1.033309,-2.27529 0.503524,-1.06017 0.914718,-2.15862 1.328693,-3.25622 0,0 -3.779936,1.7752 -3.779936,1.7752 z" />
    <path
       style="fill:#afdde9;stroke-width:0.264583"
       id="path20"
       d="m 79.640585,144.49808 c -0.332735,1.11348 -0.908486,2.12103 -1.466419,3.13128 -0.571452,0.73663 -0.755999,1.62387 -0.870799,2.52563 -0.0136,0.64754 -0.160062,1.40542 -0.07522,2.04737 0.02389,0.1807 0.08459,0.3546 0.126894,0.5319 0.443338,1.29325 1.210233,2.42357 1.906741,3.58634 0.637302,1.05739 1.139571,2.17186 1.505611,3.34976 0.389261,1.23732 0.620046,2.51096 0.870204,3.78055 0.300607,1.47991 0.347734,2.99359 0.387411,4.49831 0.04578,1.35762 -0.329964,2.62511 -0.83267,3.86559 -0.280527,0.51269 -0.144801,0.26511 -0.407101,0.74279 0,0 3.79862,-1.7091 3.79862,-1.7091 v 0 c 0.246719,-0.48968 0.123243,-0.23116 0.367313,-0.77703 0.476102,-1.28655 0.789138,-2.61296 0.725591,-3.99705 -0.05355,-1.52776 -0.08506,-3.0679 -0.396029,-4.57013 -0.253949,-1.28392 -0.501509,-2.56833 -0.890793,-3.82052 -0.381146,-1.20633 -0.89285,-2.35297 -1.563159,-3.42796 -0.667327,-1.126 -1.428072,-2.21249 -1.813528,-3.47894 -0.132503,-0.81305 -0.0613,-1.64061 0.02238,-2.45755 0.137178,-0.86654 0.416097,-1.65807 0.921729,-2.38486 0.5617,-1.03753 1.093335,-2.09341 1.453578,-3.22105 0,0 -3.77036,1.78467 -3.77036,1.78467 z" />
    <path
       style="fill:#afdde9;stroke-width:0.264583"
       id="path22"
       d="m 142.23111,148.52548 c -0.13772,0.126 -0.28755,0.23994 -0.41317,0.37801 -0.19405,0.21328 -0.36214,0.4488 -0.54325,0.67316 -0.85205,1.05549 -1.62601,2.1436 -2.34938,3.29101 -0.73541,1.33943 -1.03045,2.83544 -1.27983,4.3258 -0.13329,1.27533 0.18468,2.4593 0.75269,3.58769 0.75226,1.24549 1.63318,2.408 2.51933,3.56021 0.40277,0.62725 0.81825,1.27414 1.06382,1.98428 0.18191,0.52607 0.22674,0.94869 0.32122,1.50394 0.26844,1.69771 0.22429,3.41002 0.13976,5.11907 -0.014,0.26478 -0.0281,0.52956 -0.0422,0.79434 0,0 3.66876,-1.8474 3.66876,-1.8474 v 0 c 0.0111,-0.26388 0.0222,-0.52775 0.0333,-0.79162 0.0662,-1.73602 0.11623,-3.47197 -0.18102,-5.19342 -0.0908,-0.566 -0.14618,-1.08115 -0.33041,-1.62479 -0.25084,-0.74019 -0.71475,-1.4039 -1.12598,-2.05889 -0.88572,-1.11693 -1.75426,-2.25554 -2.48096,-3.48404 -0.50911,-1.06393 -0.78953,-2.17742 -0.6246,-3.36514 0.23859,-1.44312 0.55246,-2.88392 1.30809,-4.15743 0.98466,-1.54265 2.05709,-3.0572 3.42011,-4.29211 0,0 -3.8563,1.59733 -3.8563,1.59733 z" />
    <path
       style="fill:#afdde9;stroke-width:0.264583"
       id="path24"
       d="m 123.78602,152.78497 c -2.34955,1.03076 -4.72314,2.31902 -6.51025,4.2058 -0.66257,0.69952 -0.9055,1.10924 -1.45203,1.89276 -0.83502,1.32558 -1.39831,2.80795 -1.59331,4.3687 -0.11289,0.90356 -0.0402,1.39682 0.0175,2.28997 0.37813,2.2304 1.40152,4.24933 2.45257,6.22549 0.8821,1.63768 1.65438,3.33119 2.41077,5.0296 0.41538,1.03238 0.87188,2.13018 0.76924,3.26994 -0.0207,0.22974 -0.0822,0.45394 -0.12334,0.68092 -0.35217,0.93721 -0.70951,1.91969 -1.30694,2.73601 -0.171,0.23364 -0.81166,0.92887 -1.00674,1.14397 -0.1527,0.17352 -0.30541,0.34703 -0.45812,0.52055 0,0 3.79855,-1.60282 3.79855,-1.60282 v 0 c 0.14968,-0.1716 0.29936,-0.3432 0.44904,-0.5148 0.35486,-0.41196 0.67428,-0.75593 0.9736,-1.21359 0.57259,-0.87546 0.96364,-1.88339 1.2477,-2.88342 0.0311,-0.24806 0.082,-0.49443 0.0931,-0.74418 0.0533,-1.19734 -0.39044,-2.33236 -0.86259,-3.40714 -0.76638,-1.70274 -1.56252,-3.39647 -2.45827,-5.03524 -1.03041,-1.92208 -2.02664,-3.89341 -2.36728,-6.07281 -0.0197,-0.3533 -0.0621,-0.70606 -0.059,-1.05989 0.0169,-1.92187 0.69904,-3.75052 1.74287,-5.34358 0.71692,-0.97278 1.43189,-1.8335 2.3744,-2.60129 0.28273,-0.23032 1.20624,-0.81133 0.87768,-0.6531 -0.79974,0.38513 -4.12245,2.27919 -2.30692,1.33018 0,0 3.29777,-2.56203 3.29777,-2.56203 z" />
    <path
       style="fill:#afdde9;stroke-width:0.264583"
       id="path26"
       d="m 192.07097,160.76109 c -1.09092,1.59105 -2.03623,3.27 -2.75488,5.06023 -0.59969,1.60874 -0.82184,3.15643 -0.78888,4.86001 0.0964,1.59212 0.83998,3.03471 1.5199,4.44664 0.75355,1.42645 1.26737,2.94052 1.54934,4.52472 0.18579,2.04172 -0.41968,4.06185 -0.88251,6.0327 -0.35611,1.39706 -0.62343,2.81356 -0.92016,4.22366 0,0 3.68139,-1.78415 3.68139,-1.78415 v 0 c 0.27176,-1.40072 0.52745,-2.80511 0.87951,-4.1888 0.48796,-2.02951 1.11443,-4.10769 0.86735,-6.21403 -0.3026,-1.6165 -0.84021,-3.15974 -1.61166,-4.61648 -0.65904,-1.36086 -1.33816,-2.76288 -1.41494,-4.29928 -0.0101,-1.60676 0.22512,-3.18679 0.81948,-4.69069 0.75663,-1.78162 1.71494,-3.461 2.8736,-5.01451 0,0 -3.81754,1.65998 -3.81754,1.65998 z" />
    <path
       style="fill:#afdde9;stroke-width:0.264583"
       id="path28"
       d="m 166.65286,181.35218 c -0.32696,1.31798 -0.81303,2.58934 -1.13215,3.91017 -0.19512,0.80759 -0.35979,1.74859 -0.51233,2.56735 -0.36884,1.63227 -0.39248,3.28758 -0.32816,4.9486 0.13001,1.40486 0.014,2.7991 -0.15942,4.19256 -0.26906,0.94676 -0.0838,0.45426 -0.59489,1.46215 0,0 3.72044,-1.69062 3.72044,-1.69062 v 0 c 0.50572,-1.11196 0.32999,-0.57338 0.57304,-1.60004 0.16755,-1.41188 0.22869,-2.83022 0.13082,-4.25111 -0.0569,-1.61956 -0.0488,-3.23421 0.29155,-4.82968 0.19574,-1.0603 0.25373,-1.47355 0.52674,-2.53397 0.34807,-1.352 0.85685,-2.65155 1.24697,-3.99004 0,0 -3.76261,1.81463 -3.76261,1.81463 z" />
    <path
       style="fill:#afdde9;stroke-width:0.264583"
       id="path30"
       d="m 107.64179,203.22949 c 0.069,2.08858 0.0464,4.17897 0.0304,6.26827 0,0 3.64049,-1.85493 3.64049,-1.85493 v 0 c -0.0162,-2.09964 -0.0379,-4.20033 0.0304,-6.29928 0,0 -3.70135,1.88594 -3.70135,1.88594 z" />
    <path
       style="fill:#afdde9;stroke-width:0.264583"
       id="path32"
       d="m 88.138906,194.55511 c -1.082611,1.68714 -1.750401,3.58312 -2.076442,5.55601 -0.08011,0.48473 -0.123081,0.97487 -0.184621,1.46231 -0.233375,2.30452 0.0908,4.5996 0.396045,6.87914 0.195061,1.16518 0.248504,1.87065 -0.226388,2.95863 -0.08175,0.16528 -0.16351,0.33056 -0.245264,0.49584 0,0 3.769037,-1.71442 3.769037,-1.71442 v 0 c 0.07984,-0.17493 0.159674,-0.34987 0.239512,-0.5248 0.396724,-1.12164 0.333541,-1.97459 0.09698,-3.1333 -0.349052,-2.22821 -0.696574,-4.47345 -0.431805,-6.73465 0.06739,-0.478 0.113937,-0.9594 0.202173,-1.43399 0.363003,-1.95252 1.077603,-3.84711 2.281706,-5.43826 0,0 -3.820933,1.62749 -3.820933,1.62749 z" />
    <path
       style="fill:#afdde9;stroke-width:0.264583"
       id="path34"
       d="m 71.286247,189.63822 c -0.369183,2.31654 -0.689326,4.64116 -0.987959,6.96782 -0.112149,0.85972 -0.201557,1.72198 -0.284316,2.58492 0,0 3.687874,-1.84008 3.687874,-1.84008 v 0 c 0.06172,-0.84761 0.129373,-1.69484 0.227811,-2.53918 0.280234,-2.35547 0.606012,-4.70794 1.082003,-7.03283 0,0 -3.725413,1.85935 -3.725413,1.85935 z" />
    <path
       style="fill:#afdde9;stroke-width:0.264583"
       id="path36"
       d="m 143.85366,197.11459 c -0.34965,2.61974 -0.41278,5.26956 -0.52777,7.90741 -0.0867,2.21456 -0.16616,4.42949 -0.21069,6.64534 0,0 3.67891,-1.87124 3.67891,-1.87124 v 0 c -0.0136,-2.18756 -10e-4,-4.37557 0.0774,-6.562 0.10713,-2.65134 0.19587,-5.32997 0.74472,-7.93414 0,0 -3.76261,1.81463 -3.76261,1.81463 z" />
    <path
       style="fill:#afdde9;stroke-width:0.264583"
       id="path38"
       d="m 102.39897,166.43571 c -1.24464,2.41764 -2.3463,4.89415 -3.212694,7.47152 -0.4207,1.49549 -0.858083,3.01259 -0.927279,4.57461 -0.02774,0.62632 0.01611,1.08099 0.05451,1.70077 0.137158,1.01034 0.05157,0.51 0.255987,1.50115 0,0 3.628556,-1.9408 3.628556,-1.9408 v 0 c -0.18871,-0.95695 -0.10939,-0.47477 -0.23749,-1.44661 -0.0342,-0.5743 -0.0782,-1.05541 -0.0488,-1.63354 0.0773,-1.51934 0.48961,-3.00235 0.9018,-4.45722 0.88786,-2.61099 2.04275,-5.10266 3.37002,-7.52023 0,0 -3.78465,1.75035 -3.78465,1.75035 z" />
    <path
       style="fill:#afdde9;stroke-width:0.264583"
       id="path40"
       d="m 42.624001,198.75851 c 0.07725,2.15594 0.04882,4.314 0.02225,6.47066 0,0 3.652549,-1.86107 3.652549,-1.86107 v 0 c -0.02701,-2.16422 -0.05414,-4.32978 0.02225,-6.49332 0,0 -3.697033,1.88373 -3.697033,1.88373 z" />
    <path
       style="fill:#afdde9;stroke-width:0.264583"
       id="path42"
       d="m 25.029462,156.65231 c -1.760626,1.59464 -3.22374,3.5506 -4.426679,5.596 -0.289649,0.49251 -0.537162,1.00861 -0.805743,1.51291 -1.327117,2.88585 -1.866287,5.98507 -2.091649,9.1266 -0.13135,2.10671 -0.129376,4.21802 -0.119726,6.32773 0,0 3.602104,-1.83643 3.602104,-1.83643 v 0 c -2.2e-4,-2.09564 -0.01479,-4.19317 0.108253,-6.28618 0.254311,-3.08655 0.75292,-6.147 2.129574,-8.95967 0.269914,-0.49301 0.519674,-0.99761 0.809743,-1.47904 1.241974,-2.06133 2.762019,-4.04182 4.667318,-5.52755 0,0 -3.873195,1.52563 -3.873195,1.52563 z" />
    <path
       style="fill:#afdde9;stroke-width:0.264583"
       id="path44"
       d="m 23.191648,204.78805 c 0.04359,1.54736 -0.05931,3.0955 -0.131113,4.64081 0,0 3.641786,-1.83623 3.641786,-1.83623 v 0 c 0.05971,-1.56699 0.145958,-3.13266 0.207981,-4.69933 0,0 -3.718654,1.89475 -3.718654,1.89475 z" />
    <path
       style="fill:#afdde9;stroke-width:0.264583"
       id="path46"
       d="m 33.045318,178.92523 c 0.0844,2.44085 0.07438,4.88362 0.06209,7.3255 0.0373,1.65167 -0.16002,3.31501 0.0778,4.956 0,0 3.662175,-1.93206 3.662175,-1.93206 v 0 c -0.226894,-1.60523 -0.07887,-3.23792 -0.149823,-4.85321 -0.01246,-2.46298 -0.02122,-4.92679 0.06209,-7.38878 0,0 -3.714329,1.89255 -3.714329,1.89255 z" />
    <path
       style="fill:#afdde9;stroke-width:0.264583"
       id="path48"
       d="m 58.564438,216.90783 c -0.375068,2.41884 -0.663332,4.84652 -0.839129,7.28776 -0.09399,1.6206 0.01389,3.24403 0.521867,4.78992 0.06935,0.36793 0.557083,1.25284 0.540988,1.60918 -0.0038,0.0838 -0.07557,0.14987 -0.11336,0.2248 0,0 3.758953,-1.81897 3.758953,-1.81897 v 0 c 0.0058,-0.13401 0.03272,-0.26878 0.0173,-0.40202 -0.06486,-0.56059 -0.447188,-1.06753 -0.579342,-1.60853 -0.497104,-1.48298 -0.596585,-3.05102 -0.523978,-4.60771 0.172963,-2.44548 0.436295,-4.88552 0.918607,-7.29174 0,0 -3.701913,1.81731 -3.701913,1.81731 z" />
    <path
       style="fill:#afdde9;stroke-width:0.264583"
       id="path50"
       d="m 35.85787,228.71314 c 0.06889,2.64409 0.08588,5.29039 0.09917,7.93548 -0.0013,1.76463 -0.0029,3.52913 -0.0159,5.2937 0,0 3.552121,-1.8099 3.552121,-1.8099 v 0 c -0.0131,-1.75917 -0.01455,-3.51827 -0.0159,-5.27749 0.01339,-2.67878 0.03086,-5.35872 0.09917,-8.03654 0,0 -3.718656,1.89475 -3.718656,1.89475 z" />
    <path
       style="fill:#afdde9;stroke-width:0.264583"
       id="path52"
       d="m 77.526482,222.96507 c 0.103209,2.96994 0.07692,5.94346 0.06388,8.91483 0.05348,1.7433 -0.136729,3.49646 -0.02426,5.2376 0,0 3.685161,-1.90924 3.685161,-1.90924 v 0 c -0.122028,-1.71113 -0.03121,-3.43352 -0.09161,-5.147 -0.0132,-2.99309 -0.03827,-5.98821 0.06388,-8.97992 0,0 -3.697034,1.88373 -3.697034,1.88373 z" />
    <path
       style="fill:#afdde9;stroke-width:0.264583"
       id="path54"
       d="m 103.65549,227.35541 c -0.10967,2.44046 -0.10522,4.88358 -0.13217,7.32598 -0.0395,2.43531 -0.0577,4.87084 -0.0738,7.30639 -0.0135,3.14244 0.004,-1.31714 -0.004,1.81047 -8e-4,0.27632 0.0806,0.56607 -0.005,0.82894 -0.0597,0.18421 -0.26689,0.28062 -0.40033,0.42092 0,0 3.78363,-1.6622 3.78363,-1.6622 v 0 c 0.0908,-0.20719 0.23126,-0.39912 0.27238,-0.62155 0.0499,-0.27007 -0.004,-0.54927 -0.005,-0.82391 -0.001,-0.30075 -2.5e-4,-0.6015 -2.7e-4,-0.90224 -0.001,-0.30126 -0.002,-0.60252 -0.004,-0.90378 -0.0126,-2.42006 -0.0202,-4.84019 -0.007,-7.26028 0.032,-2.46089 0.0683,-4.92631 0.30011,-7.37808 0,0 -3.72542,1.85934 -3.72542,1.85934 z" />
    <path
       style="fill:#afdde9;stroke-width:0.264583"
       id="path56"
       d="m 89.815182,230.0834 c -0.407339,2.24932 -0.72894,4.51333 -0.986615,6.78483 -0.407742,3.03101 -0.608656,6.08247 -0.770562,9.13483 -0.0092,0.97717 -0.133131,1.9592 -0.0572,2.93704 0.07188,0.92576 0.265813,1.85592 0.398132,2.77463 0.267157,1.78826 0.399827,3.61726 0.015,5.40074 -0.08297,0.38452 -0.211383,0.75782 -0.317074,1.13673 -0.563493,1.90963 -1.702141,3.53033 -2.959983,5.04229 0,0 3.776675,-1.61153 3.776675,-1.61153 v 0 c 1.225908,-1.56498 2.32341,-3.22854 2.837744,-5.1752 0.09862,-0.39293 0.219853,-0.78088 0.29586,-1.1788 0.347776,-1.82082 0.247054,-3.70145 -0.03476,-5.52185 -0.280101,-1.89394 -0.512998,-3.70001 -0.343279,-5.62377 0.109593,-3.03805 0.319339,-6.07132 0.738508,-9.08421 0.300524,-2.29183 0.63496,-4.58384 1.162021,-6.83629 0,0 -3.754464,1.82056 -3.754464,1.82056 z" />
    <path
       style="fill:#afdde9;stroke-width:0.264583"
       id="path58"
       d="m 123.2178,219.31719 c -0.45451,1.66781 -0.86468,3.34703 -1.26585,5.02829 0,0 3.63297,-1.74655 3.63297,-1.74655 v 0 c 0.39445,-1.7006 0.80634,-3.39914 1.37035,-5.0533 0,0 -3.73747,1.77156 -3.73747,1.77156 z" />
    <path
       style="fill:#afdde9;stroke-width:0.264583"
       id="path60"
       d="m 126.77753,198.37934 c 0.10104,2.7117 0.0524,5.42585 0.26515,8.13352 0.0538,0.6852 0.13652,1.36783 0.20478,2.05175 0.19333,1.58725 0.42203,3.16762 0.94298,4.68543 0.48398,1.41007 1.1789,2.7147 1.87507,4.02695 1.34407,2.44306 2.54035,4.97348 3.2975,7.66168 0.44,2.35616 -0.59477,4.5252 -1.60475,6.58884 -0.53234,1.03764 -0.97841,2.11246 -1.39889,3.19868 0,0 3.69664,-1.71484 3.69664,-1.71484 v 0 c 0.41262,-1.06862 0.84951,-2.12661 1.36892,-3.1491 1.03088,-2.16992 2.04667,-4.41899 1.50881,-6.87295 -0.81839,-2.69583 -2.08902,-5.20911 -3.3973,-7.69722 -0.50067,-0.96893 -0.88461,-1.66712 -1.31203,-2.66356 -0.80507,-1.87685 -1.25303,-3.85769 -1.49662,-5.88194 -0.0701,-0.67575 -0.15996,-1.34976 -0.21043,-2.02727 -0.20398,-2.73811 -0.1031,-5.48947 -0.0298,-8.23032 0,0 -3.71001,1.89035 -3.71001,1.89035 z" />
    <path
       style="fill:#afdde9;stroke-width:0.264583"
       id="path62"
       d="m 182.76951,214.70874 c -2.03879,3.14982 -3.76093,6.4788 -5.41134,9.84331 -0.87003,1.88694 -1.77647,3.7922 -2.25703,5.8262 -0.18052,0.76407 -0.24568,1.43627 -0.34354,2.21038 -0.0995,0.88949 -0.0796,1.78359 -0.22334,2.66847 -0.0387,0.23847 -0.1755,1.03592 -0.36724,1.2595 -0.16271,0.18972 -0.41277,0.28193 -0.61915,0.4229 0,0 3.80491,-1.55017 3.80491,-1.55017 v 0 c 0.18574,-0.208 0.4137,-0.38489 0.55721,-0.62399 0.10982,-0.18296 0.13755,-0.40479 0.18514,-0.61281 0.25286,-1.10523 0.17679,-2.24589 0.31107,-3.36475 0.1195,-0.91951 0.13631,-1.2301 0.35528,-2.14878 0.47245,-1.98212 1.30552,-3.85497 2.15202,-5.6992 1.67142,-3.42564 3.481,-6.77468 5.63201,-9.92749 0,0 -3.776,1.69643 -3.776,1.69643 z" />
    <path
       style="fill:#afdde9;stroke-width:0.264583"
       id="path64"
       d="m 170.57765,212.25224 c -2.43824,1.39873 -3.75324,1.70432 -5.33205,3.4105 -1.63638,1.7684 -2.39794,3.52807 -3.22721,5.74379 -1.01194,2.85767 -0.87285,5.9236 -0.97806,8.9089 0.006,1.37252 -0.1932,2.72465 -0.86315,3.93975 -0.33112,0.60059 -0.61979,0.93255 -1.03609,1.47269 -0.7111,0.82394 -0.35088,0.44039 -1.0746,1.15631 0,0 3.80004,-1.58164 3.80004,-1.58164 v 0 c 0.68945,-0.74643 0.34402,-0.34933 1.03088,-1.19595 0.42266,-0.5929 0.67582,-0.89595 0.99631,-1.55687 0.61436,-1.26695 0.7686,-2.66081 0.74027,-4.05288 0.0587,-2.94578 -0.0133,-5.95555 0.99961,-8.76934 0.1958,-0.50342 0.36604,-1.01755 0.5874,-1.51026 0.67827,-1.50968 1.56633,-2.91442 2.75812,-4.07333 0.3204,-0.31156 1.45052,-1.01544 1.03401,-0.85343 -0.96273,0.37447 -1.80601,1.0033 -2.70901,1.50496 0,0 3.27353,-2.5432 3.27353,-2.5432 z" />
    <path
       style="fill:#afdde9;stroke-width:0.264583"
       id="path66"
       d="m 171.39555,155.1556 c -0.47273,2.97821 -0.63123,6.00739 -0.62277,9.01996 0.0233,1.35692 0.12271,2.71023 0.22471,4.06284 0,0 3.60239,-1.87475 3.60239,-1.87475 v 0 c -0.12915,-1.326 -0.26665,-2.65224 -0.30438,-3.98505 -0.0193,-3.00814 0.13599,-6.07198 0.87998,-8.9982 0,0 -3.77993,1.7752 -3.77993,1.7752 z" />
    <path
       style="fill:#afdde9;stroke-width:0.264583"
       id="path68"
       d="m 200.4434,229.19698 c -2.03492,1.71273 -3.42607,4.01504 -4.70473,6.31022 -1.47538,2.93341 -2.1262,6.13352 -2.59256,9.35449 0,0 3.62935,-1.78787 3.62935,-1.78787 v 0 c 0.40385,-3.17913 1.08489,-6.31725 2.58395,-9.18211 1.32346,-2.29465 2.7792,-4.64481 4.97763,-6.20502 0,0 -3.89364,1.51029 -3.89364,1.51029 z" />
    <path
       style="fill:#afdde9;stroke-width:0.264583"
       id="path70"
       d="m 139.14836,242.06388 c -1.21963,1.49331 -2.17903,3.18497 -2.78596,5.01974 -0.13558,0.40986 -0.2265,0.83316 -0.33975,1.24973 -0.29895,1.93848 0.0496,3.8668 0.39757,5.77082 0,0 3.60922,-1.9267 3.60922,-1.9267 v 0 c -0.3754,-1.8379 -0.71593,-3.70454 -0.35998,-5.57811 0.11701,-0.40273 0.21282,-0.81224 0.35103,-1.2082 0.64392,-1.84479 1.67702,-3.50221 2.9573,-4.96957 0,0 -3.82943,1.64229 -3.82943,1.64229 z" />
    <path
       style="fill:#afdde9;stroke-width:0.264583"
       id="path72"
       d="m 112.61438,247.81612 c -0.12119,0.92647 -0.21941,1.87612 -0.48041,2.77742 -0.0836,0.28866 -0.32858,0.90525 -0.43995,1.1933 -0.42024,0.8765 -0.86695,1.73541 -1.46305,2.50537 0,0 3.80662,-1.64869 3.80662,-1.64869 v 0 c 0.55117,-0.81936 1.01977,-1.69093 1.40361,-2.60149 0.4682,-1.32172 0.70257,-2.66508 0.92765,-4.04648 0,0 -3.75447,1.82057 -3.75447,1.82057 z" />
    <path
       style="fill:#afdde9;stroke-width:0.264583"
       id="path74"
       d="m 172.0741,247.64929 c -1.19295,1.62776 -2.05167,3.46433 -2.71723,5.36077 -0.62729,1.8698 -0.37257,3.5684 0.0589,5.43712 0,0 3.60778,-1.94378 3.60778,-1.94378 v 0 c -0.43565,-1.84328 -0.59571,-3.38693 0.0305,-5.22144 0.67263,-1.88521 1.55189,-3.72214 2.86231,-5.25426 0,0 -3.84231,1.62159 -3.84231,1.62159 z" />
    <path
       style="fill:#afdde9;stroke-width:0.264583"
       id="path76"
       d="m 50.010464,240.76782 c -0.468498,0.9149 -0.764299,1.91014 -0.974645,2.91351 -0.06164,0.29403 -0.140346,0.58709 -0.160653,0.88682 -0.02228,0.32864 0.02244,0.65842 0.03365,0.98763 0.123616,1.70994 1.138812,3.0855 2.021229,4.48485 0.213807,0.43908 0.583753,0.90997 0.616185,1.42136 0.01408,0.22204 -0.06897,0.33384 -0.159411,0.52407 -0.446852,0.87259 -1.16154,1.57755 -1.804551,2.30865 -0.614225,0.65576 -1.410182,1.09283 -2.181164,1.53656 -0.102976,0.0647 -0.205952,0.12941 -0.308928,0.19412 0,0 3.88824,-1.50612 3.88824,-1.50612 v 0 c 0.102836,-0.0626 0.205674,-0.12521 0.308512,-0.18781 0.761736,-0.47582 1.539547,-0.93412 2.109883,-1.6479 0.663739,-0.7655 1.410189,-1.51194 1.765004,-2.48078 0.174558,-0.90489 -0.194099,-1.49631 -0.662866,-2.24865 -0.878938,-1.31702 -1.86975,-2.60875 -1.954874,-4.25715 0.0036,-0.30609 -0.02066,-0.61378 0.01071,-0.91829 0.134803,-1.30906 0.667589,-2.57375 1.240568,-3.74109 0,0 -3.786886,1.73022 -3.786886,1.73022 z" />
    <path
       style="fill:#afdde9;stroke-width:0.264583"
       id="path78"
       d="m 70.67511,243.31257 c -0.313404,1.53529 -0.493847,3.0912 -0.623223,4.65133 -0.01569,0.91049 -0.03929,1.83857 0.18755,2.72933 0.118594,0.46572 0.268965,0.7903 0.449789,1.23319 0.394012,0.80049 0.932815,1.56198 1.046207,2.46553 -2.64e-4,0.32743 0.0284,0.1784 -0.06681,0.45041 0,0 3.765142,-1.8342 3.765142,-1.8342 v 0 c 0.02381,-0.37465 0.02598,-0.18226 -0.01151,-0.57708 -0.202655,-0.91308 -0.679464,-1.70819 -1.127914,-2.51939 -0.1744,-0.43703 -0.298759,-0.70093 -0.407051,-1.15944 -0.202607,-0.85786 -0.183782,-1.74913 -0.159959,-2.62309 0.128283,-1.55957 0.311018,-3.11841 0.702239,-4.63715 0,0 -3.754464,1.82056 -3.754464,1.82056 z" />
    <path
       style="fill:#afdde9;stroke-width:0.264583"
       id="path80"
       d="m 22.453179,223.55871 c -1.716289,2.2173 -3.594617,4.36098 -4.848742,6.89114 -0.30464,0.6146 -0.5445,1.25924 -0.81675,1.88886 -0.747883,1.96702 -1.452109,4.00893 -1.44975,6.13997 0.0011,1.00882 0.09059,1.22944 0.279073,2.198 0.228907,0.93025 0.562366,1.82899 0.877448,2.73207 0,0 3.584464,-1.98416 3.584464,-1.98416 v 0 c -0.321128,-0.87756 -0.651457,-1.75407 -0.870465,-2.66453 -0.06345,-0.33496 -0.148992,-0.66648 -0.190346,-1.00488 -0.297462,-2.43409 0.472812,-4.81221 1.339834,-7.05177 0.280881,-0.61823 0.529712,-1.25204 0.842645,-1.85469 1.31641,-2.53512 3.210388,-4.73632 5.077185,-6.87421 0,0 -3.824596,1.5842 -3.824596,1.5842 z" />
    <path
       style="fill:#afdde9;stroke-width:0.264583"
       id="path82"
       d="m 32.848513,211.8325 c 0.385325,1.51677 0.921633,2.97689 1.580237,4.39472 0.858829,1.59609 1.851845,3.12203 3.033551,4.49722 0.583742,0.6973 1.316133,1.27144 1.848035,2.01385 0.253923,0.35442 0.29909,0.50726 0.471868,0.89617 0.331447,1.14836 0.322149,2.36307 0.424138,3.54761 0.015,0.18358 0.03,0.36716 0.045,0.55073 0,0 3.67429,-1.91341 3.67429,-1.91341 v 0 c -0.01757,-0.1823 -0.03512,-0.36461 -0.05268,-0.54691 -0.113969,-1.2293 -0.09093,-2.49497 -0.478877,-3.67824 -0.189786,-0.40332 -0.268854,-0.61846 -0.537446,-0.98697 -0.539604,-0.74034 -1.285536,-1.30852 -1.871935,-2.0078 -1.173768,-1.33282 -2.18323,-2.80373 -2.999121,-4.38325 -0.64431,-1.39741 -1.157256,-2.84829 -1.457383,-4.36112 0,0 -3.679671,1.9774 -3.679671,1.9774 z" />
    <path
       style="fill:#afdde9;stroke-width:0.264583"
       id="path84"
       d="m 27.310035,182.22938 c -2.324631,1.75705 -4.137243,4.0654 -5.929226,6.33611 -1.953926,2.65934 -2.849278,5.84038 -3.720428,8.97118 -0.458377,1.61947 -1.75288,2.61627 -2.963327,3.67743 -0.572835,0.50032 -1.002244,1.11697 -1.42115,1.7432 0,0 3.78218,-1.64614 3.78218,-1.64614 v 0 c 0.429673,-0.59454 0.876387,-1.17197 1.444016,-1.64578 1.272404,-1.13375 2.404316,-2.13479 2.813911,-3.87289 0.790809,-3.10225 1.736871,-6.1989 3.706865,-8.7851 1.830184,-2.30174 3.714186,-4.62853 6.170091,-6.29729 0,0 -3.882932,1.51928 -3.882932,1.51928 z" />
    <path
       style="fill:#afdde9;stroke-width:0.264583"
       id="path86"
       d="m 63.730049,153.37644 c 0.163497,2.35767 0.258882,4.71899 0.45162,7.07482 0.333084,1.95434 0.687282,3.91278 1.336006,5.79015 0.26567,0.79851 0.708744,1.52474 1.004379,2.30994 0.182113,0.48369 0.211423,0.68332 0.329848,1.18798 0.22334,1.16465 0.322853,2.352 0.144542,3.52702 -0.04437,0.17325 -0.08875,0.34651 -0.13312,0.51976 0,0 3.732443,-1.79702 3.732443,-1.79702 v 0 c 0.03785,-0.18542 0.07569,-0.37085 0.113538,-0.55628 0.124471,-1.22189 0.03503,-2.45312 -0.223173,-3.65446 -0.12505,-0.50935 -0.171189,-0.76614 -0.358596,-1.25654 -0.295518,-0.77332 -0.73787,-1.48807 -1.004874,-2.27445 -0.662821,-1.82864 -1.054296,-3.74378 -1.355365,-5.66218 -0.214924,-2.35927 -0.31714,-4.72793 -0.331568,-7.09688 0,0 -3.70568,1.88814 -3.70568,1.88814 z" />
    <path
       transform="scale(1,-1)"
       d="M 104.28325,-87.603001 A 13.088431,12.384751 0 0 1 91.025486,-75.435455 13.088431,12.384751 0 0 1 78.108875,-87.927221 13.088431,12.384751 0 0 1 91.253917,-100.20378 13.088431,12.384751 0 0 1 104.28524,-87.819145 Z"
       sodipodi:arc-type="chord"
       sodipodi:open="true"
       sodipodi:end="0"
       sodipodi:start="0.017453293"
       sodipodi:ry="12.384751"
       sodipodi:rx="13.088431"
       sodipodi:cy="-87.819145"
       sodipodi:cx="91.196808"
       sodipodi:type="arc"
       id="path201"
       style="fill:#ffffff;stroke-width:0.264583" />
    <path
       transform="scale(1,-1)"
       d="m 132.99335,-88.728886 a 13.088431,12.384751 0 0 1 -13.25776,12.167546 13.088431,12.384751 0 0 1 -12.91661,-12.491766 13.088431,12.384751 0 0 1 13.14504,-12.276554 13.088431,12.384751 0 0 1 13.03133,12.38463 z"
       sodipodi:arc-type="chord"
       sodipodi:open="true"
       sodipodi:end="0"
       sodipodi:start="0.017453293"
       sodipodi:ry="12.384751"
       sodipodi:rx="13.088431"
       sodipodi:cy="-88.94503"
       sodipodi:cx="119.90691"
       sodipodi:type="arc"
       id="path201-8"
       style="fill:#ffffff;stroke-width:0.264583" />
    <path
       d="m 98.65501,91.870278 a 5.2072253,6.3331118 0 0 1 -5.274593,6.222042 5.2072253,6.3331118 0 0 1 -5.138866,-6.387836 5.2072253,6.3331118 0 0 1 5.229748,-6.277785 5.2072253,6.3331118 0 0 1 5.184504,6.333051 z"
       sodipodi:arc-type="chord"
       sodipodi:open="true"
       sodipodi:end="0"
       sodipodi:start="0.017453293"
       sodipodi:ry="6.3331118"
       sodipodi:rx="5.2072253"
       sodipodi:cy="91.75975"
       sodipodi:cx="93.448578"
       sodipodi:type="arc"
       id="path218"
       style="fill:#28220b;stroke-width:0.264583" />
    <path
       d="m 129.05395,93.277635 a 5.2072253,6.3331118 0 0 1 -5.27459,6.222041 5.2072253,6.3331118 0 0 1 -5.13887,-6.387835 5.2072253,6.3331118 0 0 1 5.22975,-6.277786 5.2072253,6.3331118 0 0 1 5.1845,6.333052 z"
       sodipodi:arc-type="chord"
       sodipodi:open="true"
       sodipodi:end="0"
       sodipodi:start="0.017453293"
       sodipodi:ry="6.3331118"
       sodipodi:rx="5.2072253"
       sodipodi:cy="93.167107"
       sodipodi:cx="123.84752"
       sodipodi:type="arc"
       id="path218-1"
       style="fill:#28220b;stroke-width:0.264583" />
  </g>
</svg>
