<?xml version="1.0" encoding="UTF-8" standalone="no"?>
<svg
   xmlns:dc="http://purl.org/dc/elements/1.1/"
   xmlns:cc="http://creativecommons.org/ns#"
   xmlns:rdf="http://www.w3.org/1999/02/22-rdf-syntax-ns#"
   xmlns:svg="http://www.w3.org/2000/svg"
   xmlns="http://www.w3.org/2000/svg"
   xmlns:sodipodi="http://sodipodi.sourceforge.net/DTD/sodipodi-0.dtd"
   xmlns:inkscape="http://www.inkscape.org/namespaces/inkscape"
   sodipodi:docname="13d.svg"
   inkscape:version="1.0 (4035a4fb49, 2020-05-01)"
   id="svg8"
   version="1.1"
   viewBox="0 0 210 297"
   height="297mm"
   width="210mm">
  <defs
     id="defs2" />
  <sodipodi:namedview
     inkscape:window-maximized="1"
     inkscape:window-y="-11"
     inkscape:window-x="-11"
     inkscape:window-height="1106"
     inkscape:window-width="1800"
     showgrid="false"
     inkscape:document-rotation="0"
     inkscape:current-layer="layer1"
     inkscape:document-units="mm"
     inkscape:cy="474.89362"
     inkscape:cx="296.97284"
     inkscape:zoom="0.94"
     inkscape:pageshadow="2"
     inkscape:pageopacity="0.0"
     borderopacity="1.0"
     bordercolor="#666666"
     pagecolor="#ffffff"
     id="base" />
  <metadata
     id="metadata5">
    <rdf:RDF>
      <cc:Work
         rdf:about="">
        <dc:format>image/svg+xml</dc:format>
        <dc:type
           rdf:resource="http://purl.org/dc/dcmitype/StillImage" />
        <dc:title></dc:title>
      </cc:Work>
    </rdf:RDF>
  </metadata>
  <g
     id="layer1"
     inkscape:groupmode="layer"
     inkscape:label="Livello 1">
    <path
       d="M 95.130829,116.7039 A 43.205894,34.198803 0 0 1 51.365967,150.30292 43.205894,34.198803 0 0 1 8.7272654,115.80861 43.205894,34.198803 0 0 1 52.120035,81.908571 43.205894,34.198803 0 0 1 95.137409,116.10705 Z"
       sodipodi:arc-type="chord"
       sodipodi:open="true"
       sodipodi:end="0"
       sodipodi:start="0.017453293"
       sodipodi:ry="34.198803"
       sodipodi:rx="43.205894"
       sodipodi:cy="116.10705"
       sodipodi:cx="51.931515"
       sodipodi:type="arc"
       id="path165"
       style="fill:#e2e3db;stroke-width:0.314301" />
    <path
       d="M 158.74272,104.3135 A 47.850174,41.93927 0 0 1 110.27349,145.51724 47.850174,41.93927 0 0 1 63.051482,103.21557 47.850174,41.93927 0 0 1 111.10862,61.642687 47.850174,41.93927 0 0 1 158.75001,103.58156 Z"
       sodipodi:arc-type="chord"
       sodipodi:open="true"
       sodipodi:end="0"
       sodipodi:start="0.017453293"
       sodipodi:ry="41.93927"
       sodipodi:rx="47.850174"
       sodipodi:cy="103.58156"
       sodipodi:cx="110.89983"
       sodipodi:type="arc"
       id="path167"
       style="fill:#e2e3db;stroke-width:0.264583" />
    <path
       d="m 204.06139,114.12645 a 36.450577,31.665558 0 0 1 -36.92215,31.1102 36.450577,31.665558 0 0 1 -35.97207,-31.93917 36.450577,31.665558 0 0 1 36.60824,-31.38893 36.450577,31.665558 0 0 1 36.29153,31.66526 z"
       sodipodi:arc-type="chord"
       sodipodi:open="true"
       sodipodi:end="0"
       sodipodi:start="0.017453293"
       sodipodi:ry="31.665558"
       sodipodi:rx="36.450577"
       sodipodi:cy="113.57381"
       sodipodi:cx="167.61636"
       sodipodi:type="arc"
       id="path169"
       style="fill:#e2e3db;stroke-width:0.264583" />
    <path
       inkscape:transform-center-y="-2.035461e-06"
       d="m 52.916665,169.16445 -2.798087,-3.50746 -2.260244,3.87593 -0.202068,-4.48227 -4.106791,1.80716 2.471134,-3.745 -4.384684,-0.95189 4.200448,-1.57728 -2.987777,-3.34735 4.325332,1.19292 -0.44964,-4.46423 2.798087,3.50746 2.260244,-3.87594 0.202068,4.48227 4.106791,-1.80715 -2.471134,3.745 4.384684,0.95189 -4.200448,1.57727 2.987777,3.34735 -4.325332,-1.19292 z"
       inkscape:randomized="0"
       inkscape:rounded="0"
       inkscape:flatsided="false"
       sodipodi:arg2="1.4980799"
       sodipodi:arg1="1.1839206"
       sodipodi:r2="4.1031189"
       sodipodi:r1="8.2062378"
       sodipodi:cy="161.56471"
       sodipodi:cx="49.820477"
       sodipodi:sides="10"
       id="path173"
       style="fill:#aaeeff;stroke-width:0.264583"
       sodipodi:type="star" />
    <path
       inkscape:transform-center-y="-2.141844e-06"
       inkscape:transform-center-x="1.0425532e-06"
       d="m 87.53768,176.76418 -3.553361,-2.80364 -1.331173,4.32606 -1.226786,-4.35682 -3.619736,2.71742 1.568379,-4.24583 -4.525682,0.0708 3.764476,-2.51307 -3.702972,-2.60285 4.522672,0.17959 -1.465852,-4.2823 3.553361,2.80364 1.331173,-4.32606 1.226786,4.35682 3.619736,-2.71742 -1.568379,4.24583 4.525683,-0.0708 -3.764477,2.51307 3.702972,2.60285 -4.522672,-0.17959 z"
       inkscape:randomized="0"
       inkscape:rounded="0"
       inkscape:flatsided="false"
       sodipodi:arg2="1.2686587"
       sodipodi:arg1="0.95449939"
       sodipodi:r2="4.1391644"
       sodipodi:r1="8.2783289"
       sodipodi:cy="170.00887"
       sodipodi:cx="82.752663"
       sodipodi:sides="10"
       id="path175"
       style="fill:#aaeeff;stroke-width:0.264583"
       sodipodi:type="star" />
    <path
       inkscape:transform-center-y="-2.2624113e-06"
       inkscape:transform-center-x="1.6312056e-06"
       d="m 138.48404,185.77126 -5.68074,-1.85605 0.32075,5.96765 -3.50486,-4.84063 -3.2482,5.01646 0.01,-5.97626 -5.57646,2.14916 3.52066,-4.82915 -5.77469,-1.53905 5.68677,-1.83748 -3.76719,-4.6394 5.68074,1.85606 -0.32075,-5.96766 3.50485,4.84064 3.24821,-5.01646 -0.01,5.97625 5.57646,-2.14916 -3.52066,4.82916 5.77469,1.53905 -5.68677,1.83748 z"
       inkscape:randomized="0"
       inkscape:rounded="0"
       inkscape:flatsided="false"
       sodipodi:arg2="0.91644661"
       sodipodi:arg1="0.60228735"
       sodipodi:r2="5.4651904"
       sodipodi:r1="10.930381"
       sodipodi:cy="179.57889"
       sodipodi:cx="129.47694"
       sodipodi:sides="10"
       id="path177"
       style="fill:#aaeeff;stroke-width:0.264583"
       sodipodi:type="star" />
    <path
       inkscape:transform-center-y="-2.464539e-06"
       inkscape:transform-center-x="1.2446808e-06"
       d="m 106.95922,199.28192 -4.84646,-0.65791 1.13675,4.75698 -3.534162,-3.38094 -1.876436,4.51664 -0.871931,-4.81256 -4.172881,2.55109 2.123346,-4.40595 -4.875427,-0.38888 4.307577,-2.31642 -3.715727,-3.18031 4.846461,0.6579 -1.136744,-4.75697 3.53416,3.38093 1.876436,-4.51663 0.871928,4.81256 4.17288,-2.5511 -2.12334,4.40596 4.87543,0.38888 -4.30758,2.31641 z"
       inkscape:randomized="0"
       inkscape:rounded="0"
       inkscape:flatsided="false"
       sodipodi:arg2="0.73557847"
       sodipodi:arg1="0.42141921"
       sodipodi:r2="4.4726543"
       sodipodi:r1="8.9453087"
       sodipodi:cy="195.62279"
       sodipodi:cx="98.796547"
       sodipodi:sides="10"
       id="path179"
       style="fill:#aaeeff;stroke-width:0.264583"
       sodipodi:type="star" />
    <path
       inkscape:transform-center-y="-1.9716312e-06"
       inkscape:transform-center-x="1.3368794e-06"
       d="m 111.1813,163.25355 -3.70099,-2.76016 -1.2373,4.44802 -1.37178,-4.4084 -3.61548,2.87125 1.4814,-4.37279 -4.612665,0.19777 3.768735,-2.66691 -3.847966,-2.55126 4.616536,0.0576 -1.61347,-4.32579 3.70098,2.76016 1.23731,-4.44802 1.37178,4.4084 3.61548,-2.87125 -1.4814,4.37279 4.61266,-0.19777 -3.76873,2.66691 3.84796,2.55126 -4.61654,-0.0576 z"
       inkscape:randomized="0"
       inkscape:rounded="0"
       inkscape:flatsided="false"
       sodipodi:arg2="1.2414545"
       sodipodi:arg1="0.92729522"
       sodipodi:r2="4.2220745"
       sodipodi:r1="8.444149"
       sodipodi:cy="156.49823"
       sodipodi:cx="106.11481"
       sodipodi:sides="10"
       id="path181"
       style="fill:#aaeeff;stroke-width:0.264583"
       sodipodi:type="star" />
    <path
       inkscape:transform-center-y="-2.1205673e-06"
       inkscape:transform-center-x="2.0248227e-06"
       d="m 164.66091,174.51241 -3.02351,-2.63887 -1.36887,3.77246 -0.89498,-3.91206 -3.32483,2.24738 1.5754,-3.69098 -4.01083,-0.13612 3.44403,-2.06007 -3.16482,-2.46762 3.99716,0.35771 -1.10996,-3.85658 3.02351,2.63887 1.36887,-3.77246 0.89498,3.91207 3.32483,-2.24739 -1.5754,3.69099 4.01083,0.13611 -3.44403,2.06007 3.16482,2.46763 -3.99716,-0.35772 z"
       inkscape:randomized="0"
       inkscape:rounded="0"
       inkscape:flatsided="false"
       sodipodi:arg2="1.3182264"
       sodipodi:arg1="1.0040671"
       sodipodi:r2="3.6699407"
       sodipodi:r1="7.3398824"
       sodipodi:cy="168.32004"
       sodipodi:cx="160.72031"
       sodipodi:sides="10"
       id="path183"
       style="fill:#aaeeff;stroke-width:0.264583"
       sodipodi:type="star" />
    <path
       inkscape:transform-center-y="-2.4113475e-06"
       inkscape:transform-center-x="2.1489361e-06"
       d="m 175.6383,198.43749 -3.74448,-2.90779 -1.35926,4.54189 -1.32019,-4.5534 -3.76932,2.87551 1.60836,-4.45976 -4.73962,0.11079 3.92257,-2.66266 -3.89955,-2.69625 4.73849,0.1515 -1.56998,-4.47341 3.74447,2.90778 1.35926,-4.54189 1.3202,4.5534 3.76931,-2.87551 -1.60836,4.45976 4.73962,-0.11078 -3.92257,2.66265 3.89956,2.69625 -4.7385,-0.1515 z"
       inkscape:randomized="0"
       inkscape:rounded="0"
       inkscape:flatsided="false"
       sodipodi:arg2="1.2609325"
       sodipodi:arg1="0.94677327"
       sodipodi:r2="4.3354855"
       sodipodi:r1="8.6709709"
       sodipodi:cy="191.4007"
       sodipodi:cx="170.57181"
       sodipodi:sides="10"
       id="path185"
       style="fill:#aaeeff;stroke-width:0.264583"
       sodipodi:type="star" />
    <path
       inkscape:transform-center-y="-2.6382978e-06"
       inkscape:transform-center-x="1.7730496e-06"
       d="m 146.64673,215.32581 -4.01339,-2.18682 -0.58984,4.53228 -1.96152,-4.12819 -3.14119,3.32 0.83958,-4.49273 -4.49272,0.83959 3.31999,-3.1412 -4.12818,-1.96152 4.53228,-0.58984 -2.18682,-4.01338 4.01339,2.18682 0.58983,-4.53228 1.96152,4.12818 3.1412,-3.31999 -0.83958,4.49272 4.49272,-0.83958 -3.31999,3.14119 4.12818,1.96152 -4.53228,0.58984 z"
       inkscape:randomized="0"
       inkscape:rounded="0"
       inkscape:flatsided="false"
       sodipodi:arg2="1.0995574"
       sodipodi:arg1="0.78539816"
       sodipodi:r2="4.1796403"
       sodipodi:r1="8.3592806"
       sodipodi:cy="209.4149"
       sodipodi:cx="140.73582"
       sodipodi:sides="10"
       id="path187"
       style="fill:#aaeeff;stroke-width:0.264583"
       sodipodi:type="star" />
    <path
       inkscape:transform-center-y="-2.751773e-06"
       inkscape:transform-center-x="1.2695035e-06"
       d="m 108.08512,223.76994 -4.66453,-1.67412 0.12341,4.95432 -2.78966,-4.09613 -2.812232,4.08066 0.150765,-4.95356 -4.6737,1.64834 3.033602,-3.9189 -4.749973,-1.41359 4.757706,-1.38735 -3.011917,-3.93559 4.664527,1.67412 -0.123411,-4.95432 2.789663,4.09614 2.81223,-4.08067 -0.15077,4.95356 4.6737,-1.64834 -3.0336,3.9189 4.74997,1.4136 -4.7577,1.38734 z"
       inkscape:randomized="0"
       inkscape:rounded="0"
       inkscape:flatsided="false"
       sodipodi:arg2="0.94523865"
       sodipodi:arg1="0.63107939"
       sodipodi:r2="4.5320425"
       sodipodi:r1="9.064086"
       sodipodi:cy="218.42198"
       sodipodi:cx="100.76685"
       sodipodi:sides="10"
       id="path189"
       style="fill:#aaeeff;stroke-width:0.264583"
       sodipodi:type="star" />
    <path
       inkscape:transform-center-y="-2.4042553e-06"
       d="m 67.834663,198.71897 -5.64643,-2.82877 -0.598715,6.28694 -2.905345,-5.60741 -4.179745,4.73433 0.945483,-6.24422 -6.164254,1.37336 4.435169,-4.49593 -5.794228,-2.51218 6.230771,-1.03036 -3.211003,-5.43817 5.64643,2.82878 0.598715,-6.28695 2.905345,5.60742 4.179745,-4.73433 -0.945484,6.24421 6.164255,-1.37336 -4.43517,4.49594 5.794228,2.51218 -6.230771,1.03036 z"
       inkscape:randomized="0"
       inkscape:rounded="0"
       inkscape:flatsided="false"
       sodipodi:arg2="1.0650883"
       sodipodi:arg1="0.75092906"
       sodipodi:r2="5.7753153"
       sodipodi:r1="11.55063"
       sodipodi:cy="190.83777"
       sodipodi:cx="59.390514"
       sodipodi:sides="10"
       id="path191"
       style="fill:#aaeeff;stroke-width:0.264583"
       sodipodi:type="star" />
    <path
       inkscape:transform-center-y="-2.2801418e-06"
       d="m 32.369236,185.77127 -3.839428,-1.59632 -0.102017,4.1568 -2.167868,-3.54821 -2.525843,3.30297 0.331743,-4.14481 -3.984883,1.1875 2.704641,-3.15822 -3.921833,-1.38155 4.044456,-0.9653 -2.360776,-3.4229 3.839428,1.59633 0.102017,-4.15681 2.167868,3.54821 2.525843,-3.30296 -0.331743,4.1448 3.984883,-1.1875 -2.704641,3.15822 3.921833,1.38155 -4.044456,0.96531 z"
       inkscape:randomized="0"
       inkscape:rounded="0"
       inkscape:flatsided="false"
       sodipodi:arg2="0.99468049"
       sodipodi:arg1="0.68052122"
       sodipodi:r2="3.8024721"
       sodipodi:r1="7.6049442"
       sodipodi:cy="180.98625"
       sodipodi:cx="26.458332"
       sodipodi:sides="10"
       id="path193"
       style="fill:#aaeeff;stroke-width:0.264583"
       sodipodi:type="star" />
    <path
       inkscape:transform-center-y="-2.7411347e-06"
       d="m 68.397604,223.48848 -4.603883,-2.01286 -0.214367,5.0201 -2.541491,-4.33453 -3.124166,3.93534 0.491664,-5.00056 -4.84064,1.34742 3.33702,-3.75654 -4.708154,-1.75517 4.907748,-1.07766 -2.777313,-4.18735 4.603883,2.01286 0.214367,-5.0201 2.541491,4.33453 3.124166,-3.93534 -0.491664,5.00056 4.84064,-1.34742 -3.33702,3.75655 4.708154,1.75517 -4.907748,1.07765 z"
       inkscape:randomized="0"
       inkscape:rounded="0"
       inkscape:flatsided="false"
       sodipodi:arg2="1.0128191"
       sodipodi:arg1="0.69865982"
       sodipodi:r2="4.5949759"
       sodipodi:r1="9.1899519"
       sodipodi:cy="217.57758"
       sodipodi:cx="61.360813"
       sodipodi:sides="10"
       id="path195"
       style="fill:#aaeeff;stroke-width:0.264583"
       sodipodi:type="star" />
    <path
       inkscape:transform-center-y="-2.5638298e-06"
       d="m 42.220743,210.54077 -4.925465,-2.55986 -0.60832,5.51752 -2.480135,-4.96609 -3.73526,4.10621 0.912523,-5.47544 -5.435457,1.12647 3.956627,-3.89336 -5.059495,-2.28355 5.489436,-0.82415 -2.750978,-4.82133 4.925466,2.55987 0.608319,-5.51753 2.480135,4.96609 3.73526,-4.10621 -0.912523,5.47544 5.435458,-1.12646 -3.956628,3.89335 5.059495,2.28356 -5.489436,0.82414 z"
       inkscape:randomized="0"
       inkscape:rounded="0"
       inkscape:flatsided="false"
       sodipodi:arg2="1.0799521"
       sodipodi:arg1="0.76579283"
       sodipodi:r2="5.0762529"
       sodipodi:r1="10.152506"
       sodipodi:cy="203.50398"
       sodipodi:cx="34.902481"
       sodipodi:sides="10"
       id="path197"
       style="fill:#aaeeff;stroke-width:0.264583"
       sodipodi:type="star" />
    <path
       inkscape:transform-center-y="-1.9787234e-06"
       inkscape:transform-center-x="2.3191489e-06"
       d="m 186.33422,166.91267 -2.70314,-4.81892 -3.51749,4.261 0.64561,-5.48745 -5.35026,1.3797 3.74775,-4.05996 -5.13942,-2.0286 5.41838,-1.08171 -2.9655,-4.66205 5.01937,2.30973 0.34115,-5.51476 2.70313,4.81892 3.51749,-4.26101 -0.64561,5.48745 5.35027,-1.3797 -3.74775,4.05996 5.13942,2.02861 -5.41838,1.0817 2.9655,4.66206 -5.01937,-2.30973 z"
       inkscape:randomized="0"
       inkscape:rounded="0"
       inkscape:flatsided="false"
       sodipodi:arg2="1.6602444"
       sodipodi:arg1="1.3460852"
       sodipodi:r2="5.0527883"
       sodipodi:r1="10.105577"
       sodipodi:cy="157.06116"
       sodipodi:cx="184.08244"
       sodipodi:sides="10"
       id="path199"
       style="fill:#ffffff;stroke-width:0.264583"
       sodipodi:type="star" />
    <path
       transform="scale(1,-1)"
       d="M 104.98692,-96.891568 A 13.088431,12.384751 0 0 1 91.72916,-84.724022 13.088431,12.384751 0 0 1 78.812549,-97.215788 13.088431,12.384751 0 0 1 91.957591,-109.49235 13.088431,12.384751 0 0 1 104.98891,-97.107712 Z"
       sodipodi:arc-type="chord"
       sodipodi:open="true"
       sodipodi:end="0"
       sodipodi:start="0.017453293"
       sodipodi:ry="12.384751"
       sodipodi:rx="13.088431"
       sodipodi:cy="-97.107712"
       sodipodi:cx="91.900482"
       sodipodi:type="arc"
       id="path201"
       style="fill:#ffffff;stroke-width:0.264583" />
    <path
       style="fill:#ffffff;stroke-width:0.264583"
       id="path201-2"
       sodipodi:type="arc"
       sodipodi:cx="123.84753"
       sodipodi:cy="-97.670654"
       sodipodi:rx="13.088431"
       sodipodi:ry="12.384751"
       sodipodi:start="0.017453293"
       sodipodi:end="0"
       sodipodi:open="true"
       sodipodi:arc-type="chord"
       d="m 136.93396,-97.454511 a 13.088431,12.384751 0 0 1 -13.25776,12.167547 13.088431,12.384751 0 0 1 -12.91661,-12.491766 13.088431,12.384751 0 0 1 13.14505,-12.27656 13.088431,12.384751 0 0 1 13.03132,12.384636 z"
       transform="scale(1,-1)" />
    <path
       d="m 94.010731,102.70694 a 5.2072253,6.3331118 0 0 1 -5.274593,6.22204 5.2072253,6.3331118 0 0 1 -5.138867,-6.38783 5.2072253,6.3331118 0 0 1 5.229748,-6.277789 5.2072253,6.3331118 0 0 1 5.184505,6.333049 z"
       sodipodi:arc-type="chord"
       sodipodi:open="true"
       sodipodi:end="0"
       sodipodi:start="0.017453293"
       sodipodi:ry="6.3331118"
       sodipodi:rx="5.2072253"
       sodipodi:cy="102.59641"
       sodipodi:cx="88.804298"
       sodipodi:type="arc"
       id="path218"
       style="fill:#28220b;stroke-width:0.264583" />
    <path
       style="fill:#28220b;stroke-width:0.264583"
       id="path218-8"
       sodipodi:type="arc"
       sodipodi:cx="119.62544"
       sodipodi:cy="102.73714"
       sodipodi:rx="5.2072253"
       sodipodi:ry="6.3331118"
       sodipodi:start="0.017453293"
       sodipodi:end="0"
       sodipodi:open="true"
       sodipodi:arc-type="chord"
       d="m 124.83187,102.84766 a 5.2072253,6.3331118 0 0 1 -5.27459,6.22205 5.2072253,6.3331118 0 0 1 -5.13886,-6.38784 5.2072253,6.3331118 0 0 1 5.22974,-6.277785 5.2072253,6.3331118 0 0 1 5.18451,6.333055 z" />
  </g>
</svg>
