<?xml version="1.0" encoding="UTF-8" standalone="no"?>
<svg
   xmlns:dc="http://purl.org/dc/elements/1.1/"
   xmlns:cc="http://creativecommons.org/ns#"
   xmlns:rdf="http://www.w3.org/1999/02/22-rdf-syntax-ns#"
   xmlns:svg="http://www.w3.org/2000/svg"
   xmlns="http://www.w3.org/2000/svg"
   xmlns:sodipodi="http://sodipodi.sourceforge.net/DTD/sodipodi-0.dtd"
   xmlns:inkscape="http://www.inkscape.org/namespaces/inkscape"
   width="210mm"
   height="297mm"
   viewBox="0 0 210 297"
   version="1.1"
   id="svg8"
   inkscape:version="1.0 (4035a4fb49, 2020-05-01)"
   sodipodi:docname="50n.svg">
  <defs
     id="defs2" />
  <sodipodi:namedview
     id="base"
     pagecolor="#ffffff"
     bordercolor="#666666"
     borderopacity="1.0"
     inkscape:pageopacity="0.0"
     inkscape:pageshadow="2"
     inkscape:zoom="0.94"
     inkscape:cx="296.97284"
     inkscape:cy="465.31915"
     inkscape:document-units="mm"
     inkscape:current-layer="layer1"
     inkscape:document-rotation="0"
     showgrid="false"
     inkscape:window-width="1800"
     inkscape:window-height="1106"
     inkscape:window-x="-11"
     inkscape:window-y="-11"
     inkscape:window-maximized="1" />
  <metadata
     id="metadata5">
    <rdf:RDF>
      <cc:Work
         rdf:about="">
        <dc:format>image/svg+xml</dc:format>
        <dc:type
           rdf:resource="http://purl.org/dc/dcmitype/StillImage" />
        <dc:title />
      </cc:Work>
    </rdf:RDF>
  </metadata>
  <g
     inkscape:label="Livello 1"
     inkscape:groupmode="layer"
     id="layer1">
    <path
       style="fill:#e2e3db;stroke-width:0.314301"
       id="path165"
       sodipodi:type="arc"
       sodipodi:cx="51.931515"
       sodipodi:cy="116.10705"
       sodipodi:rx="43.205894"
       sodipodi:ry="34.198803"
       sodipodi:start="0.017453293"
       sodipodi:end="0"
       sodipodi:open="true"
       sodipodi:arc-type="chord"
       d="M 95.130829,116.7039 A 43.205894,34.198803 0 0 1 51.365967,150.30292 43.205894,34.198803 0 0 1 8.7272654,115.80861 43.205894,34.198803 0 0 1 52.120035,81.908571 43.205894,34.198803 0 0 1 95.137409,116.10705 Z" />
    <path
       style="fill:#e2e3db;stroke-width:0.264583"
       id="path167"
       sodipodi:type="arc"
       sodipodi:cx="110.89983"
       sodipodi:cy="103.58156"
       sodipodi:rx="47.850174"
       sodipodi:ry="41.93927"
       sodipodi:start="0.017453293"
       sodipodi:end="0"
       sodipodi:open="true"
       sodipodi:arc-type="chord"
       d="M 158.74272,104.3135 A 47.850174,41.93927 0 0 1 110.27349,145.51724 47.850174,41.93927 0 0 1 63.051482,103.21557 47.850174,41.93927 0 0 1 111.10862,61.642687 47.850174,41.93927 0 0 1 158.75001,103.58156 Z" />
    <path
       style="fill:#e2e3db;stroke-width:0.264583"
       id="path169"
       sodipodi:type="arc"
       sodipodi:cx="167.61636"
       sodipodi:cy="113.57381"
       sodipodi:rx="36.450577"
       sodipodi:ry="31.665558"
       sodipodi:start="0.017453293"
       sodipodi:end="0"
       sodipodi:open="true"
       sodipodi:arc-type="chord"
       d="m 204.06139,114.12645 a 36.450577,31.665558 0 0 1 -36.92215,31.1102 36.450577,31.665558 0 0 1 -35.97207,-31.93917 36.450577,31.665558 0 0 1 36.60824,-31.38893 36.450577,31.665558 0 0 1 36.29153,31.66526 z" />
    <path
       sodipodi:type="star"
       style="fill:#ffffff;stroke-width:0.264583"
       id="path199"
       sodipodi:sides="10"
       sodipodi:cx="184.08244"
       sodipodi:cy="157.06116"
       sodipodi:r1="10.105577"
       sodipodi:r2="5.0527883"
       sodipodi:arg1="1.3460852"
       sodipodi:arg2="1.6602444"
       inkscape:flatsided="false"
       inkscape:rounded="0"
       inkscape:randomized="0"
       d="m 186.33422,166.91267 -2.70314,-4.81892 -3.51749,4.261 0.64561,-5.48745 -5.35026,1.3797 3.74775,-4.05996 -5.13942,-2.0286 5.41838,-1.08171 -2.9655,-4.66205 5.01937,2.30973 0.34115,-5.51476 2.70313,4.81892 3.51749,-4.26101 -0.64561,5.48745 5.35027,-1.3797 -3.74775,4.05996 5.13942,2.02861 -5.41838,1.0817 2.9655,4.66206 -5.01937,-2.30973 z"
       inkscape:transform-center-x="2.3191489e-06"
       inkscape:transform-center-y="-1.9787234e-06" />
    <path
       style="fill:#ffffff;stroke-width:0.264583"
       id="path201"
       sodipodi:type="arc"
       sodipodi:cx="91.900482"
       sodipodi:cy="-97.107712"
       sodipodi:rx="13.088431"
       sodipodi:ry="12.384751"
       sodipodi:start="0.017453293"
       sodipodi:end="0"
       sodipodi:open="true"
       sodipodi:arc-type="chord"
       d="M 104.98692,-96.891568 A 13.088431,12.384751 0 0 1 91.72916,-84.724022 13.088431,12.384751 0 0 1 78.812549,-97.215788 13.088431,12.384751 0 0 1 91.957591,-109.49235 13.088431,12.384751 0 0 1 104.98891,-97.107712 Z"
       transform="scale(1,-1)" />
    <path
       transform="scale(1,-1)"
       d="m 136.93396,-97.454511 a 13.088431,12.384751 0 0 1 -13.25776,12.167547 13.088431,12.384751 0 0 1 -12.91661,-12.491766 13.088431,12.384751 0 0 1 13.14505,-12.27656 13.088431,12.384751 0 0 1 13.03132,12.384636 z"
       sodipodi:arc-type="chord"
       sodipodi:open="true"
       sodipodi:end="0"
       sodipodi:start="0.017453293"
       sodipodi:ry="12.384751"
       sodipodi:rx="13.088431"
       sodipodi:cy="-97.670654"
       sodipodi:cx="123.84753"
       sodipodi:type="arc"
       id="path201-2"
       style="fill:#ffffff;stroke-width:0.264583" />
    <path
       style="fill:#28220b;stroke-width:0.264583"
       id="path218"
       sodipodi:type="arc"
       sodipodi:cx="88.804298"
       sodipodi:cy="102.59641"
       sodipodi:rx="5.2072253"
       sodipodi:ry="6.3331118"
       sodipodi:start="0.017453293"
       sodipodi:end="0"
       sodipodi:open="true"
       sodipodi:arc-type="chord"
       d="m 94.010731,102.70694 a 5.2072253,6.3331118 0 0 1 -5.274593,6.22204 5.2072253,6.3331118 0 0 1 -5.138867,-6.38783 5.2072253,6.3331118 0 0 1 5.229748,-6.277789 5.2072253,6.3331118 0 0 1 5.184505,6.333049 z" />
    <path
       d="m 124.83187,102.84766 a 5.2072253,6.3331118 0 0 1 -5.27459,6.22205 5.2072253,6.3331118 0 0 1 -5.13886,-6.38784 5.2072253,6.3331118 0 0 1 5.22974,-6.277785 5.2072253,6.3331118 0 0 1 5.18451,6.333055 z"
       sodipodi:arc-type="chord"
       sodipodi:open="true"
       sodipodi:end="0"
       sodipodi:start="0.017453293"
       sodipodi:ry="6.3331118"
       sodipodi:rx="5.2072253"
       sodipodi:cy="102.73714"
       sodipodi:cx="119.62544"
       sodipodi:type="arc"
       id="path218-8"
       style="fill:#28220b;stroke-width:0.264583" />
    <path
       style="fill:#c8beb7;stroke-width:0.264583"
       id="path240"
       d="m 33.04668,176.21286 c 0.103577,-0.13318 0.193725,-0.27797 0.310724,-0.39952 0.727308,-0.75557 0.266838,-0.0635 0.958091,-0.97359 0.519094,-0.68343 0.87204,-1.45764 1.237149,-2.22822 0.531717,-0.91661 0.839671,-1.94941 1.364694,-2.86803 0.148413,-0.25967 0.560864,-0.83349 0.729549,-1.0733 0.187288,-0.26929 0.559544,-0.83836 0.808855,-1.06414 0.275537,-0.24953 0.99943,-0.66959 1.311434,-0.85031 0.240247,-0.13916 0.965616,-0.54848 0.726054,-0.40815 -1.771896,1.03795 -3.548772,2.06737 -5.323157,3.10105 1.995355,-0.9363 4.111804,-1.58803 6.24972,-2.10693 1.762156,-0.43205 3.559696,-0.66504 5.36649,-0.79505 1.405941,-0.0992 2.802883,-0.0977 4.197247,0.11063 1.530345,0.2562 2.961299,0.85698 4.324461,1.5782 1.305282,0.70935 2.425282,1.6675 3.486505,2.69332 0.706326,0.72508 1.313757,1.55721 1.817132,2.43555 0.640977,0.90153 1.240692,1.82941 1.937776,2.68932 0.825228,0.79713 1.830242,1.43709 2.85813,1.94568 1.094446,0.48748 2.263516,0.68997 3.447142,0.79988 1.794352,0.0818 3.592693,0.0459 5.388684,0.0536 1.932864,-5.3e-4 3.865367,0.0481 5.791613,-0.12966 1.916925,-0.17568 3.780597,-0.64441 5.625494,-1.1717 1.586002,-0.45939 3.000105,-1.32884 4.4899,-2.01642 3.47853,-1.35343 7.006018,-2.96971 9.695756,-5.60016 0.705857,-1.00174 1.364007,-2.02652 2.136477,-2.98091 0.12886,-0.13263 0.24624,-0.27747 0.38659,-0.39789 0.12212,-0.10478 0.67221,-0.45674 0.81286,-0.55015 0.15569,-0.1034 0.62729,-0.40606 0.46535,-0.31275 -6.977853,4.02072 -7.319814,4.19491 -4.923803,2.90636 1.581923,-0.80116 3.262113,-1.38259 4.932943,-1.96611 1.3409,-0.395 2.65491,-0.86368 3.96797,-1.34056 1.01089,-0.39067 2.09319,-0.43977 3.16271,-0.48474 1.07945,-0.0304 2.1538,-0.0916 3.19906,0.21164 0.56263,0.21297 1.14413,0.43305 1.63124,0.79689 0.0957,0.0715 0.59975,0.54143 0.66911,0.60546 0.72207,0.67665 1.28016,1.49646 1.76714,2.35137 0.5949,0.99127 1.23848,1.9542 1.96211,2.85653 0.82505,1.05819 1.9487,1.77086 3.10727,2.41004 1.312,0.7455 2.77263,1.12065 4.2343,1.44017 1.46658,0.30022 2.93374,0.56656 4.42313,0.71942 1.15923,0.10863 2.32338,0.13344 3.48678,0.14955 1.09713,0.0569 2.17429,-0.0496 3.24636,-0.27575 1.21007,-0.32938 2.43501,-0.5846 3.61168,-1.02262 1.22947,-0.56814 2.4358,-1.18159 3.67274,-1.73499 1.56993,-0.72666 3.2055,-1.30115 4.81446,-1.93534 1.82799,-0.64744 3.60635,-1.41343 5.37318,-2.2097 1.46548,-0.70268 2.9232,-1.42226 4.41669,-2.06438 0.19825,-0.0796 0.3965,-0.15919 0.59475,-0.23879 0,0 5.62919,-4.41704 5.62919,-4.41704 v 0 c -0.20721,0.0777 -0.41442,0.15537 -0.62163,0.23305 -1.51993,0.63052 -3.00561,1.33143 -4.47048,2.08169 -1.75936,0.81003 -3.52031,1.61918 -5.35519,2.24755 -0.85527,0.32583 -1.7005,0.6757 -2.55823,0.99495 -0.51365,0.19117 -1.03807,0.35333 -1.54785,0.55459 -0.23263,0.0918 -0.45757,0.20206 -0.68635,0.30309 -1.61302,0.80572 0.37587,-0.16228 -1.25905,0.55341 -0.81866,0.35838 -1.59355,0.81186 -2.39133,1.2126 -0.53051,0.23803 -0.67037,0.3196 -1.21137,0.49272 -0.76004,0.24322 -1.56936,0.29496 -2.31001,0.60853 -1.03952,0.25517 -2.04578,0.466 -3.12599,0.39119 -1.16496,0.005 -2.33094,0.001 -3.49414,-0.0707 -1.47707,-0.10973 -2.93067,-0.34564 -4.38243,-0.63785 -1.40441,-0.30518 -2.83981,-0.58295 -4.11424,-1.27934 -1.08895,-0.57621 -2.1419,-1.22195 -2.93189,-2.1891 -0.7133,-0.86233 -1.30881,-1.80951 -1.88183,-2.76936 -0.5303,-0.91373 -1.12856,-1.7927 -1.87571,-2.54486 -0.2474,-0.22401 -0.47099,-0.47396 -0.72407,-0.69153 -0.50712,-0.43594 -1.13514,-0.70734 -1.7502,-0.94891 -0.37085,-0.14576 -0.69832,-0.29382 -1.09269,-0.37077 -0.74321,-0.14501 -1.51641,0.003 -2.26529,-0.0439 -1.09751,0.0143 -2.21734,0.01 -3.28437,0.29609 -1.34916,0.46329 -2.65215,1.05812 -4.04168,1.40376 -1.66946,0.5718 -3.34201,1.14398 -4.95867,1.85481 -2.87762,1.43488 -1.11458,0.53932 -7.321297,4.18654 -0.621692,0.36532 -1.135266,0.8921 -1.57326,1.45663 -0.727536,0.95946 -1.332889,2.01906 -2.185969,2.87421 -1.901442,1.63036 -5.101214,3.18255 4.595725,-2.39316 0.205446,-0.11813 -0.418484,0.22363 -0.635781,0.31822 -0.231158,0.10062 -0.471746,0.17802 -0.707773,0.26663 -0.241946,0.0908 -0.484093,0.18113 -0.726141,0.27169 -1.525051,0.63102 -2.918069,1.52311 -4.461341,2.10843 -1.828361,0.55048 -3.673361,1.08135 -5.577694,1.29143 -0.339477,0.0437 -0.677455,0.10125 -1.018427,0.1311 -1.564563,0.13694 -3.144133,-0.0185 -4.711273,0.0487 -1.760273,0.01 -3.521449,0.009 -5.280539,-0.064 -1.121436,-0.0665 -2.243807,-0.17808 -3.295822,-0.60405 -0.977429,-0.38603 -1.872398,-1.0014 -2.679284,-1.6681 -0.689666,-0.81756 -1.281576,-1.70685 -1.854729,-2.60912 -0.563769,-0.91895 -1.226373,-1.78533 -1.971577,-2.56408 -1.100257,-1.07344 -2.289961,-2.05815 -3.622194,-2.83521 -1.394301,-0.78819 -2.862254,-1.45584 -4.439335,-1.78272 -1.425107,-0.28309 -2.85342,-0.3714 -4.304292,-0.24052 -1.847048,0.1005 -3.687149,0.3239 -5.490734,0.74544 -2.160762,0.46138 -4.256556,1.14718 -6.321581,1.93078 -2.282954,1.30023 -4.57065,2.59218 -6.848866,3.90071 -1.141868,0.65584 -2.104628,1.47749 -2.763557,2.63305 -0.809488,1.26887 -1.322626,2.67756 -2.019702,4.0082 -0.329311,0.62942 -0.42318,0.86253 -0.845074,1.44639 -0.548011,0.75839 -1.292836,1.34123 -1.832154,2.10645 0,0 6.647631,-2.88306 6.647631,-2.88306 z" />
    <path
       style="fill:#c8beb7;stroke-width:0.264583"
       id="path242"
       d="m 30.970439,196.92158 c 0.709438,-2.15425 2.2269,-3.85379 4.008861,-5.21781 0.760423,-0.58208 1.582796,-1.07842 2.374194,-1.61763 6.798553,-4.04944 -0.377394,0.21533 -0.533228,0.35201 -0.623266,0.54666 1.47539,-0.75743 2.226706,-1.10789 1.43913,-0.67128 2.543355,-1.11303 4.068109,-1.56219 0.673389,-0.19837 1.361808,-0.34159 2.042711,-0.51239 2.701919,-0.5162 5.496337,-0.72832 8.233989,-0.3459 2.037522,0.28463 2.597332,0.54486 4.557853,1.15148 3.296076,1.11237 6.088208,2.86075 8.719973,5.0923 0.243462,0.23219 0.493617,0.45755 0.73038,0.69656 0.644244,0.65036 1.247822,1.33955 1.904793,1.97848 0.279101,0.27144 1.117243,1.04146 1.403654,1.30578 1.065059,1.00365 2.290361,1.84411 3.652139,2.394 0.354193,0.14303 0.720196,0.25487 1.080297,0.3823 2.956261,0.82744 6.036135,0.92982 9.082897,1.06836 2.272096,0.0869 4.545769,0.11133 6.819289,0.11957 1.788093,0.0902 3.545096,-0.21926 5.281861,-0.60618 2.254205,-0.54677 4.408643,-1.42657 6.585403,-2.21451 2.18939,-0.78591 4.45558,-1.32179 6.69781,-1.92984 1.89333,-0.45901 3.77719,-0.94976 5.60334,-1.6322 1.31161,-0.5045 2.61452,-1.02883 3.9333,-1.51433 1.28597,-0.53982 2.64239,-0.85601 3.98436,-1.21598 0.93191,-0.24917 1.87083,-0.64574 2.84871,-0.52758 0.14271,0.0742 0.29913,0.1265 0.42813,0.22257 0.45636,0.33986 0.94511,0.96462 1.26784,1.37883 0.80852,1.03772 1.54955,2.13331 2.30849,3.20731 1.1014,1.53178 2.31426,2.98 3.72103,4.23908 0.74451,0.58401 1.56789,1.11096 2.49719,1.34471 0.61646,0.15506 1.13532,0.18595 1.76727,0.2525 2.66576,0.032 5.31917,-0.33416 7.95852,-0.66921 2.69775,-0.31646 5.3719,-0.7448 7.97518,-1.52751 4.00542,-1.36815 7.52513,-3.70495 11.17754,-5.81096 0.7911,-0.54247 1.64822,-0.9954 2.42427,-1.56015 0.36057,-0.26239 0.69359,-0.56071 1.04379,-0.83679 1.239,-0.80227 2.34765,-1.77041 3.57438,-2.58905 -5.62321,3.2872 -7.29538,4.12342 -4.82206,2.86468 0,0 5.59241,-4.44706 5.59241,-4.44706 v 0 c -3.04706,1.28978 -0.44786,0.15761 -7.40173,4.18971 -1.20632,0.86229 -2.36732,1.78672 -3.58373,2.63561 -1.10253,0.84356 -2.27824,1.5818 -3.46581,2.29941 10.98798,-6.29269 3.81353,-2.01743 1.01932,-1.05232 -2.58383,0.87319 -5.24859,1.39605 -7.96257,1.67482 -2.5725,0.34807 -5.15491,0.64756 -7.75236,0.71344 -1.4908,-0.12172 -2.77964,-0.2826 -3.98862,-1.25285 -1.42077,-1.17778 -2.62199,-2.57035 -3.74296,-4.03314 -0.78705,-1.06294 -1.55256,-2.13724 -2.30268,-3.22662 -0.48021,-0.69742 -0.68456,-1.08767 -1.2582,-1.65254 -0.16396,-0.16145 -0.35477,-0.29313 -0.53216,-0.43969 -0.16189,-0.0653 -0.31685,-0.15152 -0.48565,-0.19604 -0.83371,-0.21988 -1.84562,0.23071 -2.64357,0.43338 -1.32872,0.42239 -2.71687,0.63179 -4.0103,1.17024 -1.33008,0.5047 -2.66044,0.99754 -3.97826,1.53425 -1.8188,0.75147 -3.70713,1.3166 -5.62738,1.74729 -2.24866,0.61965 -4.52939,1.13396 -6.73769,1.89128 -2.15925,0.7708 -4.28853,1.64356 -6.50059,2.25156 -1.68818,0.41425 -3.411765,0.74715 -5.158211,0.71464 -2.310791,0.0191 -4.622035,0.0464 -6.932649,-0.004 -2.973636,-0.0826 -5.980893,-0.19413 -8.871945,-0.95912 -1.663475,-0.57909 -3.238661,-1.34556 -4.543949,-2.55578 -0.682757,-0.62908 -1.358056,-1.2619 -2.012955,-1.92014 -0.443246,-0.4455 -0.860195,-0.91715 -1.312794,-1.35315 -0.254939,-0.24558 -0.527759,-0.4719 -0.791638,-0.70785 -2.786629,-2.20114 -5.700734,-4.03171 -9.105263,-5.14902 -1.75293,-0.57905 -2.771843,-0.98771 -4.594719,-1.30508 -2.761261,-0.48074 -5.613477,-0.29628 -8.359598,0.16214 -1.678572,0.38742 -2.568919,0.53901 -4.199641,1.13599 -1.189522,0.43546 -3.320611,1.43379 -4.388205,2.02156 -6.720879,3.70022 -6.231069,3.44098 -10.737672,6.20161 -0.819428,0.58034 -1.674077,1.11391 -2.458284,1.74103 -1.922925,1.53775 -3.471939,3.44117 -4.369345,5.73991 0,0 6.570427,-3.05608 6.570427,-3.05608 z" />
    <path
       style="fill:#c8beb7;stroke-width:0.264583"
       id="path244"
       d="m 31.378321,222.29989 c 0.220953,-0.22183 0.448553,-0.43724 0.66286,-0.6655 1.248201,-1.32947 2.476538,-2.6586 3.817851,-3.89921 1.334328,-1.23415 2.01818,-1.76505 3.421554,-2.92326 1.576512,-1.3362 3.247364,-2.55654 4.972169,-3.69338 0.504222,-0.33234 2.055609,-1.26746 1.529445,-0.97108 -7.839858,4.41606 -4.909957,2.85407 -2.870499,1.78962 2.053315,-0.99793 4.180393,-1.86954 6.390265,-2.45701 1.404379,-0.37335 1.846654,-0.41473 3.281148,-0.65887 1.98679,-0.29143 4.011054,-0.39607 5.994992,-0.0271 1.162389,0.21618 1.468157,0.35791 2.58045,0.72459 2.009902,0.74688 3.868414,1.83977 5.740508,2.87348 1.647373,1.00697 3.195833,2.16116 4.829114,3.19137 1.777839,1.22455 3.672457,2.2346 5.654884,3.08111 2.11477,0.90988 4.364625,1.4037 6.607855,1.87329 2.37699,0.4801 4.794044,0.64861 7.21169,0.74616 1.53516,0.005 3.07903,0.13234 4.612828,0.009 0.798028,-0.0641 1.452297,-0.1849 2.237279,-0.31176 2.063836,-0.41473 4.051956,-1.12182 6.048806,-1.77462 1.98703,-0.63763 3.93088,-1.40276 5.86807,-2.1765 1.86628,-0.77623 3.76311,-1.47057 5.61986,-2.27018 1.25703,-0.57119 2.51777,-1.14966 3.84574,-1.53624 0.97438,-0.22855 1.97799,-0.28847 2.97576,-0.28201 2.04935,0.27023 3.88641,1.2955 5.64294,2.3242 1.76942,1.01617 3.32109,2.3472 4.79599,3.74501 0.62146,0.62723 1.27725,1.21625 1.90724,1.83468 0.1799,0.1766 0.34757,0.36681 0.54092,0.52858 0.40348,0.33759 1.02212,0.72749 1.46202,1.01717 0.90834,0.57184 1.83706,1.12292 2.8958,1.35791 0.75332,0.1672 1.32224,0.19518 2.09519,0.26845 2.4897,0.0955 4.95846,-0.20384 7.39776,-0.67016 2.11234,-0.46877 4.23785,-0.90227 6.3022,-1.55593 1.61945,-0.49996 3.14953,-1.22587 4.69698,-1.9061 1.09195,-0.53558 2.20382,-1.02379 3.33232,-1.47674 0.59062,-0.24354 0.30422,-0.12133 0.85962,-0.36559 0,0 5.6512,-4.47122 5.6512,-4.47122 v 0 c -0.56834,0.24461 -0.28113,0.11421 -0.86102,0.39255 -1.14667,0.4614 -2.30554,0.90085 -3.39458,1.49031 -1.54987,0.70715 -3.09038,1.44414 -4.7024,2.00109 -2.04956,0.71291 -4.1659,1.16793 -6.27959,1.65118 -2.39593,0.48276 -4.80881,0.89178 -7.26521,0.8196 -0.90446,-0.0751 -1.84964,-0.11315 -2.7258,-0.37862 -0.7202,-0.21822 -1.37936,-0.62412 -2.02524,-0.996 -0.40722,-0.25792 -0.99112,-0.61043 -1.36895,-0.917 -0.88205,-0.71572 -1.63684,-1.59696 -2.49672,-2.33806 -1.51772,-1.42807 -3.09438,-2.8259 -4.91791,-3.85489 -1.81186,-1.07501 -3.67118,-2.08292 -5.69746,-2.69624 -1.03884,-0.10921 -2.08501,-0.013 -3.11772,0.12663 -1.4048,0.26558 -2.70572,0.89247 -3.99704,1.48745 -1.85453,0.85009 -3.76956,1.53452 -5.64897,2.32425 -1.91865,0.78316 -3.85779,1.52593 -5.82073,2.18846 -2.45526,0.87372 0.52879,-0.16587 -2.03427,0.65395 -1.31332,0.42007 -2.60184,0.92576 -3.95613,1.21198 -0.67052,0.12985 -1.52215,0.30711 -2.19785,0.38642 -1.521058,0.17852 -3.055403,0.0405 -4.581287,0.0479 -2.392688,-0.0698 -4.790877,-0.19102 -7.147036,-0.64508 -2.205498,-0.45717 -4.42254,-0.90672 -6.511748,-1.77665 -1.966031,-0.80343 -3.831394,-1.78528 -5.591521,-2.97918 -1.635004,-1.04727 -3.16965,-2.23948 -4.832485,-3.24272 -1.920216,-1.05018 -3.82342,-2.15999 -5.881071,-2.92533 -1.340234,-0.47648 -2.695586,-0.91509 -4.118811,-1.07549 -1.567262,-0.17663 -3.165025,-0.0247 -4.722265,0.15225 -1.514568,0.22213 -1.848919,0.23552 -3.336367,0.5956 -2.236395,0.54138 -4.390927,1.38606 -6.474909,2.3521 -5.397974,2.72496 -10.660642,5.77134 -15.266633,9.71025 -2.911475,2.44786 -5.719027,5.02376 -8.26232,7.8579 0,0 6.621234,-2.89701 6.621234,-2.89701 z" />
    <path
       inkscape:transform-center-y="-0.27895665"
       inkscape:transform-center-x="-0.69583535"
       d="m 64.457004,64.457002 1.554373,6.528269 6.259031,2.420519 -5.728425,3.495643 -0.367904,6.700673 -5.094735,-4.367843 -6.486407,1.720726 2.579706,-6.195119 -3.640917,-5.637207 6.689081,0.539049 z"
       inkscape:randomized="0"
       inkscape:rounded="0"
       inkscape:flatsided="false"
       sodipodi:arg2="-0.71776663"
       sodipodi:arg1="-1.3460852"
       sodipodi:r2="5.0527883"
       sodipodi:r1="10.105577"
       sodipodi:cy="74.30851"
       sodipodi:cx="62.205231"
       sodipodi:sides="5"
       id="path1400"
       style="fill:#ffe680;stroke-width:0.264583"
       sodipodi:type="star" />
    <path
       inkscape:transform-center-y="0.60620002"
       inkscape:transform-center-x="-0.5865255"
       d="m 177.04565,59.953461 -0.12611,8.191394 6.67639,4.747707 -7.82945,2.411348 -2.45222,7.81674 -4.71276,-6.701098 -8.19194,0.0833 4.9168,-6.552854 -2.61068,-7.765256 7.75151,2.651212 z"
       inkscape:randomized="0"
       inkscape:rounded="0"
       inkscape:flatsided="false"
       sodipodi:arg2="-0.46862646"
       sodipodi:arg1="-1.096945"
       sodipodi:r2="6.1683402"
       sodipodi:r1="12.33668"
       sodipodi:cy="70.930855"
       sodipodi:cx="171.41621"
       sodipodi:sides="5"
       id="path1402"
       style="fill:#ffe680;stroke-width:0.264583"
       sodipodi:type="star" />
    <path
       inkscape:transform-center-y="0.80687544"
       inkscape:transform-center-x="-0.72669688"
       d="m 117.65515,22.236256 -0.22185,10.531481 8.54982,6.153206 -10.08458,3.043423 -3.21001,10.032805 -6.01078,-8.650543 -10.533709,0.04741 6.369719,-8.389752 -3.30018,-10.003505 9.94748,3.465391 z"
       inkscape:randomized="0"
       inkscape:rounded="0"
       inkscape:flatsided="false"
       sodipodi:arg2="-0.4629585"
       sodipodi:arg1="-1.091277"
       sodipodi:r2="7.9313092"
       sodipodi:r1="15.862618"
       sodipodi:cy="36.309837"
       sodipodi:cx="110.33688"
       sodipodi:sides="5"
       id="path1404"
       style="fill:#ffe680;stroke-width:0.264583"
       sodipodi:type="star" />
    <path
       inkscape:transform-center-y="0.88124585"
       inkscape:transform-center-x="-0.32429829"
       d="m 36.028369,30.961882 -0.711668,8.271945 6.410775,5.275749 -8.087006,1.879335 -3.036496,7.727305 -4.286376,-7.110452 -8.287434,-0.500012 5.43788,-6.273836 -2.085419,-8.03633 7.64717,3.233009 z"
       inkscape:randomized="0"
       inkscape:rounded="0"
       inkscape:flatsided="false"
       sodipodi:arg2="-0.39819731"
       sodipodi:arg1="-1.0265158"
       sodipodi:r2="6.2512689"
       sodipodi:r1="12.502537"
       sodipodi:cy="41.657803"
       sodipodi:cx="29.554522"
       sodipodi:sides="5"
       id="path1406"
       style="fill:#ffe680;stroke-width:0.264583"
       sodipodi:type="star" />
    <path
       inkscape:transform-center-y="0.16779684"
       inkscape:transform-center-x="-1.0725002"
       d="m 16.888297,125.81782 0.875242,8.53096 7.523788,4.11532 -7.84296,3.46862 -1.588931,8.42725 -5.722458,-6.38723 -8.5058012,1.093 4.3062868,-7.41615 -3.6679435,-7.75174 8.3838889,1.80381 z"
       inkscape:randomized="0"
       inkscape:rounded="0"
       inkscape:flatsided="false"
       sodipodi:arg2="-0.58625814"
       sodipodi:arg1="-1.2145767"
       sodipodi:r2="6.4569983"
       sodipodi:r1="12.913997"
       sodipodi:cy="137.9211"
       sodipodi:cx="12.384751"
       sodipodi:sides="5"
       id="path1408"
       style="fill:#ffe680;stroke-width:0.264583"
       sodipodi:type="star" />
    <path
       inkscape:transform-center-y="-0.16458862"
       inkscape:transform-center-x="-0.90427515"
       d="m 187.46009,141.29875 1.41082,7.24953 6.77181,2.94767 -6.45875,3.582 -0.71079,7.35125 -5.40255,-5.03573 -7.2111,1.59565 3.11979,-6.69425 -3.74592,-6.36508 7.33069,0.89846 z"
       inkscape:randomized="0"
       inkscape:rounded="0"
       inkscape:flatsided="false"
       sodipodi:arg2="-0.67622648"
       sodipodi:arg1="-1.304545"
       sodipodi:r2="5.5608473"
       sodipodi:r1="11.121694"
       sodipodi:cy="152.02856"
       sodipodi:cx="184.53378"
       sodipodi:sides="5"
       id="path1410"
       style="fill:#ffe680;stroke-width:0.264583"
       sodipodi:type="star" />
  </g>
</svg>
