<?xml version="1.0" encoding="UTF-8" standalone="no"?>
<svg
   xmlns:dc="http://purl.org/dc/elements/1.1/"
   xmlns:cc="http://creativecommons.org/ns#"
   xmlns:rdf="http://www.w3.org/1999/02/22-rdf-syntax-ns#"
   xmlns:svg="http://www.w3.org/2000/svg"
   xmlns="http://www.w3.org/2000/svg"
   xmlns:sodipodi="http://sodipodi.sourceforge.net/DTD/sodipodi-0.dtd"
   xmlns:inkscape="http://www.inkscape.org/namespaces/inkscape"
   sodipodi:docname="unknown.svg"
   inkscape:version="1.0 (4035a4fb49, 2020-05-01)"
   id="svg8"
   version="1.1"
   viewBox="0 0 210 297"
   height="297mm"
   width="210mm">
  <defs
     id="defs2">
    <rect
       id="rect60"
       height="38.885732"
       width="35.678662"
       y="17.638889"
       x="111.04482" />
    <rect
       id="rect54"
       height="15.233586"
       width="6.8150253"
       y="52.515783"
       x="37.282197" />
    <rect
       id="rect48"
       height="16.837121"
       width="6.0132576"
       y="52.114899"
       x="36.881313" />
    <rect
       id="rect38"
       height="38.885732"
       width="25.255682"
       y="27.260101"
       x="22.048611" />
  </defs>
  <sodipodi:namedview
     inkscape:window-maximized="0"
     inkscape:window-y="87"
     inkscape:window-x="0"
     inkscape:window-height="997"
     inkscape:window-width="1778"
     showgrid="false"
     inkscape:document-rotation="0"
     inkscape:current-layer="layer1"
     inkscape:document-units="mm"
     inkscape:cy="285.42328"
     inkscape:cx="549.49273"
     inkscape:zoom="1.32"
     inkscape:pageshadow="2"
     inkscape:pageopacity="0.0"
     borderopacity="1.0"
     bordercolor="#666666"
     pagecolor="#ffffff"
     id="base" />
  <metadata
     id="metadata5">
    <rdf:RDF>
      <cc:Work
         rdf:about="">
        <dc:format>image/svg+xml</dc:format>
        <dc:type
           rdf:resource="http://purl.org/dc/dcmitype/StillImage" />
        <dc:title></dc:title>
      </cc:Work>
    </rdf:RDF>
  </metadata>
  <g
     id="layer1"
     inkscape:groupmode="layer"
     inkscape:label="Livello 1">
    <path
       d="M 193.61367,157.29412 A 86.791344,77.370575 0 0 1 105.69948,233.30776 86.791344,77.370575 0 0 1 20.047509,155.26864 86.791344,77.370575 0 0 1 107.21425,78.573979 86.791344,77.370575 0 0 1 193.62689,155.94382 Z"
       sodipodi:arc-type="chord"
       sodipodi:open="true"
       sodipodi:end="0"
       sodipodi:start="0.017453293"
       sodipodi:ry="77.370575"
       sodipodi:rx="86.791344"
       sodipodi:cy="155.94382"
       sodipodi:cx="106.83555"
       sodipodi:type="arc"
       id="path10"
       style="fill:#d5f6ff;stroke-width:0.279513" />
    <path
       d="m 65.062451,89.927543 c 1.339612,2.045655 3.019155,3.860083 4.649859,5.678318 1.726105,1.90409 4.158263,2.381567 6.594517,2.670434 2.363224,0.19282 4.735179,0.05166 7.091124,0.334042 1.748616,0.230536 3.473091,0.596627 5.22481,0.803314 2.454378,0.290116 4.918622,0.469805 7.384388,0.629119 3.000192,0.15159 6.003291,0.26061 9.006341,0.3416 1.41739,0.0338 2.83494,0.0516 4.25268,0.057 1.17578,0.005 2.35153,-0.009 3.52729,-0.0111 1.56077,0.003 3.08174,-0.2414 4.56533,-0.710486 1.81874,-0.667335 3.61371,-1.38706 5.3956,-2.146104 1.2746,-0.623245 2.53869,-1.229429 3.8746,-1.711085 1.70963,-0.596064 3.40377,-1.235546 5.09863,-1.872115 4.46987,-1.521346 7.93422,-4.041187 12.21883,-6.515256 0.40444,-0.258688 0.64904,-0.596757 1.10621,-0.773408 0,0 -9.64782,3.736657 -9.64782,3.736657 v 0 c -0.33585,0.299455 -0.67448,0.562949 -1.07599,0.771948 15.74269,-9.019389 9.28283,-4.875916 5.42735,-3.516532 -1.6765,0.661652 -3.37046,1.276086 -5.06407,1.891562 -1.3606,0.446601 -2.71758,0.860806 -3.92687,1.656921 -1.78025,0.768178 -3.54375,1.558423 -5.37584,2.196809 -1.47152,0.632188 -2.70437,0.861531 -4.29658,0.960705 -1.16949,-5.29e-4 -2.33901,-0.01365 -3.50851,-0.0039 -1.44988,0.0098 -2.89967,0.02959 -4.3496,0.03157 -3.03062,0.0019 -6.06262,-0.0186 -9.08818,-0.215511 -2.40584,-0.167572 -4.806453,-0.409679 -7.198215,-0.717778 -1.763963,-0.154453 -3.49582,-0.486511 -5.243269,-0.760246 -0.482883,-0.06484 -1.67336,-0.233944 -2.134634,-0.255627 -1.666663,-0.07834 -3.348509,0.09896 -5.014518,-0.07243 -2.224591,-0.173754 -4.538914,-0.400703 -6.209975,-2.04534 -1.612043,-1.684901 -3.248885,-3.449032 -4.318963,-5.537364 0,0 -8.964525,5.10426 -8.964525,5.10426 z"
       id="path12"
       style="fill:#ffffff;stroke-width:0.264583" />
    <path
       d="m 58.091895,223.1153 c 1.529014,-0.76384 3.104668,-1.42937 4.652549,-2.15357 1.533965,-0.83984 3.199313,-1.35236 4.851821,-1.89502 1.347965,-0.45356 2.761681,-0.65346 4.161544,-0.87527 1.622944,-0.24844 3.269623,-0.27917 4.908288,-0.30573 1.958927,-0.041 3.918252,-0.0129 5.877242,-0.035 2.717316,0.012 5.434172,-0.0272 8.15144,-0.0344 2.675017,0.0109 5.349994,0.0254 8.025003,0.0359 1.972308,0.005 3.944628,0.008 5.916918,0.0237 1.42219,0.0155 2.84445,0.005 4.2667,0.0112 1.48379,-5.2e-4 2.96775,-7.9e-4 4.45152,-0.0136 1.95963,-0.0136 3.91937,-0.0165 5.87901,-0.003 1.83478,-0.0738 3.64504,0.19632 5.42335,0.62166 2.19453,0.51531 4.22051,1.50021 6.28309,2.3757 1.40464,0.61993 2.85074,1.11138 4.37138,1.32993 1.05253,0.0799 2.06531,0.36445 3.08225,0.62532 1.11397,0.21053 2.07106,0.79835 3.0351,1.36026 0.45613,0.26891 0.88264,0.58016 1.29975,0.90492 0,0 8.73115,-5.52787 8.73115,-5.52787 v 0 c -0.47024,-0.3322 -0.91233,-0.69552 -1.40846,-0.99224 -1.03114,-0.5544 -2.00805,-1.29058 -3.16103,-1.55814 -1.04587,-0.33872 -2.12015,-0.60022 -3.20821,-0.75799 -1.48627,-0.10241 -2.92198,-0.4443 -4.30065,-1.02125 -2.10017,-0.86135 -4.14253,-1.89213 -6.33939,-2.49167 -1.7935,-0.56108 -3.67384,-0.89709 -5.55861,-0.86241 -1.95701,0.0134 -3.91411,0.0111 -5.87111,-0.003 -1.47129,-0.0131 -2.94278,-0.0131 -4.41409,-0.0136 -1.43252,0.006 -2.86505,-0.004 -4.29751,0.0112 -1.99405,0.0154 -3.98813,0.0185 -5.98222,0.0238 -2.70759,0.0106 -5.41515,0.025 -8.122752,0.0353 -2.682382,-0.008 -5.3643,-0.0482 -8.046738,-0.0408 -1.941991,-0.0258 -3.884549,-0.008 -5.826651,-0.0193 -1.654424,0.0166 -3.308649,0.0409 -4.95912,0.16843 -1.436116,0.20829 -2.879103,0.42066 -4.289552,0.76042 -1.673564,0.54298 -3.395242,0.99174 -4.959866,1.81189 -1.502511,0.73006 -3.026992,1.41186 -4.566473,2.06031 0,0 -8.055673,6.44378 -8.055673,6.44378 z"
       id="path14"
       style="fill:#ffffff;stroke-width:0.264583" />
    <path
       d="m 31.07283,118.58675 c 2.529269,1.54207 5.285261,2.6359 8.103341,3.51727 1.481225,0.41951 3.003402,0.80672 4.552077,0.71203 1.534591,-0.31207 3.014146,-0.85967 4.456374,-1.46141 2.270678,-1.0541 4.640025,-1.8193 7.072588,-2.38962 1.473036,-0.26797 2.949662,-0.6661 4.455226,-0.71345 1.168948,-0.0368 1.469239,0.0611 2.647188,0.23019 3.03649,0.56689 5.703938,2.28905 7.785954,4.54124 0.434317,0.46982 0.814642,0.98681 1.221963,1.48022 1.468228,2.08951 2.70093,4.4028 3.132031,6.94781 0.07056,0.41655 0.08953,0.84021 0.134295,1.26031 0.03378,2.14071 -0.31754,4.38606 -1.532514,6.20261 -0.219647,0.3284 -0.497766,0.61367 -0.746652,0.92051 -0.270743,0.28055 -0.519525,0.5841 -0.812234,0.84165 -0.29723,0.26153 -0.624326,0.48798 -0.951788,0.71049 -0.352375,0.23945 -1.454391,0.88787 -1.085853,0.67413 13.581004,-7.87647 8.215262,-4.63299 4.899052,-3.16485 -4.142126,1.80014 -8.692108,2.06911 -13.139558,2.33955 -3.701632,0.20379 -7.408828,0.11228 -11.113005,0.16947 -4.867471,0.28171 -6.970675,2.83405 -11.945585,6.06451 -0.197874,0.12848 -0.797542,1.51559 -0.847641,1.62424 -0.613235,1.51467 -1.06341,3.1404 -0.974029,4.79148 0.03719,0.68703 0.377132,2.75295 0.480499,3.41603 0.297127,2.6491 0.968455,5.19003 2.202403,7.55198 1.115449,1.55799 2.488811,2.94312 4.007686,4.1094 1.162534,0.78578 2.265185,1.65558 3.163898,2.73715 0.640008,0.81632 1.167376,1.88354 1.101267,2.95571 -0.01749,0.28381 -0.104886,0.55894 -0.157329,0.8384 -0.201197,0.91947 -0.518041,1.87944 -1.107829,2.63423 -0.580327,0.74268 -1.454153,1.3244 -2.201397,1.87884 -0.342614,0.19099 -1.365819,0.77206 -1.02784,0.57298 2.490147,-1.46681 4.999027,-2.90176 7.484599,-4.37631 0.46396,-0.27524 -0.951074,0.50975 -1.419111,0.778 -4.063836,2.32917 -8.393197,4.44525 -12.173471,7.28364 -0.94289,0.58659 -1.329566,1.56077 -1.968151,2.38541 -1.034666,1.33614 0.381318,-0.64662 -0.514381,0.62747 -0.322102,0.39495 -0.617273,0.83893 -1.061271,1.10944 -0.112569,0.0686 -0.468825,0.24066 -0.355184,0.17386 2.807171,-1.64993 5.624475,-3.28255 8.436713,-4.92383 -0.785022,0.43508 -1.618784,0.6879 -2.499887,0.83162 -0.659754,0.11379 -1.331724,0.0604 -1.99219,0.14616 0,0 -8.239903,6.23991 -8.239903,6.23991 v 0 c 0.221094,-0.0615 0.432281,-0.16472 0.659326,-0.19806 0.424455,-0.0623 0.873958,0.0406 1.299506,-0.0317 0.915429,-0.0636 1.874785,-0.13948 2.700578,-0.56941 4.866391,-2.78984 7.947009,-3.19424 10.535613,-6.87379 0.738685,-0.95197 1.330153,-1.99974 2.410407,-2.6407 0.321495,-0.22319 0.636744,-0.45566 0.964488,-0.66958 0.393028,-0.25652 1.605389,-0.9727 1.197092,-0.74125 -2.410312,1.36632 -4.807188,2.75626 -7.203898,4.1463 -0.446796,0.25913 0.905005,-0.49814 1.353987,-0.75346 10.037762,-5.70828 6.730875,-3.4787 10.849557,-6.30806 1.805868,-1.57643 2.628,-2.80795 3.003275,-5.23184 0.02675,-0.35384 0.08615,-0.70673 0.08025,-1.06154 -0.02106,-1.26521 -0.590312,-2.51224 -1.349007,-3.49592 -0.931437,-1.16387 -2.095699,-2.11426 -3.339978,-2.93041 -1.446903,-1.02465 -2.764404,-2.2677 -3.794562,-3.71436 -0.312875,-0.5601 -0.608893,-1.05597 -0.859224,-1.65122 -0.736184,-1.75059 -1.071004,-3.62397 -1.349988,-5.49184 -0.148236,-1.12089 -0.328909,-2.13437 -0.303022,-3.26838 0.03548,-1.55447 0.549476,-3.06292 1.25263,-4.43152 0.176122,-0.26482 0.329842,-0.54599 0.528365,-0.79446 0.152971,-0.19146 0.347273,-0.34587 0.520911,-0.5188 -2.728743,1.55297 -5.457483,3.10594 -8.186224,4.65891 -0.220226,0.12232 0.385268,-0.33089 0.607462,-0.44958 0.691682,-0.36951 1.092684,-0.34763 1.881069,-0.46107 3.802107,-0.22992 7.622291,-0.10704 11.424409,-0.37769 4.390919,-0.21295 8.900885,-0.29655 13.070422,-1.84759 4.786066,-2.01209 6.461815,-3.25632 12.409932,-6.77314 1.086384,-0.64233 1.975,-1.57332 2.730738,-2.56837 0.221792,-0.35454 0.470683,-0.6935 0.665374,-1.06361 1.081037,-2.05506 1.399672,-4.43965 1.265729,-6.72991 -0.177276,-1.17587 -0.195331,-1.59367 -0.557122,-2.74784 -0.667515,-2.1295 -1.826789,-4.06747 -3.12547,-5.86519 -0.425138,-0.52558 -0.822262,-1.07512 -1.275411,-1.57676 -1.70715,-1.8898 -4.106733,-3.70583 -6.474237,-4.67522 -0.490104,-0.20068 -1.017966,-0.29264 -1.526948,-0.43896 -1.139494,-0.24457 -1.580687,-0.38723 -2.728296,-0.45401 -1.562902,-0.0909 -3.082732,0.32669 -4.605393,0.60898 -0.237707,0.0511 -2.448007,0.52292 -2.695739,0.58883 -1.509937,0.40178 -2.940629,1.04325 -4.411453,1.5591 -1.357694,0.68334 -2.791529,1.13983 -4.227441,1.624 -1.475418,0.43812 -2.951316,0.0555 -4.425826,-0.2446 -2.74135,-0.70242 -5.465561,-1.62304 -7.779141,-3.30195 0,0 -8.663086,5.49718 -8.663086,5.49718 z"
       id="path16"
       style="fill:#784421;stroke-width:0.264583;fill-opacity:1" />
    <path
       d="m 110.23086,123.22596 c -0.4552,2.05119 -0.61622,4.1471 -0.78344,6.23669 -0.18145,2.4672 0.39419,4.90659 1.36243,7.16081 0.59256,1.66732 1.76697,3.04225 2.45239,4.66242 0.15008,0.35476 0.25962,0.72534 0.38943,1.088 0.66944,2.27293 0.87484,4.65645 0.83117,7.01692 -0.18026,2.82968 -1.64378,5.25093 -2.95158,7.6868 -0.64152,1.28424 -1.57632,2.43027 -2.19192,3.72715 -0.68853,1.45053 -1.0099,3.05552 -1.36251,4.60903 -0.51591,3.06552 0.004,6.08836 0.91306,9.01782 1.06672,2.63378 2.49505,5.12287 4.14256,7.43408 1.19555,1.56656 2.42672,3.12368 3.90084,4.44262 0.892,0.79811 1.34306,1.0778 2.31612,1.76956 1.52414,0.93925 3.09851,1.8967 4.82949,2.41186 0.99614,0.29646 1.77902,0.39113 2.79977,0.55773 2.62736,0.43745 5.22436,0.12648 7.79614,-0.45182 4.69488,-1.54154 10.08734,-3.51893 12.39976,-8.05229 0.81984,-2.13712 1.1483,-4.38866 1.39447,-6.65044 0.24126,-2.74934 0.31388,-5.50749 0.3719,-8.26538 0.13513,-1.37 0.36224,-2.78001 1.14149,-3.95147 0.20082,-0.3019 1.14306,-1.37257 1.3748,-1.64025 0.32693,-0.25954 0.64254,-0.53403 0.98081,-0.77862 0.3725,-0.26934 0.75944,-0.51859 1.14953,-0.76175 0.42056,-0.26217 1.70856,-1.00523 1.28156,-0.75368 -11.71484,6.90147 -8.92674,4.93248 -5.79231,3.58738 0.45332,-0.19453 0.9165,-0.36524 1.37475,-0.54785 2.29251,-0.80612 4.58933,-1.60967 6.92378,-2.28694 1.293,-0.35719 2.62728,-0.52026 3.91369,-0.90558 0.87723,-0.26276 1.76384,-0.60403 2.62244,-0.92002 2.02242,-0.85708 4.16655,-1.52095 6.08356,-2.61398 9.82926,-5.60436 7.05501,-3.20325 10.80021,-6.61639 1.50905,-1.90724 2.08967,-4.30853 1.69041,-6.71536 -0.10245,-0.61762 -0.312,-1.21263 -0.468,-1.81895 -1.04003,-3.38921 -2.87637,-6.42687 -4.50194,-9.54962 -0.54834,-1.11073 -1.18995,-2.16786 -1.82167,-3.23097 -0.11463,-0.19291 -0.20015,-0.40366 -0.32934,-0.58714 -0.20782,-0.29516 -0.45228,-0.56273 -0.67842,-0.8441 -1.69842,-2.10891 -3.53186,-4.11216 -5.54702,-5.92182 -1.42629,-1.15465 -3.10438,-1.92798 -4.79047,-2.62191 -1.44812,-0.61349 -2.99083,-0.77017 -4.54311,-0.85049 -2.3027,-0.036 -4.60865,-0.0496 -6.91092,0.0158 -1.80755,0.0808 -3.59046,0.30877 -5.26313,1.01498 -5.92454,3.13846 -18.75836,10.93846 -1.78306,0.96136 0.21041,-0.12367 -0.43549,0.22144 -0.66062,0.31568 -0.69428,0.29062 -0.83726,0.29527 -1.58388,0.48262 -1.86288,0.38307 -3.75757,0.36287 -5.64443,0.24343 -1.33626,-0.0943 -2.67191,-0.19596 -4.01027,-0.25571 -0.90932,-0.0406 -1.81958,-0.0347 -2.72953,-0.0362 -0.94557,-0.002 -1.8911,0.004 -2.83668,0.002 -0.85516,-0.002 -1.71032,-0.003 -2.56548,-0.004 -0.86606,-0.003 -1.73207,0.004 -2.59812,0.004 -0.90818,-0.004 -1.81632,-7.9e-4 -2.72449,7.9e-4 -0.82829,0.002 -1.65656,0.003 -2.48486,2.4e-4 0,0 -8.27658,6.15147 -8.27658,6.15147 v 0 c 0.79405,-0.18738 1.61495,-0.0653 2.42602,-0.0957 0.90736,0.002 1.8147,0.005 2.72207,8e-4 0.86207,1.5e-4 1.72411,0.008 2.58618,0.004 0.85952,-7.9e-4 1.71904,-0.002 2.57855,-0.005 0.94514,-0.002 1.89026,0.001 2.83539,-0.002 0.90662,-0.001 1.81324,0.002 2.71985,0.006 1.3584,0.0188 2.71607,0.0715 4.07136,0.16744 1.93318,0.1265 3.86487,0.25732 5.79374,-0.0272 4.79282,-0.68526 6.23235,-2.94424 11.81193,-5.91606 6.98091,-3.71821 -11.96031,6.80522 -7.65018,4.40979 1.63904,-0.98202 3.20794,-1.28754 5.10826,-1.44617 2.25865,-0.12035 4.51997,-0.0606 6.78066,-0.0241 1.46591,0.0446 2.94594,0.0961 4.34722,0.57921 1.62919,0.5866 3.23921,1.32134 4.67609,2.28963 2.06701,1.65409 3.83874,3.61439 5.40229,5.74977 1.02119,1.44569 1.91288,2.97912 2.82235,4.49743 1.7284,2.96227 3.54842,5.91032 4.46849,9.24914 0.11166,0.55654 0.27702,1.10495 0.33499,1.66961 0.22945,2.23489 -0.52066,4.36804 -2.13607,5.91514 -3.20666,2.43096 -1.86617,1.34402 6.39599,-3.43073 0.45499,-0.26295 -0.92808,0.49363 -1.39935,0.72614 -1.27906,0.63106 -1.79781,0.84584 -3.12077,1.37732 -0.48465,0.19471 -0.97336,0.37916 -1.46003,0.56873 -0.84256,0.31589 -1.67014,0.67308 -2.52291,0.96024 -0.97063,0.32687 -1.94565,0.48382 -2.94461,0.67261 -0.32009,0.0605 -0.63559,0.14323 -0.95338,0.21484 -2.39649,0.62526 -4.7159,1.49682 -7.06501,2.27575 -4.90976,1.77626 -7.30954,3.5946 -12.86274,6.78697 -0.71646,0.41187 -1.78139,1.14823 -2.41389,1.69661 -0.34104,0.29568 -0.64356,0.63307 -0.96533,0.94961 -0.52872,0.69114 -0.87831,1.08246 -1.27394,1.86977 -0.67555,1.34436 -0.87667,2.84993 -0.94307,4.33371 -0.004,2.71333 -0.0485,5.43313 -0.35706,8.13171 -0.30096,2.1649 -0.69397,4.37934 -1.72175,6.33283 -0.3601,0.50291 -0.46614,0.71324 -0.92383,1.11988 -0.17295,0.15365 -0.75581,0.53107 -0.55389,0.41818 2.7123,-1.51636 5.38205,-3.10786 8.09024,-4.63153 0.24493,-0.1378 -0.44865,0.34327 -0.69815,0.4726 -0.29049,0.15058 -0.60823,0.24147 -0.91235,0.3622 -2.46836,0.73546 -5.03711,1.16322 -7.6125,0.81956 -0.95779,-0.12338 -1.72213,-0.19277 -2.65986,-0.42708 -1.68803,-0.42179 -3.23617,-1.2615 -4.71587,-2.15108 -2.362,-1.60932 -4.39947,-3.54175 -6.0367,-5.90117 -1.52186,-2.26854 -3.00411,-4.60176 -3.9818,-7.1644 -0.81791,-2.78482 -1.32597,-5.64327 -0.70056,-8.53217 0.30149,-1.21314 0.40814,-1.81869 0.87938,-2.99005 0.72808,-1.80979 1.91528,-3.38176 2.78949,-5.11677 1.35507,-2.57599 2.75417,-5.18134 2.81893,-8.16646 -0.031,-2.46766 -0.25157,-4.95292 -1.0003,-7.31762 -0.13934,-0.40281 -0.25713,-0.81374 -0.41802,-1.20844 -0.65789,-1.61388 -1.8286,-2.97114 -2.43665,-4.61257 -0.91335,-2.13303 -1.39127,-4.40507 -1.12733,-6.73347 0.14553,-2.04133 0.31544,-4.126 1.06353,-6.05001 0,0 -9.35788,4.3526 -9.35788,4.3526 z"
       id="path18"
       style="fill:#784421;stroke-width:0.264583" />
    <path
       transform="scale(0.26458333)"
       id="path20"
       d="m 504.61409,698.49642 c -23.72127,-4.64997 -50.24614,-31.78471 -59.42971,-60.79613 -2.28743,-7.22611 -2.8592,-12.36903 -2.37416,-21.35473 0.60032,-11.12141 1.29616,-13.13457 11.52147,-33.33333 12.25258,-24.20337 14.04499,-31.17173 12.21511,-47.4887 -1.6184,-14.43131 -1.84948,-15.17167 -9.85777,-31.58414 -3.65955,-7.5 -7.09703,-16.57981 -7.63885,-20.17736 l -0.98512,-6.541 33.92201,0.46844 33.92202,0.46844 11.32593,-5.29107 11.32592,-5.29108 h 24.28014 c 23.72051,0 24.48967,0.10165 33.37104,4.41038 13.10096,6.35583 26.52696,20.85366 39.53853,42.695 17.55074,29.46084 21.78388,43.56536 16.71562,55.69541 -1.87465,4.48665 -3.25341,5.30925 -14.01515,8.3617 -43.05988,12.21346 -51.66623,15.67541 -78.70869,31.66102 -29.02463,17.15732 -30.91383,20.21117 -32.54417,52.60693 -0.62974,12.51325 -1.97427,25.99001 -2.98785,29.94835 -1.78654,6.97695 -2.01108,7.19189 -7.34483,7.03095 -3.02607,-0.0914 -8.53924,-0.76139 -12.25149,-1.48908 z"
       style="fill:#784421;fill-opacity:1;stroke-width:1.51515" />
    <path
       transform="scale(0.26458333)"
       id="path22"
       d="M 102.33129,702.99058 C 73.207651,641.07439 68.706185,572.42617 89.527306,507.72727 94.059464,493.64419 105.60149,467.76204 112.94705,455.21021 l 3.68976,-6.30494 10.2422,4.97987 c 25.31514,12.30849 36.42111,13.27933 57.2119,5.00123 35.84044,-14.2703 54.33873,-14.30049 72.97635,-0.1191 14.26356,10.85315 25.98486,34.80413 23.96042,48.96 -0.85213,5.95852 -5.78933,19.69651 -7.07885,19.69723 -0.25519,1.5e-4 -5.91853,1.06748 -12.58519,2.37186 -7.17019,1.40289 -26.35543,2.8399 -46.9697,3.51811 -32.18137,1.05878 -35.37031,1.41436 -41.66667,4.64604 -11.67783,5.99379 -28.8772,18.57467 -30.99353,22.67094 -4.6492,8.99882 -5.69797,16.91871 -3.91599,29.57175 3.73322,26.50785 8.95987,36.64851 25.82464,50.10463 12.37225,9.87162 15.82608,15.82393 13.62835,23.48699 -2.4165,8.42585 -5.34366,11.32507 -19.93151,19.74138 -7.78657,4.49238 -16.88468,10.62601 -20.21802,13.63032 -5.67537,5.11513 -22.1753,17.90793 -25.92667,20.10157 -1.04452,0.6108 -4.41101,-4.81217 -8.86325,-14.27751 z"
       style="fill:#784421;fill-opacity:1;stroke-width:1.51515" />
    <path
       d="m 97.682618,217.5044 c 2.710112,-0.11966 5.419112,-0.25463 8.130402,-0.3491 2.38245,-0.079 4.76296,-0.14444 7.13553,0.11647 2.86635,0.5288 5.61031,1.59269 8.35733,2.54626 3.37992,1.20579 6.71963,2.51912 10.08139,3.77501 2.23659,0.84033 4.49918,1.60674 6.70311,2.53082 1.25574,0.54709 2.59016,0.81487 3.94575,0.94464 1.00637,0.0823 2.01653,0.069 3.0252,0.0666 0.73636,-0.002 1.47272,-0.004 2.20908,-0.006 0,0 8.34606,-6.06711 8.34606,-6.06711 v 0 c -0.74166,0.002 -1.48333,0.006 -2.22497,0.0136 -0.99966,0.009 -1.99955,0.0203 -2.99917,0.006 -1.29902,-0.0466 -2.59733,-0.17567 -3.82467,-0.63751 -2.26718,-0.86217 -4.56646,-1.62544 -6.83551,-2.4834 -3.40756,-1.18437 -6.81626,-2.36113 -10.15245,-3.73958 -2.76801,-0.96947 -5.49669,-2.10821 -8.35087,-2.79244 -2.41227,-0.40099 -4.85443,-0.33035 -7.29108,-0.21911 -2.63541,0.0902 -5.27327,0.28072 -7.91,0.23193 0,0 -8.345132,6.06309 -8.345132,6.06309 z"
       id="path26"
       style="fill:#ffffff;fill-opacity:1;stroke-width:0.264583" />
    <path
       transform="scale(0.26458333)"
       id="path28"
       d="m 367.42424,879.52341 c -53.20357,-7.65072 -82.13831,-15.76675 -119.31818,-33.46809 -8.125,-3.86831 -14.76109,-7.42689 -14.74687,-7.90794 0.0311,-1.05301 13.2084,-6.84624 23.56037,-10.35803 6.56731,-2.22789 17.97378,-2.59738 93.99103,-3.04472 l 86.51665,-0.50912 13.288,4.60421 c 39.37265,13.64238 79.55509,29.54296 77.52673,30.67809 -4.80489,2.68896 -40.54802,12.15093 -59.93645,15.86647 -18.15225,3.47863 -25.04384,3.9936 -58.45704,4.36815 -20.83333,0.23354 -39.92424,0.13047 -42.42424,-0.22902 z"
       style="fill:#ffffff;fill-opacity:1;stroke-width:1.51515" />
    <path
       transform="scale(0.26458333)"
       id="path30"
       d="m 376.51515,353.87642 c -10,-1.09917 -22.61363,-2.7227 -28.0303,-3.60783 -5.41667,-0.88513 -15.34973,-1.61449 -22.07348,-1.62078 -19.03494,-0.0178 -26.42102,-2.8806 -35.46238,-13.74491 -7.47138,-8.97777 -11.36175,-14.88369 -10.38993,-15.77281 0.27585,-0.25238 6.97882,-2.52107 14.89549,-5.04155 17.26435,-5.49655 45.14577,-11.47185 65.90909,-14.12504 21.43694,-2.73927 68.60433,-2.30635 90.90909,0.83441 29.79145,4.19496 65.78229,13.82316 90.09245,24.10136 l 5.24399,2.21712 -5.80781,2.42665 c -7.79198,3.2557 -10.06007,3.00921 -5.43772,-0.59096 4.02172,-3.13237 -18.29569,4.86448 -38.63637,13.84431 -5.83333,2.57525 -16.0606,6.63818 -22.72727,9.02873 -12.04617,4.31955 -12.33229,4.34554 -46.21212,4.19813 -18.75,-0.0816 -42.27273,-1.04765 -52.27273,-2.14683 z"
       style="fill:#ffffff;fill-opacity:1;stroke-width:1.51515" />
    <path
       d="m 29.132067,131.71483 c 1.488339,-0.004 2.971109,-0.0372 4.454461,-0.16257 1.236866,-0.0245 2.405359,-0.37202 3.566462,-0.76294 1.279887,-0.41888 2.576668,-0.74188 3.895584,-1.01061 1.931819,-0.35505 3.875556,-0.61327 5.834047,-0.75776 1.621441,-0.10795 3.246784,-0.12344 4.871135,-0.13577 1.270656,0.0426 2.560495,-0.12422 3.809119,0.15731 1.267066,0.4694 1.997154,1.57933 2.475399,2.78373 0.15448,0.47159 0.450774,1.78905 0.180383,2.24623 -0.05922,0.10014 -0.192437,0.13077 -0.288655,0.19616 -3.167722,1.69076 -7.523525,4.52095 6.838354,-4.02924 0.225079,-0.134 -0.475816,0.21958 -0.717978,0.31944 -0.252609,0.10417 -0.510533,0.19495 -0.7658,0.29242 -1.248719,0.43322 -2.556949,0.64276 -3.848372,0.90455 -1.08149,0.10161 -2.083901,0.50095 -3.12093,0.78853 -1.293339,0.36666 -2.551668,0.84398 -3.855331,1.17349 -1.112213,0.21155 -2.192594,0.54724 -3.286871,0.82947 -0.804815,0.32691 -1.649563,0.53074 -2.488658,0.74654 -0.798859,0.36574 -1.613151,0.68353 -2.431423,1.00139 -3.549679,1.70839 -1.572929,0.74469 -9.627674,5.4835 -0.242398,0.14261 -0.519337,0.56593 -0.699206,0.76129 -0.283837,0.30829 -0.41905,0.38503 -0.755274,0.63709 -0.760892,0.75726 -1.367515,1.65308 -2.152537,2.38942 -0.794049,1.0038 -1.17245,2.21126 -1.378254,3.45579 -0.175755,1.49405 -0.128169,3.00731 -0.128717,4.50969 -0.176067,1.75736 -0.240234,3.52234 -0.318886,5.28589 -0.05424,1.49196 -0.07841,2.98471 -0.09405,4.47749 -0.0061,1.22364 0.0046,2.44722 -0.0024,3.67086 -0.0051,1.20404 0.0038,2.40812 0.0075,3.61217 0.05873,1.1996 0.31487,2.36595 0.544118,3.53968 0.302454,0.82969 0.48867,1.68341 0.578814,2.55986 -7.94e-4,0.74825 0.184541,1.54995 -0.02543,2.27844 -0.05823,0.058 -0.09366,0.16032 -0.174704,0.17405 -0.145802,0.0247 -0.563568,0.008 -0.438029,-0.0703 2.748119,-1.71071 5.604698,-3.24082 8.394518,-4.88265 0.15726,-0.0925 -0.328708,0.15864 -0.495009,0.23374 -0.661445,0.29869 -0.520552,0.23158 -1.224254,0.47396 -0.805058,0.27262 -0.408228,0.14406 -1.190119,0.38681 0,0 -8.136941,6.26204 -8.136941,6.26204 v 0 c 0.819307,-0.21084 0.406512,-0.0948 1.237946,-0.34952 4.03384,-1.40335 10.490732,-2.29 11.293213,-6.799 0.01701,-0.83616 -0.009,-1.67465 -0.108979,-2.5056 -0.130998,-0.89255 -0.346877,-1.76406 -0.638464,-2.61839 -0.237188,-1.10183 -0.451326,-2.20946 -0.475551,-3.34087 0.0034,-1.20645 0.01212,-2.41295 0.0052,-3.61937 -0.0087,-1.22103 -0.0013,-2.44205 -0.0033,-3.6631 -0.005,-1.47079 -0.0046,-2.94196 0.04689,-4.41207 0.06214,-1.77881 0.231621,-3.54883 0.316526,-5.32584 0.01056,-1.45158 -0.0068,-2.91848 0.278791,-4.34836 0.298665,-1.11308 0.760252,-2.1366 1.618473,-2.9386 0.694803,-0.80127 1.37678,-1.6263 2.203553,-2.29662 0.361529,-0.34386 0.699211,-0.71981 1.115999,-0.99925 0.135766,-0.091 0.564777,-0.32938 0.42282,-0.24835 -8.675373,4.95183 -11.428338,6.20572 -8.053303,4.65021 0.758024,-0.44348 1.610209,-0.61337 2.382467,-1.03264 0.755161,-0.45915 1.648384,-0.50403 2.473746,-0.78781 1.005448,-0.49739 2.165279,-0.66266 3.237868,-0.97134 1.33306,-0.25125 2.607992,-0.67817 3.887787,-1.12367 0.195752,-0.0558 0.391501,-0.11159 0.587253,-0.16738 0.184375,-0.0396 0.370838,-0.0704 0.553128,-0.11873 0.64847,-0.17177 1.215313,-0.57881 1.913146,-0.56632 1.339083,-0.22998 2.6656,-0.52667 3.989401,-0.83007 4.111133,-1.2184 6.49986,-3.28185 10.950927,-5.84174 0.191285,-0.11002 0.731353,-0.57481 0.86764,-0.74512 0.12033,-0.15038 0.198622,-0.33003 0.297934,-0.49504 0.223184,-1.1124 0.08303,-2.18102 -0.350197,-3.23465 -0.64434,-1.44182 -1.548273,-2.73055 -2.938513,-3.5444 -0.499369,-0.19172 -0.789993,-0.33811 -1.332659,-0.40107 -0.880837,-0.10217 -1.795732,0.0734 -2.679491,0.001 -1.66004,0.005 -3.32005,0.0375 -4.97763,0.13359 -1.962449,0.12536 -3.917632,0.29714 -5.856531,0.63704 -2.422421,0.37275 0.654418,-0.11661 -1.545161,0.28017 -0.600144,0.10827 -0.700214,0.0623 -1.261438,0.24287 -0.175591,0.0565 -0.336801,0.15265 -0.512654,0.20833 -0.20044,0.0635 -0.408742,0.0987 -0.613111,0.14811 -1.148249,0.32563 -2.245244,0.88182 -3.454135,0.94152 -1.444504,0.15452 -2.884737,0.30806 -4.340212,0.20051 0,0 -8.343963,6.06224 -8.343963,6.06224 z"
       id="path32"
       style="fill:#008000;fill-opacity:1;stroke-width:0.264583" />
    <path
       d="m 137.86471,176.9558 c -1.57185,-0.99537 -3.1173,-2.0143 -4.56138,-3.18913 -0.9427,-0.84117 -1.9669,-1.58294 -2.84871,-2.48976 -0.58038,-0.7114 -1.19226,-1.37408 -1.64562,-2.17608 -0.7718,-1.46838 -1.04933,-3.10976 -1.41145,-4.70911 -0.3063,-1.28326 -0.45267,-2.59199 -0.52775,-3.90634 -0.0489,-1.26676 -0.0419,-2.5351 -0.0338,-3.80257 0.01,-1.30193 -0.007,-2.60371 0.001,-3.90563 0.005,-1.29922 0.002,-2.59843 0.002,-3.89769 -0.024,-1.36122 0.15474,-2.71701 0.45564,-4.04161 0.16037,-1.14998 0.45401,-2.2696 0.78196,-3.38192 0.55798,-1.66183 1.04564,-3.32922 1.33639,-5.05831 0.17588,-1.37281 0.35859,-2.77549 0.11207,-4.1451 -0.42793,-1.46906 -1.23745,-2.81846 -2.04204,-4.11372 -0.45358,-0.99083 -1.2006,-1.78756 -1.75489,-2.71425 -0.22466,-0.56508 -1.07217,-1.48686 -1.20269,-2.03544 -0.0152,-0.064 0.0478,-0.12263 0.0717,-0.18395 -2.73779,1.80597 -5.47558,3.61193 -8.21337,5.4179 0.22045,-0.076 0.42964,-0.20179 0.66134,-0.22789 0.33528,-0.0378 0.67586,0.004 1.01144,0.0395 1.03134,0.10774 2.05736,0.37958 3.06792,0.60281 1.43605,0.32177 2.89545,0.52336 4.36304,0.62053 1.33541,0.0658 2.67336,0.0424 4.00983,0.0347 1.66801,0.002 3.33591,-0.0151 5.00392,-0.0165 1.83995,-0.02 3.68038,0.0288 5.51968,-0.0275 1.32543,-0.0751 2.64735,-0.19834 3.97256,-0.2767 1.157,-0.0645 2.3158,-0.0735 3.47414,-0.0918 1.48284,0.0149 2.96955,-0.0645 4.44732,0.0835 1.21638,0.059 2.08709,0.78002 3.01744,1.47395 1.24054,0.82549 2.3787,1.77824 3.48658,2.77046 1.00697,0.95465 2.02614,1.86942 2.90814,2.94157 0.72675,0.90059 1.38888,1.85542 1.99358,2.84175 0.57993,1.06759 0.95088,2.21803 1.29891,3.3762 0.0476,0.27704 0.31759,0.85426 0.0378,1.1227 -0.17609,0.16897 -0.9034,0.3575 -0.69475,0.23092 2.68101,-1.62643 5.4036,-3.18332 8.1054,-4.77498 -1.96355,1.01201 -4.12035,1.5716 -6.28044,1.97781 -2.33442,0.38869 -4.69121,0.58282 -7.05264,0.70206 -1.87511,0.0882 -3.75265,0.0911 -5.62937,0.0918 -1.31765,-0.005 -2.6353,-0.008 -3.95295,-0.0127 -1.07319,-0.008 -2.1464,-0.007 -3.21961,-0.0118 -4.97254,-0.0853 -5.05221,1.85963 -11.44967,5.81723 -0.75365,0.99118 -1.14791,2.16606 -1.54216,3.33065 -0.49927,1.07175 -0.64728,2.25904 -0.76551,3.42352 0,0 9.21985,-4.5651 9.21985,-4.5651 v 0 c 0.1444,-1.10786 0.4084,-2.17709 0.8565,-3.20493 0.41335,-1.08396 0.87774,-2.1387 1.71157,-2.97534 -2.79653,1.60917 -5.57306,3.25363 -8.3896,4.82752 -0.13518,0.0755 0.20592,-0.23506 0.33203,-0.32492 0.498,-0.35485 1.12551,-0.26855 1.69537,-0.27557 1.08172,-0.004 2.16343,-0.003 3.24514,-0.008 1.32871,-0.002 2.6574,0.002 3.98611,-0.006 1.91546,-0.011 3.8308,-0.0428 5.74494,-0.11778 2.37289,-0.11521 4.74498,-0.25706 7.10022,-0.57963 2.18816,-0.36057 4.34451,-0.87133 6.41809,-1.6729 3.14189,-1.8283 6.32624,-3.58551 9.42567,-5.4849 0.70256,-0.43054 0.28998,-1.86717 0.11026,-2.45155 -0.3993,-1.22769 -0.81405,-2.44734 -1.43964,-3.58331 -0.62623,-1.03744 -1.28911,-2.05252 -2.06072,-2.98929 -0.28174,-0.32218 -0.54457,-0.66082 -0.83213,-0.9778 -0.67591,-0.74506 -1.54683,-1.27791 -2.19911,-2.05119 -1.11983,-1.00923 -2.22663,-2.05107 -3.50263,-2.86443 -1.0261,-0.78135 -1.97708,-1.7118 -3.299,-1.94005 -1.51621,-0.19899 -3.03534,-0.14814 -4.56263,-0.14837 -1.1486,-0.0158 -2.29845,-0.0402 -3.44661,0.004 -1.35497,0.0684 -2.70367,0.21013 -4.05394,0.33886 -1.82501,0.13892 -3.65862,0.0457 -5.48767,0.0701 -1.65942,5.3e-4 -3.3188,-0.0138 -4.9782,-0.004 -1.31443,-0.003 -2.62892,-0.004 -3.94324,-0.0212 -1.4568,-0.04 -2.91347,-0.14544 -4.34533,-0.43197 -1.04474,-0.20953 -2.08735,-0.42813 -3.12852,-0.65479 -0.35416,-0.0771 -0.70635,-0.16351 -1.06173,-0.23476 -0.28144,-0.0564 -0.59934,-0.29107 -0.84828,-0.14817 -3.09616,1.77739 -6.0013,3.86855 -9.00196,5.80282 0.26664,0.95963 0.88389,1.74657 1.38043,2.60111 0.57023,0.92725 1.30553,1.73414 1.80671,2.7061 0.74676,1.15715 1.5131,2.37427 1.82442,3.7279 0.0964,1.28512 -0.0327,2.57675 -0.22446,3.8486 -0.31927,1.69794 -0.85893,3.33296 -1.40888,4.96847 -0.33472,1.14271 -0.58283,2.30102 -0.76608,3.47767 -0.23483,1.39105 -0.35518,2.80325 -0.35361,4.21431 -5.3e-4,1.29857 -0.003,2.59705 -5e-5,3.89557 0.006,1.30357 -0.015,2.60691 -0.0115,3.91049 0.005,1.28786 -5.3e-4,2.57628 0.0577,3.8632 0.0906,1.36065 0.35266,2.69844 0.6684,4.024 0.40012,1.68671 0.72279,3.40947 1.48027,4.98361 0.47053,0.90747 1.10893,1.65676 1.77521,2.42562 0.91385,0.9532 1.98401,1.70538 2.99668,2.54789 1.45128,1.1613 2.99155,2.18329 4.49203,3.27562 0,0 8.70627,-5.50664 8.70627,-5.50664 z"
       id="path34"
       style="fill:#008000;fill-opacity:1;stroke-width:0.264583" />
    <text
       style="fill:black;fill-opacity:1;line-height:1.25;stroke:none;font-family:sans-serif;font-style:normal;font-weight:normal;font-size:10.58333333px;white-space:pre;shape-inside:url(#rect38);"
       id="text36"
       xml:space="preserve" />
    <text
       transform="matrix(1.3863335,0,0,1.3191893,107.3387,33.710105)"
       id="text44"
       y="53.317551"
       x="37.683079"
       style="font-style:normal;font-variant:normal;font-weight:bold;font-stretch:normal;font-size:50.8px;line-height:2.15;font-family:sans-serif;-inkscape-font-specification:'sans-serif Bold';white-space:pre;inline-size:32.5207;fill:#ff0000;fill-opacity:1;stroke:none;stroke-width:0.264583"
       xml:space="preserve"><tspan
         x="37.683079"
         y="53.317551"><tspan
           style="font-style:normal;font-variant:normal;font-weight:bold;font-stretch:normal;font-size:50.8px;font-family:sans-serif;-inkscape-font-specification:'sans-serif Bold';fill:#ff0000;stroke-width:0.264583">?</tspan></tspan></text>
    <text
       style="fill:black;fill-opacity:1;line-height:1.25;stroke:none;font-family:sans-serif;font-style:normal;font-weight:normal;font-size:10.58333333px;white-space:pre;shape-inside:url(#rect48);"
       id="text46"
       xml:space="preserve" />
    <text
       style="fill:black;fill-opacity:1;line-height:1.25;stroke:none;font-family:sans-serif;font-style:normal;font-weight:normal;font-size:10.58333333px;white-space:pre;shape-inside:url(#rect54);"
       id="text52"
       xml:space="preserve" />
    <text
       style="fill:black;fill-opacity:1;line-height:1.25;stroke:none;font-family:sans-serif;font-style:normal;font-weight:normal;font-size:10.58333333px;white-space:pre;shape-inside:url(#rect60);"
       id="text58"
       xml:space="preserve" />
    <text
       xml:space="preserve"
       style="font-style:normal;font-variant:normal;font-weight:bold;font-stretch:normal;font-size:50.8px;line-height:2.15;font-family:sans-serif;-inkscape-font-specification:'sans-serif Bold';white-space:pre;inline-size:32.5207;fill:#ff0000;fill-opacity:1;stroke:none;stroke-width:0.264583"
       x="37.683079"
       y="53.317551"
       id="text44-0"
       transform="matrix(1.3863335,0,0,1.3191893,-40.484434,163.17651)"><tspan
         x="37.683079"
         y="53.317551"><tspan
           style="font-style:normal;font-variant:normal;font-weight:bold;font-stretch:normal;font-size:50.8px;font-family:sans-serif;-inkscape-font-specification:'sans-serif Bold';fill:#ff0000;stroke-width:0.264583">?</tspan></tspan></text>
    <text
       xml:space="preserve"
       style="font-style:normal;font-variant:normal;font-weight:bold;font-stretch:normal;font-size:50.8px;line-height:2.15;font-family:sans-serif;-inkscape-font-specification:'sans-serif Bold';white-space:pre;inline-size:32.5207;fill:#ff0000;fill-opacity:1;stroke:none;stroke-width:0.264583"
       x="37.683079"
       y="53.317551"
       id="text44-5"
       transform="matrix(1.3863335,0,0,1.3191893,-41.08576,-16.619888)"><tspan
         x="37.683079"
         y="53.317551"><tspan
           style="font-style:normal;font-variant:normal;font-weight:bold;font-stretch:normal;font-size:50.8px;font-family:sans-serif;-inkscape-font-specification:'sans-serif Bold';fill:#ff0000;stroke-width:0.264583">?</tspan></tspan></text>
  </g>
</svg>
